  0
SECTION
  2
HEADER
  9
$ACADVER
  1
AC1015
  9
$ACADMAINTVER
 70
     6
  9
$DWGCODEPAGE
  3
ANSI_1252
  9
$INSBASE
 10
0.0
 20
0.0
 30
0.0
  9
$EXTMIN
 10
0.0
 20
0.0
 30
0.0
  9
$EXTMAX
 10
430.0
 20
570.0000000000001
 30
0.0
  9
$LIMMIN
 10
0.0
 20
0.0
  9
$LIMMAX
 10
12.0
 20
9.0
  9
$ORTHOMODE
 70
     0
  9
$REGENMODE
 70
     1
  9
$FILLMODE
 70
     1
  9
$QTEXTMODE
 70
     0
  9
$MIRRTEXT
 70
     1
  9
$LTSCALE
 40
1.0
  9
$ATTMODE
 70
     1
  9
$TEXTSIZE
 40
0.2
  9
$TRACEWID
 40
0.05
  9
$TEXTSTYLE
  7
STANDARD
  9
$CLAYER
  8
0
  9
$CELTYPE
  6
BYBLOCK
  9
$CECOLOR
 62
   256
  9
$CELTSCALE
 40
1.0
  9
$DISPSILH
 70
     0
  9
$DIMSCALE
 40
1.0
  9
$DIMASZ
 40
0.18
  9
$DIMEXO
 40
0.0625
  9
$DIMDLI
 40
0.38
  9
$DIMRND
 40
0.0
  9
$DIMDLE
 40
0.0
  9
$DIMEXE
 40
0.18
  9
$DIMTP
 40
0.0
  9
$DIMTM
 40
0.0
  9
$DIMTXT
 40
0.18
  9
$DIMCEN
 40
0.09
  9
$DIMTSZ
 40
0.0
  9
$DIMTOL
 70
     0
  9
$DIMLIM
 70
     0
  9
$DIMTIH
 70
     1
  9
$DIMTOH
 70
     1
  9
$DIMSE1
 70
     0
  9
$DIMSE2
 70
     0
  9
$DIMTAD
 70
     0
  9
$DIMZIN
 70
     0
  9
$DIMBLK
  1

  9
$DIMASO
 70
     1
  9
$DIMSHO
 70
     1
  9
$DIMPOST
  1

  9
$DIMAPOST
  1

  9
$DIMALT
 70
     0
  9
$DIMALTD
 70
     2
  9
$DIMALTF
 40
25.4
  9
$DIMLFAC
 40
1.0
  9
$DIMTOFL
 70
     0
  9
$DIMTVP
 40
0.0
  9
$DIMTIX
 70
     0
  9
$DIMSOXD
 70
     0
  9
$DIMSAH
 70
     0
  9
$DIMBLK1
  1

  9
$DIMBLK2
  1

  9
$DIMSTYLE
  2
Standard
  9
$DIMCLRD
 70
     0
  9
$DIMCLRE
 70
     0
  9
$DIMCLRT
 70
     0
  9
$DIMTFAC
 40
1.0
  9
$DIMGAP
 40
0.09
  9
$DIMJUST
 70
     0
  9
$DIMSD1
 70
     0
  9
$DIMSD2
 70
     0
  9
$DIMTOLJ
 70
     1
  9
$DIMTZIN
 70
     0
  9
$DIMALTZ
 70
     0
  9
$DIMALTTZ
 70
     0
  9
$DIMUPT
 70
     0
  9
$DIMDEC
 70
     4
  9
$DIMTDEC
 70
     4
  9
$DIMALTU
 70
     2
  9
$DIMALTTD
 70
     2
  9
$DIMTXSTY
  7
STANDARD
  9
$DIMAUNIT
 70
     0
  9
$DIMADEC
 70
     0
  9
$DIMALTRND
 40
0.0
  9
$DIMAZIN
 70
     0
  9
$DIMDSEP
 70
    46
  9
$DIMATFIT
 70
     3
  9
$DIMFRAC
 70
     0
  9
$DIMLDRBLK
  1

  9
$DIMLUNIT
 70
     2
  9
$DIMLWD
 70
    -2
  9
$DIMLWE
 70
    -2
  9
$DIMTMOVE
 70
     2
  9
$LUNITS
 70
     2
  9
$LUPREC
 70
     4
  9
$SKETCHINC
 40
0.1
  9
$FILLETRAD
 40
50.0
  9
$AUNITS
 70
     0
  9
$AUPREC
 70
     0
  9
$MENU
  1
.
  9
$ELEVATION
 40
0.0
  9
$PELEVATION
 40
0.0
  9
$THICKNESS
 40
0.0
  9
$LIMCHECK
 70
     0
  9
$CHAMFERA
 40
0.0
  9
$CHAMFERB
 40
0.0
  9
$CHAMFERC
 40
0.0
  9
$CHAMFERD
 40
0.0
  9
$SKPOLY
 70
     0
  9
$TDCREATE
 40
2447892.75
  9
$TDUCREATE
 40
0.0
  9
$TDUPDATE
 40
2457438.66601485
  9
$TDUUPDATE
 40
2457438.91601485
  9
$TDINDWG
 40
0.0158146759
  9
$TDUSRTIMER
 40
2457438.900200278
  9
$USRTIMER
 70
     1
  9
$ANGBASE
 50
0.0
  9
$ANGDIR
 70
     0
  9
$PDMODE
 70
     0
  9
$PDSIZE
 40
0.0
  9
$PLINEWID
 40
0.0
  9
$SPLFRAME
 70
     0
  9
$SPLINETYPE
 70
     6
  9
$SPLINESEGS
 70
     8
  9
$HANDSEED
  5
100C1
  9
$SURFTAB1
 70
     6
  9
$SURFTAB2
 70
     6
  9
$SURFTYPE
 70
     6
  9
$SURFU
 70
     6
  9
$SURFV
 70
     6
  9
$UCSBASE
  2

  9
$UCSNAME
  2

  9
$UCSORG
 10
0.0
 20
0.0
 30
0.0
  9
$UCSXDIR
 10
1.0
 20
0.0
 30
0.0
  9
$UCSYDIR
 10
0.0
 20
1.0
 30
0.0
  9
$UCSORTHOREF
  2

  9
$UCSORTHOVIEW
 70
     0
  9
$UCSORGTOP
 10
0.0
 20
0.0
 30
0.0
  9
$UCSORGBOTTOM
 10
0.0
 20
0.0
 30
0.0
  9
$UCSORGLEFT
 10
0.0
 20
0.0
 30
0.0
  9
$UCSORGRIGHT
 10
0.0
 20
0.0
 30
0.0
  9
$UCSORGFRONT
 10
0.0
 20
0.0
 30
0.0
  9
$UCSORGBACK
 10
0.0
 20
0.0
 30
0.0
  9
$PUCSBASE
  2

  9
$PUCSNAME
  2

  9
$PUCSORG
 10
0.0
 20
0.0
 30
0.0
  9
$PUCSXDIR
 10
1.0
 20
0.0
 30
0.0
  9
$PUCSYDIR
 10
0.0
 20
1.0
 30
0.0
  9
$PUCSORTHOREF
  2

  9
$PUCSORTHOVIEW
 70
     0
  9
$PUCSORGTOP
 10
0.0
 20
0.0
 30
0.0
  9
$PUCSORGBOTTOM
 10
0.0
 20
0.0
 30
0.0
  9
$PUCSORGLEFT
 10
0.0
 20
0.0
 30
0.0
  9
$PUCSORGRIGHT
 10
0.0
 20
0.0
 30
0.0
  9
$PUCSORGFRONT
 10
0.0
 20
0.0
 30
0.0
  9
$PUCSORGBACK
 10
0.0
 20
0.0
 30
0.0
  9
$USERI1
 70
     0
  9
$USERI2
 70
     0
  9
$USERI3
 70
     0
  9
$USERI4
 70
     0
  9
$USERI5
 70
     0
  9
$USERR1
 40
0.0
  9
$USERR2
 40
0.0
  9
$USERR3
 40
0.0
  9
$USERR4
 40
0.0
  9
$USERR5
 40
0.0
  9
$WORLDVIEW
 70
     1
  9
$SHADEDGE
 70
     3
  9
$SHADEDIF
 70
    70
  9
$TILEMODE
 70
     1
  9
$MAXACTVP
 70
    64
  9
$PINSBASE
 10
0.0
 20
0.0
 30
0.0
  9
$PLIMCHECK
 70
     0
  9
$PEXTMIN
 10
1.000000000000000E+20
 20
1.000000000000000E+20
 30
1.000000000000000E+20
  9
$PEXTMAX
 10
-1.000000000000000E+20
 20
-1.000000000000000E+20
 30
-1.000000000000000E+20
  9
$PLIMMIN
 10
0.0
 20
0.0
  9
$PLIMMAX
 10
0.0
 20
0.0
  9
$UNITMODE
 70
     0
  9
$VISRETAIN
 70
     1
  9
$PLINEGEN
 70
     0
  9
$PSLTSCALE
 70
     1
  9
$TREEDEPTH
 70
  3020
  9
$CMLSTYLE
  2

  9
$CMLJUST
 70
     0
  9
$CMLSCALE
 40
1.0
  9
$PROXYGRAPHICS
 70
     1
  9
$MEASUREMENT
 70
     0
  9
$CELWEIGHT
370
    -1
  9
$ENDCAPS
280
     0
  9
$JOINSTYLE
280
     0
  9
$LWDISPLAY
290
     0
  9
$INSUNITS
 70
     4
  9
$HYPERLINKBASE
  1

  9
$STYLESHEET
  1

  9
$XEDIT
290
     1
  9
$CEPSNTYPE
380
     0
  9
$PSTYLEMODE
290
     1
  9
$FINGERPRINTGUID
  2
{DF510314-1706-44AA-83A1-B399D8E61BE4}
  9
$VERSIONGUID
  2
{FAEB1C32-E019-11D5-929B-00C0DF256EC4}
  9
$EXTNAMES
290
     1
  9
$PSVPSCALE
 40
0.0
  9
$OLESTARTUP
290
     0
  0
ENDSEC
  0
SECTION
  2
CLASSES
  0
CLASS
  1
SCALE
  2
AcDbScale
  3
ObjectDBX Classes
 90
     1153
280
     0
281
     0
  0
CLASS
  1
MATERIAL
  2
AcDbMaterial
  3
ObjectDBX Classes
 90
     1153
280
     0
281
     0
  0
CLASS
  1
VISUALSTYLE
  2
AcDbVisualStyle
  3
ObjectDBX Classes
 90
     4095
280
     0
281
     0
  0
CLASS
  1
TABLESTYLE
  2
AcDbTableStyle
  3
ObjectDBX Classes
 90
     4095
280
     0
281
     0
  0
CLASS
  1
MLEADERSTYLE
  2
AcDbMLeaderStyle
  3
ACDB_MLEADERSTYLE_CLASS
 90
     4095
280
     0
281
     0
  0
CLASS
  1
SUN
  2
AcDbSun
  3
SCENEOE
 90
     1153
280
     0
281
     0
  0
CLASS
  1
RASTERVARIABLES
  2
AcDbRasterVariables
  3
ISM
 90
        0
280
     0
281
     0
  0
CLASS
  1
ACDBPLACEHOLDER
  2
AcDbPlaceHolder
  3
ObjectDBX Classes
 90
        0
280
     0
281
     0
  0
CLASS
  1
LAYOUT
  2
AcDbLayout
  3
ObjectDBX Classes
 90
        0
280
     0
281
     0
  0
ENDSEC
  0
SECTION
  2
TABLES
  0
TABLE
  2
VPORT
  5
8
330
0
100
AcDbSymbolTable
 70
     1
  0
VPORT
  5
10001
330
8
100
AcDbSymbolTableRecord
100
AcDbViewportTableRecord
  2
*Active
 70
     0
 10
0.0
 20
0.0
 11
1.0
 21
1.0
 12
237.5382375129481
 22
256.4161068753621
 13
0.0
 23
0.0
 14
0.5
 24
0.5
 15
0.5
 25
0.5
 16
0.0
 26
0.0
 36
1.0
 17
0.0
 27
0.0
 37
0.0
 40
906.0319567259788
 41
0.7134292565947242
 42
50.0
 43
0.0
 44
0.0
 50
0.0
 51
0.0
 71
    16
 72
   100
 73
     1
 74
     3
 75
     0
 76
     0
 77
     0
 78
     0
281
     0
 65
     1
110
0.0
120
0.0
130
0.0
111
1.0
121
0.0
131
0.0
112
0.0
122
1.0
132
0.0
 79
     0
146
0.0
  0
ENDTAB
  0
TABLE
  2
LTYPE
  5
5
330
0
100
AcDbSymbolTable
 70
     1
  0
LTYPE
  5
14
330
5
100
AcDbSymbolTableRecord
100
AcDbLinetypeTableRecord
  2
BYBLOCK
 70
     0
  3

 72
    65
 73
     0
 40
0.0
  0
LTYPE
  5
15
330
5
100
AcDbSymbolTableRecord
100
AcDbLinetypeTableRecord
  2
BYLAYER
 70
     0
  3

 72
    65
 73
     0
 40
0.0
  0
LTYPE
  5
FFFF
330
5
100
AcDbSymbolTableRecord
100
AcDbLinetypeTableRecord
  2
Continuous
 70
     0
  3
Solid line
 72
    65
 73
     0
 40
0.0
  0
ENDTAB
  0
TABLE
  2
LAYER
  5
2
102
{ACAD_XDICTIONARY
360
10082
102
}
330
0
100
AcDbSymbolTable
 70
     2
  0
LAYER
  5
50
330
2
100
AcDbSymbolTableRecord
100
AcDbLayerTableRecord
  2
0
 70
     0
 62
     7
  6
Continuous
370
    -3
390
0
  0
LAYER
  5
10085
330
2
100
AcDbSymbolTableRecord
100
AcDbLayerTableRecord
  2
constr
 70
     0
 62
    -1
  6
Continuous
370
    -3
390
0
1001
AcAecLayerStandard
1000

1000

  0
ENDTAB
  0
TABLE
  2
STYLE
  5
3
330
0
100
AcDbSymbolTable
 70
     1
  0
STYLE
  5
11
330
3
100
AcDbSymbolTableRecord
100
AcDbTextStyleTableRecord
  2
STANDARD
 70
     0
 40
0.2
 41
1.0
 50
0.0
 71
     0
 42
0.2
  3

  4

  0
ENDTAB
  0
TABLE
  2
VIEW
  5
6
330
0
100
AcDbSymbolTable
 70
     0
  0
ENDTAB
  0
TABLE
  2
UCS
  5
7
330
0
100
AcDbSymbolTable
 70
     0
  0
ENDTAB
  0
TABLE
  2
APPID
  5
9
330
0
100
AcDbSymbolTable
 70
     2
  0
APPID
  5
12
330
9
100
AcDbSymbolTableRecord
100
AcDbRegAppTableRecord
  2
ACAD
 70
     0
  0
APPID
  5
10086
330
9
100
AcDbSymbolTableRecord
100
AcDbRegAppTableRecord
  2
AcAecLayerStandard
 70
     0
  0
ENDTAB
  0
TABLE
  2
DIMSTYLE
  5
A
330
0
100
AcDbSymbolTable
 70
     1
100
AcDbDimStyleTable
  0
DIMSTYLE
105
10000
330
A
100
AcDbSymbolTableRecord
100
AcDbDimStyleTableRecord
  2
Standard
 70
     0
178
     0
340
11
  0
ENDTAB
  0
TABLE
  2
BLOCK_RECORD
  5
1
330
0
100
AcDbSymbolTable
 70
     0
  0
BLOCK_RECORD
  5
1F
330
1
100
AcDbSymbolTableRecord
100
AcDbBlockTableRecord
  2
*MODEL_SPACE
340
10026
  0
BLOCK_RECORD
  5
1B
330
1
100
AcDbSymbolTableRecord
100
AcDbBlockTableRecord
  2
*PAPER_SPACE
340
10027
  0
ENDTAB
  0
ENDSEC
  0
SECTION
  2
BLOCKS
  0
BLOCK
  5
20
330
1F
100
AcDbEntity
  8
0
100
AcDbBlockBegin
  2
*MODEL_SPACE
 70
     0
 10
0.0
 20
0.0
 30
0.0
  3
*MODEL_SPACE
  1
*MODEL_SPACE
  0
ENDBLK
  5
21
330
1F
100
AcDbEntity
  8
0
100
AcDbBlockEnd
  0
BLOCK
  5
1C
330
1B
100
AcDbEntity
 67
     1
  8
0
100
AcDbBlockBegin
  2
*PAPER_SPACE
 70
     0
 10
0.0
 20
0.0
 30
0.0
  3
*PAPER_SPACE
  1
*PAPER_SPACE
  0
ENDBLK
  5
1D
330
1B
100
AcDbEntity
 67
     1
  8
0
100
AcDbBlockEnd
  0
ENDSEC
  0
SECTION
  2
ENTITIES
  0
CIRCLE
  5
100
330
1F
100
AcDbEntity
  8
0
100
AcDbCircle
 10
24.59677245078382
 20
524.6486063142626
 30
0.0
 40
5.249999999999986
  0
CIRCLE
  5
101
330
1F
100
AcDbEntity
  8
0
100
AcDbCircle
 10
24.59677245078382
 20
279.6486063142626
 30
0.0
 40
5.250000000000011
  0
CIRCLE
  5
102
330
1F
100
AcDbEntity
  8
0
100
AcDbCircle
 10
24.59677245078382
 20
34.64860631426258
 30
0.0
 40
5.250000000000004
  0
CIRCLE
  5
104
330
1F
100
AcDbEntity
  8
0
100
AcDbCircle
 10
24.59677245078382
 20
524.6486063142626
 30
0.0
 40
5.249999999999986
  0
CIRCLE
  5
105
330
1F
100
AcDbEntity
  8
0
100
AcDbCircle
 10
24.59677245078382
 20
279.6486063142626
 30
0.0
 40
5.250000000000011
  0
CIRCLE
  5
106
330
1F
100
AcDbEntity
  8
0
100
AcDbCircle
 10
24.59677245078382
 20
34.64860631426258
 30
0.0
 40
5.250000000000004
  0
ARC
  5
1005C
330
1F
100
AcDbEntity
  8
0
100
AcDbCircle
 10
105.8343438830275
 20
23.40261119530021
 30
0.0
 40
72.50000000000006
100
AcDbArc
 50
359.9999999999997
 51
7.408760878676961
  0
LINE
  5
1005D
330
1F
100
AcDbEntity
  8
0
100
AcDbLine
 10
178.3343438830275
 20
23.40261119529982
 30
0.0
 11
178.3343438830275
 21
12.64860631426266
 31
0.0
  0
ARC
  5
1005E
330
1F
100
AcDbEntity
  8
0
100
AcDbCircle
 10
173.3343438830275
 20
12.64860631426269
 30
0.0
 40
5.000000000000001
100
AcDbArc
 50
270.0
 51
359.9999999999997
  0
LINE
  5
1005F
330
1F
100
AcDbEntity
  8
0
100
AcDbLine
 10
173.3343438830275
 20
7.648606314262686
 30
0.0
 11
136.549596802727
 21
7.648606314262662
 31
0.0
  0
ARC
  5
10060
330
1F
100
AcDbEntity
  8
0
100
AcDbCircle
 10
136.549596802727
 20
12.64860631426266
 30
0.0
 40
5.000000000000004
100
AcDbArc
 50
206.4552692205762
 51
270.0
  0
ARC
  5
10061
330
1F
100
AcDbEntity
  8
0
100
AcDbCircle
 10
127.5967724507837
 20
8.193616289217584
 30
0.0
 40
4.999999999999979
100
AcDbArc
 50
26.4552692205763
 51
90.00000000000016
  0
LINE
  5
10062
330
1F
100
AcDbEntity
  8
0
100
AcDbLine
 10
127.5967724507837
 20
13.19361628921756
 30
0.0
 11
12.59677245078389
 21
13.19361628921757
 31
0.0
  0
LINE
  5
10063
330
1F
100
AcDbEntity
  8
0
100
AcDbLine
 10
12.59677245078389
 20
13.19361628921757
 30
0.0
 11
12.59677245078382
 21
554.6486063142627
 31
0.0
  0
LINE
  5
10064
330
1F
100
AcDbEntity
  8
0
100
AcDbLine
 10
12.59677245078382
 20
554.6486063142627
 30
0.0
 11
43.24434940377374
 21
554.6486063142627
 31
0.0
  0
ARC
  5
10065
330
1F
100
AcDbEntity
  8
0
100
AcDbCircle
 10
43.24434940377374
 20
536.1486063142627
 30
0.0
 40
18.50000000000003
100
AcDbArc
 50
20.80125341456164
 51
89.99999999999996
  0
LWPOLYLINE
  5
10066
330
1F
100
AcDbEntity
  8
0
  6
ByBlock
100
AcDbPolyline
 90
        8
 70
     0
 43
0.0
 10
60.53848069765732
 20
542.7184634504504
 10
99.07665867941643
 20
375.0155340768965
 42
0.349500107222297
 10
108.8226355919413
 20
367.2551621756065
 10
130.0880180023851
 20
367.2551621756065
 42
-0.414213562373095
 10
140.0880180023851
 20
357.2551621756065
 10
140.0880180023852
 20
202.2213960849434
 42
0.0565297710873043
 10
141.3581334397606
 20
191.0232555913931
 10
177.7290745262525
 20
32.75128520491904
  0
CIRCLE
  5
1006C
330
1F
100
AcDbEntity
  8
0
  6
ByBlock
100
AcDbCircle
 10
52.58801800238513
 20
179.7551621756065
 30
0.0
 40
2.0
  0
CIRCLE
  5
1006D
330
1F
100
AcDbEntity
  8
0
  6
ByBlock
100
AcDbCircle
 10
102.5880180023851
 20
179.7551621756065
 30
0.0
 40
2.0
  0
CIRCLE
  5
1006E
330
1F
100
AcDbEntity
  8
0
  6
ByBlock
100
AcDbCircle
 10
52.58801800238513
 20
329.7551621756065
 30
0.0
 40
2.0
  0
CIRCLE
  5
1006F
330
1F
100
AcDbEntity
  8
0
  6
ByBlock
100
AcDbCircle
 10
102.5880180023851
 20
329.7551621756065
 30
0.0
 40
2.0
  0
LWPOLYLINE
  5
10070
330
1F
100
AcDbEntity
  8
constr
  6
ByBlock
100
AcDbPolyline
 90
        4
 70
     1
 43
0.0
 10
97.12224555160128
 20
189.306555861344
 10
32.86024555160134
 20
189.306555861344
 10
32.86024555160134
 20
290.906555861344
 10
97.12224555160128
 20
290.906555861344
  0
LINE
  5
10071
330
1F
100
AcDbEntity
  8
constr
  6
ByBlock
100
AcDbLine
 10
32.86024555160134
 20
290.906555861344
 30
0.0
 11
97.12224555160128
 21
189.306555861344
 31
0.0
  0
LINE
  5
10072
330
1F
100
AcDbEntity
  8
constr
  6
ByBlock
100
AcDbLine
 10
39.99124555160131
 20
315.106555861344
 30
0.0
 11
89.99124555160131
 21
165.106555861344
 31
0.0
  0
CIRCLE
  5
10074
330
1F
100
AcDbEntity
  8
0
  6
ByBlock
100
AcDbCircle
 10
45.45701800238515
 20
203.9551621756065
 30
0.0
 40
1.5
  0
CIRCLE
  5
10075
330
1F
100
AcDbEntity
  8
0
  6
ByBlock
100
AcDbCircle
 10
109.7190180023851
 20
203.9551621756065
 30
0.0
 40
1.5
  0
CIRCLE
  5
10076
330
1F
100
AcDbEntity
  8
0
  6
ByBlock
100
AcDbCircle
 10
109.7190180023851
 20
305.5551621756065
 30
0.0
 40
1.5
  0
CIRCLE
  5
10077
330
1F
100
AcDbEntity
  8
0
  6
ByBlock
100
AcDbCircle
 10
45.45701800238515
 20
305.5551621756065
 30
0.0
 40
1.5
  0
LWPOLYLINE
  5
10078
330
1F
100
AcDbEntity
  8
constr
  6
ByBlock
100
AcDbPolyline
 90
        4
 70
     1
 43
0.0
 10
7.49124555160131
 20
132.606555861344
 10
7.49124555160131
 20
347.606555861344
 10
122.4912455516013
 20
347.606555861344
 10
122.4912455516013
 20
132.606555861344
  0
LINE
  5
10079
330
1F
100
AcDbEntity
  8
constr
  6
ByBlock
100
AcDbLine
 10
7.49124555160131
 20
347.606555861344
 30
0.0
 11
122.4912455516013
 21
132.606555861344
 31
0.0
  0
LWPOLYLINE
  5
1007A
330
1F
100
AcDbEntity
  8
0
  6
ByBlock
100
AcDbPolyline
 90
        2
 70
     0
 43
0.0
 10
102.4950136486106
 20
187.8365085872085
 10
52.49501364861058
 20
187.8365085872085
  0
LWPOLYLINE
  5
1007B
330
1F
100
AcDbEntity
  8
0
  6
ByBlock
100
AcDbPolyline
 90
        2
 70
     0
 43
0.0
 10
31.61670003929981
 20
226.1757136293699
 10
31.61670003929981
 20
266.1757136293699
  0
ARC
  5
1007C
330
1F
100
AcDbEntity
  8
0
  6
ByBlock
100
AcDbCircle
 10
34.81670003929982
 20
226.1757136293699
 30
0.0
 40
3.199999999999999
100
AcDbArc
 50
180.0
 51
0.0
  0
ARC
  5
1007D
330
1F
100
AcDbEntity
  8
0
  6
ByBlock
100
AcDbCircle
 10
34.81670003929982
 20
266.1757136293699
 30
0.0
 40
3.199999999999999
100
AcDbArc
 50
0.0
 51
180.0
  0
ARC
  5
1007E
330
1F
100
AcDbEntity
  8
0
  6
ByBlock
100
AcDbCircle
 10
52.49501364861058
 20
191.0365085872085
 30
0.0
 40
3.199999999999999
100
AcDbArc
 50
90.0
 51
270.0
  0
ARC
  5
1007F
330
1F
100
AcDbEntity
  8
0
  6
ByBlock
100
AcDbCircle
 10
102.4950136486106
 20
191.0365085872085
 30
0.0
 40
3.199999999999999
100
AcDbArc
 50
270.0
 51
90.0
  0
LWPOLYLINE
  5
10080
330
1F
100
AcDbEntity
  8
0
  6
ByBlock
100
AcDbPolyline
 90
        2
 70
     0
 43
0.0
 10
52.49501364861058
 20
194.2365085872085
 10
102.4950136486106
 20
194.2365085872085
  0
LWPOLYLINE
  5
10081
330
1F
100
AcDbEntity
  8
0
  6
ByBlock
100
AcDbPolyline
 90
        2
 70
     0
 43
0.0
 10
38.01670003929981
 20
266.1757136293699
 10
38.01670003929981
 20
226.1757136293699
  0
CIRCLE
  5
10088
330
1F
100
AcDbEntity
  8
0
  6
ByBlock
100
AcDbCircle
 10
69.33829679834261
 20
166.762944477642
 30
0.0
 40
1.5
  0
CIRCLE
  5
1008A
330
1F
100
AcDbEntity
  8
0
  6
ByBlock
100
AcDbCircle
 10
89.33829679834261
 20
166.762944477642
 30
0.0
 40
1.5
  0
CIRCLE
  5
1008C
330
1F
100
AcDbEntity
  8
0
  6
ByBlock
100
AcDbCircle
 10
69.33829679834258
 20
116.762944477642
 30
0.0
 40
1.5
  0
CIRCLE
  5
1008D
330
1F
100
AcDbEntity
  8
0
  6
ByBlock
100
AcDbCircle
 10
89.3382967983426
 20
116.762944477642
 30
0.0
 40
1.5
  0
CIRCLE
  5
1008E
330
1F
100
AcDbEntity
  8
0
  6
ByBlock
100
AcDbCircle
 10
69.33829679834258
 20
66.76294447764201
 30
0.0
 40
1.5
  0
CIRCLE
  5
1008F
330
1F
100
AcDbEntity
  8
0
  6
ByBlock
100
AcDbCircle
 10
89.3382967983426
 20
66.76294447764201
 30
0.0
 40
1.5
  0
CIRCLE
  5
10092
330
1F
100
AcDbEntity
  8
0
  6
ByBlock
100
AcDbCircle
 10
42.92785049108453
 20
41.17962061971751
 30
0.0
 40
1.5
  0
CIRCLE
  5
10093
330
1F
100
AcDbEntity
  8
0
  6
ByBlock
100
AcDbCircle
 10
42.92785049108453
 20
21.1796206197175
 30
0.0
 40
1.5
  0
CIRCLE
  5
10096
330
1F
100
AcDbEntity
  8
0
100
AcDbCircle
 10
267.5452680887795
 20
35.71824389416776
 30
0.0
 40
5.249999999999986
  0
CIRCLE
  5
10097
330
1F
100
AcDbEntity
  8
0
100
AcDbCircle
 10
267.5452680887795
 20
280.7182438941679
 30
0.0
 40
5.250000000000011
  0
CIRCLE
  5
10098
330
1F
100
AcDbEntity
  8
0
100
AcDbCircle
 10
267.5452680887796
 20
525.7182438941677
 30
0.0
 40
5.250000000000004
  0
CIRCLE
  5
10099
330
1F
100
AcDbEntity
  8
0
100
AcDbCircle
 10
267.5452680887795
 20
35.71824389416776
 30
0.0
 40
5.249999999999986
  0
CIRCLE
  5
1009A
330
1F
100
AcDbEntity
  8
0
100
AcDbCircle
 10
267.5452680887795
 20
280.7182438941679
 30
0.0
 40
5.250000000000011
  0
CIRCLE
  5
1009B
330
1F
100
AcDbEntity
  8
0
100
AcDbCircle
 10
267.5452680887796
 20
525.7182438941677
 30
0.0
 40
5.250000000000004
  0
LINE
  5
1009C
330
1F
100
AcDbEntity
  8
0
100
AcDbLine
 10
113.8076966565358
 20
536.9642390131305
 30
0.0
 11
113.8076966565359
 21
547.7182438941677
 31
0.0
  0
ARC
  5
1009D
330
1F
100
AcDbEntity
  8
0
100
AcDbCircle
 10
118.8076966565359
 20
547.7182438941677
 30
0.0
 40
5.000000000000001
100
AcDbArc
 50
90.0
 51
180.0
  0
LINE
  5
1009E
330
1F
100
AcDbEntity
  8
0
100
AcDbLine
 10
118.8076966565359
 20
552.7182438941677
 30
0.0
 11
155.5924437368364
 21
552.7182438941677
 31
0.0
  0
ARC
  5
1009F
330
1F
100
AcDbEntity
  8
0
100
AcDbCircle
 10
155.5924437368364
 20
547.7182438941677
 30
0.0
 40
5.000000000000004
100
AcDbArc
 50
26.45526922057528
 51
90.0
  0
ARC
  5
100A0
330
1F
100
AcDbEntity
  8
0
100
AcDbCircle
 10
164.5452680887797
 20
552.1732339192129
 30
0.0
 40
4.999999999999979
100
AcDbArc
 50
206.4552692205783
 51
270.0
  0
LINE
  5
100A1
330
1F
100
AcDbEntity
  8
0
100
AcDbLine
 10
164.5452680887797
 20
547.1732339192129
 30
0.0
 11
279.5452680887795
 21
547.1732339192129
 31
0.0
  0
LINE
  5
100A2
330
1F
100
AcDbEntity
  8
0
100
AcDbLine
 10
279.5452680887795
 20
547.1732339192129
 30
0.0
 11
279.5452680887795
 21
5.718243894167756
 31
0.0
  0
LINE
  5
100A3
330
1F
100
AcDbEntity
  8
0
100
AcDbLine
 10
279.5452680887795
 20
5.718243894167756
 30
0.0
 11
248.8976911357896
 21
5.718243894167756
 31
0.0
  0
ARC
  5
100A4
330
1F
100
AcDbEntity
  8
0
100
AcDbCircle
 10
248.8976911357896
 20
24.21824389416776
 30
0.0
 40
18.50000000000003
100
AcDbArc
 50
200.8012534145619
 51
270.0
  0
ARC
  5
100A5
330
1F
100
AcDbEntity
  8
0
100
AcDbCircle
 10
186.3076966565359
 20
536.96423901313
 30
0.0
 40
72.50000000000006
100
AcDbArc
 50
179.9999999999996
 51
187.4087608786768
  0
LWPOLYLINE
  5
100A6
330
1F
100
AcDbEntity
  8
0
  6
ByBlock
100
AcDbPolyline
 90
        8
 70
     0
 43
0.0
 10
231.603559841906
 20
17.64838675797995
 10
193.0653818601469
 20
185.3513161315339
 42
0.349500107222297
 10
183.319404947622
 20
193.1116880328239
 10
162.0540225371782
 20
193.1116880328239
 42
-0.414213562373095
 10
152.0540225371782
 20
203.1116880328239
 10
152.0540225371782
 20
358.1454541234871
 42
0.0565297710873043
 10
150.7839070998027
 20
369.3435946170374
 10
114.4129660133108
 20
527.6155650035114
  0
CIRCLE
  5
100A7
330
1F
100
AcDbEntity
  8
0
  6
ByBlock
100
AcDbCircle
 10
239.5540225371782
 20
380.6116880328239
 30
0.0
 40
2.0
  0
CIRCLE
  5
100A8
330
1F
100
AcDbEntity
  8
0
  6
ByBlock
100
AcDbCircle
 10
189.5540225371782
 20
380.6116880328239
 30
0.0
 40
2.0
  0
CIRCLE
  5
100A9
330
1F
100
AcDbEntity
  8
0
  6
ByBlock
100
AcDbCircle
 10
239.5540225371782
 20
230.6116880328239
 30
0.0
 40
2.0
  0
CIRCLE
  5
100AA
330
1F
100
AcDbEntity
  8
0
  6
ByBlock
100
AcDbCircle
 10
189.5540225371782
 20
230.6116880328239
 30
0.0
 40
2.0
  0
CIRCLE
  5
100AB
330
1F
100
AcDbEntity
  8
0
  6
ByBlock
100
AcDbCircle
 10
246.6850225371782
 20
356.4116880328239
 30
0.0
 40
1.5
  0
CIRCLE
  5
100AC
330
1F
100
AcDbEntity
  8
0
  6
ByBlock
100
AcDbCircle
 10
182.4230225371782
 20
356.4116880328239
 30
0.0
 40
1.5
  0
CIRCLE
  5
100AD
330
1F
100
AcDbEntity
  8
0
  6
ByBlock
100
AcDbCircle
 10
182.4230225371782
 20
254.811688032824
 30
0.0
 40
1.5
  0
CIRCLE
  5
100AE
330
1F
100
AcDbEntity
  8
0
  6
ByBlock
100
AcDbCircle
 10
246.6850225371782
 20
254.811688032824
 30
0.0
 40
1.5
  0
LWPOLYLINE
  5
100AF
330
1F
100
AcDbEntity
  8
0
  6
ByBlock
100
AcDbPolyline
 90
        2
 70
     0
 43
0.0
 10
239.6470268909527
 20
366.130341621222
 10
189.6470268909527
 20
366.130341621222
  0
ARC
  5
100B0
330
1F
100
AcDbEntity
  8
0
  6
ByBlock
100
AcDbCircle
 10
189.6470268909527
 20
369.3303416212219
 30
0.0
 40
3.199999999999999
100
AcDbArc
 50
90.0
 51
270.0
  0
LWPOLYLINE
  5
100B1
330
1F
100
AcDbEntity
  8
0
  6
ByBlock
100
AcDbPolyline
 90
        2
 70
     0
 43
0.0
 10
254.1253405002635
 20
294.1911365790605
 10
254.1253405002635
 20
334.1911365790605
  0
ARC
  5
100B2
330
1F
100
AcDbEntity
  8
0
  6
ByBlock
100
AcDbCircle
 10
257.3253405002635
 20
294.1911365790605
 30
0.0
 40
3.199999999999999
100
AcDbArc
 50
180.0
 51
0.0
  0
ARC
  5
100B3
330
1F
100
AcDbEntity
  8
0
  6
ByBlock
100
AcDbCircle
 10
239.6470268909527
 20
369.3303416212219
 30
0.0
 40
3.199999999999999
100
AcDbArc
 50
270.0
 51
90.0
  0
ARC
  5
100B4
330
1F
100
AcDbEntity
  8
0
  6
ByBlock
100
AcDbCircle
 10
257.3253405002635
 20
334.1911365790605
 30
0.0
 40
3.199999999999999
100
AcDbArc
 50
0.0
 51
180.0
  0
LWPOLYLINE
  5
100B5
330
1F
100
AcDbEntity
  8
0
  6
ByBlock
100
AcDbPolyline
 90
        2
 70
     0
 43
0.0
 10
189.6470268909527
 20
372.5303416212219
 10
239.6470268909527
 20
372.5303416212219
  0
LWPOLYLINE
  5
100B6
330
1F
100
AcDbEntity
  8
0
  6
ByBlock
100
AcDbPolyline
 90
        2
 70
     0
 43
0.0
 10
260.5253405002635
 20
334.1911365790605
 10
260.5253405002635
 20
294.1911365790605
  0
CIRCLE
  5
100B7
330
1F
100
AcDbEntity
  8
0
  6
ByBlock
100
AcDbCircle
 10
222.8037437412207
 20
393.6039057307883
 30
0.0
 40
1.5
  0
CIRCLE
  5
100B8
330
1F
100
AcDbEntity
  8
0
  6
ByBlock
100
AcDbCircle
 10
202.8037437412207
 20
393.6039057307883
 30
0.0
 40
1.5
  0
CIRCLE
  5
100B9
330
1F
100
AcDbEntity
  8
0
  6
ByBlock
100
AcDbCircle
 10
222.8037437412207
 20
443.6039057307883
 30
0.0
 40
1.5
  0
CIRCLE
  5
100BA
330
1F
100
AcDbEntity
  8
0
  6
ByBlock
100
AcDbCircle
 10
202.8037437412207
 20
443.6039057307883
 30
0.0
 40
1.5
  0
CIRCLE
  5
100BB
330
1F
100
AcDbEntity
  8
0
  6
ByBlock
100
AcDbCircle
 10
222.8037437412208
 20
493.6039057307883
 30
0.0
 40
1.5
  0
CIRCLE
  5
100BC
330
1F
100
AcDbEntity
  8
0
  6
ByBlock
100
AcDbCircle
 10
202.8037437412208
 20
493.6039057307883
 30
0.0
 40
1.5
  0
CIRCLE
  5
100BD
330
1F
100
AcDbEntity
  8
0
  6
ByBlock
100
AcDbCircle
 10
249.2141900484788
 20
519.1872295887129
 30
0.0
 40
1.5
  0
CIRCLE
  5
100BE
330
1F
100
AcDbEntity
  8
0
  6
ByBlock
100
AcDbCircle
 10
249.2141900484788
 20
539.1872295887129
 30
0.0
 40
1.5
  0
LWPOLYLINE
  5
100BF
330
1F
100
AcDbEntity
  8
0
  6
ByBlock
100
AcDbPolyline
 90
        4
 70
     1
 43
0.0
 10
0.0
 20
0.0
 10
0.0
 20
570.0000000000001
 10
430.0
 20
570.0000000000001
 10
430.0
 20
0.0
  0
ENDSEC
  0
SECTION
  2
OBJECTS
  0
DICTIONARY
  5
C
330
0
100
AcDbDictionary
281
     1
  3
ACAD_GROUP
350
D
  3
ACAD_IMAGE_VARS
350
1004B
  3
ACAD_LAYOUT
350
10025
  3
ACAD_MLINESTYLE
350
17
  3
ACAD_SCALELIST
350
10003
  3
APPDATA
350
10049
  3
DWGPROPS
350
100C0
  0
DICTIONARY
  5
10082
330
2
100
AcDbDictionary
280
     1
281
     1
  3
ACAD_LAYERSTATES
360
10083
  3
ACLYDICTIONARY
360
10087
  0
DICTIONARY
  5
D
330
C
100
AcDbDictionary
281
     1
  0
RASTERVARIABLES
  5
1004B
102
{ACAD_REACTORS
330
C
102
}
330
C
100
AcDbRasterVariables
 90
        0
 70
     1
 71
     1
 72
     1
  0
DICTIONARY
  5
10025
102
{ACAD_REACTORS
330
C
102
}
330
C
100
AcDbDictionary
281
     1
  3
Model
350
10026
  3
Sheet 1
350
10027
  0
DICTIONARY
  5
17
330
C
100
AcDbDictionary
281
     1
  3
Standard
350
10002
  0
DICTIONARY
  5
10003
102
{ACAD_REACTORS
330
C
102
}
330
C
100
AcDbDictionary
281
     1
  3
A0
350
10004
  3
A1
350
10005
  3
A2
350
10006
  3
A3
350
10007
  3
A4
350
10008
  3
A5
350
10009
  3
A6
350
1000A
  3
A7
350
1000B
  3
A8
350
1000C
  3
A9
350
1000D
  3
B0
350
1000E
  3
B1
350
1000F
  3
B2
350
10010
  3
B3
350
10011
  3
B4
350
10012
  3
B5
350
10013
  3
B6
350
10014
  3
B7
350
10015
  3
B8
350
10016
  3
B9
350
10017
  3
C0
350
10018
  3
C1
350
10019
  3
C2
350
1001A
  3
C3
350
1001B
  3
C4
350
1001C
  3
C5
350
1001D
  3
C6
350
1001E
  3
C7
350
1001F
  3
C8
350
10020
  3
C9
350
10021
  3
D0
350
10022
  3
D1
350
10023
  3
D2
350
10024
  0
DICTIONARY
  5
10049
102
{ACAD_REACTORS
330
C
102
}
330
C
100
AcDbDictionary
281
     1
  0
XRECORD
  5
100C0
102
{ACAD_REACTORS
330
C
102
}
330
C
100
AcDbXrecord
280
     1
  1
DWGPROPS COOKIE
  2

  3

  4

  6

  7

  8
joe
  9

300
=
301
=
302
=
303
=
304
=
305
=
306
=
307
=
308
=
309
=
 40
0.0
 41
0.0
 42
2457438.91601485
  1

 90
        0
  0
DICTIONARY
  5
10083
102
{ACAD_REACTORS
330
10082
102
}
330
10082
100
AcDbDictionary
281
     1
  3
ARGON_LAYERP_1
350
10084
  3
ARGON_LAYERP_2
350
10094
  0
DICTIONARY
  5
10087
102
{ACAD_REACTORS
330
10082
102
}
330
10082
100
AcDbDictionary
281
     1
1001
ACAD
1000
<All
  0
LAYOUT
  5
10026
102
{ACAD_REACTORS
330
10025
102
}
330
10025
100
AcDbPlotSettings
  1

  2
none_device
  4
Letter_(8.50_x_11.00_Inches)
  6

 40
6.35
 41
6.35
 42
6.35
 43
6.35
 44
215.9
 45
279.4
 46
0.0
 47
0.0
 48
0.0
 49
0.0
140
0.0
141
0.0
142
1.0
143
2.21959459445662
 70
  1712
 72
     0
 73
     0
 74
     0
  7

 75
     0
147
0.4505327245333333
148
-39.40881537143161
149
0.0
100
AcDbLayout
  1
Model
 70
     1
 71
     0
 10
0.0
 20
0.0
 11
12.0
 21
9.0
 12
0.0
 22
0.0
 32
0.0
 14
0.0
 24
0.0
 34
0.0
 15
430.0
 25
570.0000000000001
 35
0.0
146
0.0
 13
0.0
 23
0.0
 33
0.0
 16
1.0
 26
0.0
 36
0.0
 17
0.0
 27
1.0
 37
0.0
 76
     0
330
1F
331
10001
  0
LAYOUT
  5
10027
102
{ACAD_REACTORS
330
10025
102
}
330
10025
100
AcDbPlotSettings
  1

  2
none_device
  4

  6

 40
0.0
 41
0.0
 42
0.0
 43
0.0
 44
0.0
 45
0.0
 46
0.0
 47
0.0
 48
0.0
 49
0.0
140
0.0
141
0.0
142
1.0
143
1.0
 70
   688
 72
     0
 73
     0
 74
     5
  7

 75
    16
147
1.0
148
0.0
149
0.0
100
AcDbLayout
  1
Sheet 1
 70
     1
 71
     1
 10
0.0
 20
0.0
 11
0.0
 21
0.0
 12
0.0
 22
0.0
 32
0.0
 14
1.000000000000000E+20
 24
1.000000000000000E+20
 34
1.000000000000000E+20
 15
-1.000000000000000E+20
 25
-1.000000000000000E+20
 35
-1.000000000000000E+20
146
0.0
 13
0.0
 23
0.0
 33
0.0
 16
1.0
 26
0.0
 36
0.0
 17
0.0
 27
1.0
 37
0.0
 76
     0
330
1B
  0
MLINESTYLE
  5
10002
102
{ACAD_REACTORS
330
17
102
}
330
17
100
AcDbMlineStyle
  2
Standard
 70
     0
  3

 62
   256
 51
90.0
 52
90.0
 71
     2
 49
0.5
 62
   256
  6
BYLAYER
 49
-0.5
 62
   256
  6
BYLAYER
  0
SCALE
  5
10004
102
{ACAD_REACTORS
330
10003
102
}
330
10003
100
AcDbScale
 70
     0
300
1:1
140
1.0
141
1.0
290
     1
  0
SCALE
  5
10005
102
{ACAD_REACTORS
330
10003
102
}
330
10003
100
AcDbScale
 70
     0
300
1:2
140
1.0
141
2.0
290
     0
  0
SCALE
  5
10006
102
{ACAD_REACTORS
330
10003
102
}
330
10003
100
AcDbScale
 70
     0
300
1:4
140
1.0
141
4.0
290
     0
  0
SCALE
  5
10007
102
{ACAD_REACTORS
330
10003
102
}
330
10003
100
AcDbScale
 70
     0
300
1:5
140
1.0
141
5.0
290
     0
  0
SCALE
  5
10008
102
{ACAD_REACTORS
330
10003
102
}
330
10003
100
AcDbScale
 70
     0
300
1:8
140
1.0
141
8.0
290
     0
  0
SCALE
  5
10009
102
{ACAD_REACTORS
330
10003
102
}
330
10003
100
AcDbScale
 70
     0
300
1:10
140
1.0
141
10.0
290
     0
  0
SCALE
  5
1000A
102
{ACAD_REACTORS
330
10003
102
}
330
10003
100
AcDbScale
 70
     0
300
1:16
140
1.0
141
16.0
290
     0
  0
SCALE
  5
1000B
102
{ACAD_REACTORS
330
10003
102
}
330
10003
100
AcDbScale
 70
     0
300
1:20
140
1.0
141
20.0
290
     0
  0
SCALE
  5
1000C
102
{ACAD_REACTORS
330
10003
102
}
330
10003
100
AcDbScale
 70
     0
300
1:30
140
1.0
141
30.0
290
     0
  0
SCALE
  5
1000D
102
{ACAD_REACTORS
330
10003
102
}
330
10003
100
AcDbScale
 70
     0
300
1:40
140
1.0
141
40.0
290
     0
  0
SCALE
  5
1000E
102
{ACAD_REACTORS
330
10003
102
}
330
10003
100
AcDbScale
 70
     0
300
1:50
140
1.0
141
50.0
290
     0
  0
SCALE
  5
1000F
102
{ACAD_REACTORS
330
10003
102
}
330
10003
100
AcDbScale
 70
     0
300
1:100
140
1.0
141
100.0
290
     0
  0
SCALE
  5
10010
102
{ACAD_REACTORS
330
10003
102
}
330
10003
100
AcDbScale
 70
     0
300
2:1
140
2.0
141
1.0
290
     0
  0
SCALE
  5
10011
102
{ACAD_REACTORS
330
10003
102
}
330
10003
100
AcDbScale
 70
     0
300
4:1
140
4.0
141
1.0
290
     0
  0
SCALE
  5
10012
102
{ACAD_REACTORS
330
10003
102
}
330
10003
100
AcDbScale
 70
     0
300
8:1
140
8.0
141
1.0
290
     0
  0
SCALE
  5
10013
102
{ACAD_REACTORS
330
10003
102
}
330
10003
100
AcDbScale
 70
     0
300
10:1
140
10.0
141
1.0
290
     0
  0
SCALE
  5
10014
102
{ACAD_REACTORS
330
10003
102
}
330
10003
100
AcDbScale
 70
     0
300
100:1
140
100.0
141
1.0
290
     0
  0
SCALE
  5
10015
102
{ACAD_REACTORS
330
10003
102
}
330
10003
100
AcDbScale
 70
     0
300
1/128" = 1'-0"
140
0.0078125
141
12.0
290
     0
  0
SCALE
  5
10016
102
{ACAD_REACTORS
330
10003
102
}
330
10003
100
AcDbScale
 70
     0
300
1/64" = 1'-0"
140
0.015625
141
12.0
290
     0
  0
SCALE
  5
10017
102
{ACAD_REACTORS
330
10003
102
}
330
10003
100
AcDbScale
 70
     0
300
1/32" = 1'-0"
140
0.03125
141
12.0
290
     0
  0
SCALE
  5
10018
102
{ACAD_REACTORS
330
10003
102
}
330
10003
100
AcDbScale
 70
     0
300
1/16" = 1'-0"
140
0.0625
141
12.0
290
     0
  0
SCALE
  5
10019
102
{ACAD_REACTORS
330
10003
102
}
330
10003
100
AcDbScale
 70
     0
300
3/32" = 1'-0"
140
0.09375
141
12.0
290
     0
  0
SCALE
  5
1001A
102
{ACAD_REACTORS
330
10003
102
}
330
10003
100
AcDbScale
 70
     0
300
1/8" = 1'-0"
140
0.125
141
12.0
290
     0
  0
SCALE
  5
1001B
102
{ACAD_REACTORS
330
10003
102
}
330
10003
100
AcDbScale
 70
     0
300
3/16" = 1'-0"
140
0.1875
141
12.0
290
     0
  0
SCALE
  5
1001C
102
{ACAD_REACTORS
330
10003
102
}
330
10003
100
AcDbScale
 70
     0
300
1/4" = 1'-0"
140
0.25
141
12.0
290
     0
  0
SCALE
  5
1001D
102
{ACAD_REACTORS
330
10003
102
}
330
10003
100
AcDbScale
 70
     0
300
3/8" = 1'-0"
140
0.375
141
12.0
290
     0
  0
SCALE
  5
1001E
102
{ACAD_REACTORS
330
10003
102
}
330
10003
100
AcDbScale
 70
     0
300
1/2" = 1'-0"
140
0.5
141
12.0
290
     0
  0
SCALE
  5
1001F
102
{ACAD_REACTORS
330
10003
102
}
330
10003
100
AcDbScale
 70
     0
300
3/4" = 1'-0"
140
0.75
141
12.0
290
     0
  0
SCALE
  5
10020
102
{ACAD_REACTORS
330
10003
102
}
330
10003
100
AcDbScale
 70
     0
300
1" = 1'-0"
140
1.0
141
12.0
290
     0
  0
SCALE
  5
10021
102
{ACAD_REACTORS
330
10003
102
}
330
10003
100
AcDbScale
 70
     0
300
1-1/2" = 1'-0"
140
1.5
141
12.0
290
     0
  0
SCALE
  5
10022
102
{ACAD_REACTORS
330
10003
102
}
330
10003
100
AcDbScale
 70
     0
300
3" = 1'-0"
140
3.0
141
12.0
290
     0
  0
SCALE
  5
10023
102
{ACAD_REACTORS
330
10003
102
}
330
10003
100
AcDbScale
 70
     0
300
6" = 1'-0"
140
6.0
141
12.0
290
     0
  0
SCALE
  5
10024
102
{ACAD_REACTORS
330
10003
102
}
330
10003
100
AcDbScale
 70
     0
300
1'-0" = 1'-0"
140
12.0
141
12.0
290
     0
  0
XRECORD
  5
10084
102
{ACAD_REACTORS
330
10083
102
}
330
10083
100
AcDbXrecord
280
     1
 91
     1023
301

290
     0
302
0
330
50
 90
        8
 62
     7
370
    -3
331
FFFF
  1
Color_7
  0
XRECORD
  5
10094
102
{ACAD_REACTORS
330
10083
102
}
330
10083
100
AcDbXrecord
280
     1
 91
     1023
301

290
     0
302
0
330
50
 90
        8
 62
     7
370
    -3
331
FFFF
  1
Color_7
330
10085
 90
        8
 62
     1
370
    -3
331
FFFF
  1
Color_1
  0
ENDSEC
  0
EOF
