  0
SECTION
  2
HEADER
  9
$ACADVER
  1
AC1009
  9
$DWGCODEPAGE
  3
ansi_1252
  9
$INSBASE
 10
0.0
 20
0.0
 30
0.0
  9
$EXTMIN
 10
0.0
 20
0.0
 30
0.0
  9
$EXTMAX
 10
1092.0
 20
570.0
 30
0.0
  9
$LIMMIN
 10
0.0
 20
0.0
  9
$LIMMAX
 10
12.0
 20
9.0
  9
$ORTHOMODE
 70
     0
  9
$REGENMODE
 70
     1
  9
$FILLMODE
 70
     1
  9
$QTEXTMODE
 70
     0
  9
$MIRRTEXT
 70
     1
  9
$DRAGMODE
 70
     2
  9
$LTSCALE
 40
1.0
  9
$OSMODE
 70
    37
  9
$ATTMODE
 70
     1
  9
$TEXTSIZE
 40
0.2
  9
$TRACEWID
 40
0.05
  9
$TEXTSTYLE
  7
STANDARD
  9
$CLAYER
  8
0
  9
$CELTYPE
  6
BYLAYER
  9
$CECOLOR
 62
   256
  9
$DIMSCALE
 40
1.0
  9
$DIMASZ
 40
0.18
  9
$DIMEXO
 40
0.0625
  9
$DIMDLI
 40
0.38
  9
$DIMRND
 40
0.0
  9
$DIMDLE
 40
0.0
  9
$DIMEXE
 40
0.18
  9
$DIMTP
 40
0.0
  9
$DIMTM
 40
0.0
  9
$DIMTXT
 40
0.18
  9
$DIMCEN
 40
0.09
  9
$DIMTSZ
 40
0.0
  9
$DIMTOL
 70
     0
  9
$DIMLIM
 70
     0
  9
$DIMTIH
 70
     1
  9
$DIMTOH
 70
     1
  9
$DIMSE1
 70
     0
  9
$DIMSE2
 70
     0
  9
$DIMTAD
 70
     0
  9
$DIMZIN
 70
     0
  9
$DIMBLK
  1

  9
$DIMASO
 70
     1
  9
$DIMSHO
 70
     1
  9
$DIMPOST
  1

  9
$DIMAPOST
  1

  9
$DIMALT
 70
     0
  9
$DIMALTD
 70
     2
  9
$DIMALTF
 40
25.4
  9
$DIMLFAC
 40
1.0
  9
$DIMTOFL
 70
     0
  9
$DIMTVP
 40
0.0
  9
$DIMTIX
 70
     0
  9
$DIMSOXD
 70
     0
  9
$DIMSAH
 70
     0
  9
$DIMBLK1
  1

  9
$DIMBLK2
  1

  9
$DIMSTYLE
  2
STANDARD
  9
$DIMCLRD
 70
     0
  9
$DIMCLRE
 70
     0
  9
$DIMCLRT
 70
     0
  9
$DIMTFAC
 40
1.0
  9
$DIMGAP
 40
0.09
  9
$LUNITS
 70
     2
  9
$LUPREC
 70
     4
  9
$SKETCHINC
 40
0.1
  9
$FILLETRAD
 40
0.5
  9
$AUNITS
 70
     0
  9
$AUPREC
 70
     0
  9
$MENU
  1
.
  9
$ELEVATION
 40
0.0
  9
$PELEVATION
 40
0.0
  9
$THICKNESS
 40
0.0
  9
$LIMCHECK
 70
     0
  9
$CHAMFERA
 40
0.0
  9
$CHAMFERB
 40
0.0
  9
$SKPOLY
 70
     0
  9
$TDCREATE
 40
2454910.5
  9
$TDUPDATE
 40
2457438.534363796
  9
$TDINDWG
 40
0.0000000116
  9
$TDUSRTIMER
 40
0.0000000116
  9
$USRTIMER
 70
     1
  9
$ANGBASE
 50
0.0
  9
$ANGDIR
 70
     0
  9
$PDMODE
 70
     0
  9
$PDSIZE
 40
0.0
  9
$PLINEWID
 40
0.0
  9
$COORDS
 70
     1
  9
$SPLFRAME
 70
     0
  9
$SPLINETYPE
 70
     6
  9
$SPLINESEGS
 70
     8
  9
$ATTDIA
 70
     0
  9
$ATTREQ
 70
     1
  9
$HANDLING
 70
     1
  9
$HANDSEED
  5
1FE
  9
$SURFTAB1
 70
     6
  9
$SURFTAB2
 70
     6
  9
$SURFTYPE
 70
     6
  9
$SURFU
 70
     6
  9
$SURFV
 70
     6
  9
$UCSNAME
  2

  9
$UCSORG
 10
0.0
 20
0.0
 30
0.0
  9
$UCSXDIR
 10
1.0
 20
0.0
 30
0.0
  9
$UCSYDIR
 10
0.0
 20
1.0
 30
0.0
  9
$PUCSNAME
  2

  9
$PUCSORG
 10
0.0
 20
0.0
 30
0.0
  9
$PUCSXDIR
 10
1.0
 20
0.0
 30
0.0
  9
$PUCSYDIR
 10
0.0
 20
1.0
 30
0.0
  9
$USERI1
 70
     0
  9
$USERI2
 70
     0
  9
$USERI3
 70
     0
  9
$USERI4
 70
     0
  9
$USERI5
 70
     0
  9
$USERR1
 40
0.0
  9
$USERR2
 40
0.0
  9
$USERR3
 40
0.0
  9
$USERR4
 40
0.0
  9
$USERR5
 40
0.0
  9
$WORLDVIEW
 70
     1
  9
$SHADEDGE
 70
     3
  9
$SHADEDIF
 70
    70
  9
$TILEMODE
 70
     1
  9
$MAXACTVP
 70
    64
  9
$PLIMCHECK
 70
     0
  9
$PEXTMIN
 10
1.000000000000000E+20
 20
1.000000000000000E+20
 30
1.000000000000000E+20
  9
$PEXTMAX
 10
-1.000000000000000E+20
 20
-1.000000000000000E+20
 30
-1.000000000000000E+20
  9
$PLIMMIN
 10
0.0
 20
0.0
  9
$PLIMMAX
 10
12.0
 20
9.0
  9
$UNITMODE
 70
     0
  9
$VISRETAIN
 70
     1
  9
$PLINEGEN
 70
     0
  9
$PSLTSCALE
 70
     1
  0
ENDSEC
  0
SECTION
  2
TABLES
  0
TABLE
  2
VPORT
 70
     1
  0
VPORT
  2
*ACTIVE
 70
     0
 10
0.0
 20
0.0
 11
1.0
 21
1.0
 12
10.42990654205607
 22
4.5
 13
0.0
 23
0.0
 14
0.5
 24
0.5
 15
0.5
 25
0.5
 16
0.0
 26
0.0
 36
1.0
 17
0.0
 27
0.0
 37
0.0
 40
9.0
 41
1.972972972850329
 42
50.0
 43
0.0
 44
0.0
 50
0.0
 51
0.0
 71
     0
 72
   100
 73
     1
 74
     3
 75
     0
 76
     0
 77
     0
 78
     0
  0
ENDTAB
  0
TABLE
  2
LTYPE
 70
     2
  0
LTYPE
  2
CONTINUOUS
 70
     0
  3
Solid line
 72
    65
 73
     0
 40
0.0
  0
LTYPE
  2
CONTINUOUS2
 70
     0
  3
Solid Line
 72
    65
 73
     0
 40
0.0
  0
ENDTAB
  0
TABLE
  2
LAYER
 70
     1
  0
LAYER
  2
0
 70
     0
 62
     7
  6
CONTINUOUS
  0
ENDTAB
  0
TABLE
  2
STYLE
 70
     1
  0
STYLE
  2
STANDARD
 70
     0
 40
0.0
 41
1.0
 50
0.0
 71
     0
 42
0.2
  3
txt
  4

  0
ENDTAB
  0
TABLE
  2
VIEW
 70
     0
  0
ENDTAB
  0
TABLE
  2
UCS
 70
     0
  0
ENDTAB
  0
TABLE
  2
APPID
 70
     1
  0
APPID
  2
ACAD
 70
     0
  0
ENDTAB
  0
TABLE
  2
DIMSTYLE
 70
     1
  0
DIMSTYLE
  2
STANDARD
 70
     0
  3

  4

  5

  6

  7

 40
1.0
 41
0.18
 42
0.0625
 43
0.38
 44
0.18
 45
0.0
 46
0.0
 47
0.0
 48
0.0
140
0.18
141
0.09
142
0.0
143
25.4
144
1.0
145
0.0
146
1.0
147
0.09
 71
     0
 72
     0
 73
     1
 74
     1
 75
     0
 76
     0
 77
     0
 78
     0
170
     0
171
     2
172
     0
173
     0
174
     0
175
     0
176
     0
177
     0
178
     0
  0
ENDTAB
  0
ENDSEC
  0
SECTION
  2
BLOCKS
  0
BLOCK
  8
0
  2
$MODEL_SPACE
 70
     0
 10
0.0
 20
0.0
 30
0.0
  3
$MODEL_SPACE
  1

  0
ENDBLK
  5
21
  8
0
  0
BLOCK
 67
     1
  8
0
  2
$PAPER_SPACE
 70
     0
 10
0.0
 20
0.0
 30
0.0
  3
$PAPER_SPACE
  1

  0
ENDBLK
  5
1D
 67
     1
  8
0
  0
ENDSEC
  0
SECTION
  2
ENTITIES
  0
POLYLINE
  5
6F
  8
0
 66
     1
 10
0.0
 20
0.0
 30
0.0
 70
     1
  0
VERTEX
  5
B1
  8
0
 10
449.5380875665638
 20
22.07341037627815
 30
0.0
 42
0.4142135623730951
  0
VERTEX
  5
B2
  8
0
 10
447.9505875665637
 20
20.48591037627814
 30
0.0
 42
0.4142135623730951
  0
VERTEX
  5
B3
  8
0
 10
449.5380875665638
 20
18.89841037627813
 30
0.0
 42
0.4142135623730951
  0
VERTEX
  5
B4
  8
0
 10
451.1255875665638
 20
20.48591037627814
 30
0.0
 42
0.4142135623730951
  0
SEQEND
  5
1C3
  8
0
  0
POLYLINE
  5
70
  8
0
 66
     1
 10
0.0
 20
0.0
 30
0.0
 70
     1
  0
VERTEX
  5
B5
  8
0
 10
496.5380875665638
 20
21.91825001390669
 30
0.0
  0
VERTEX
  5
B6
  8
0
 10
511.5380875665638
 20
21.91825001390669
 30
0.0
 42
0.9999999999999999
  0
VERTEX
  5
B7
  8
0
 10
511.5380875665638
 20
28.41825001390669
 30
0.0
  0
VERTEX
  5
B8
  8
0
 10
496.5380875665638
 20
28.41825001390669
 30
0.0
 42
0.9999999999999999
  0
SEQEND
  5
1C4
  8
0
  0
POLYLINE
  5
71
  8
0
 66
     1
 10
0.0
 20
0.0
 30
0.0
 70
     1
  0
VERTEX
  5
B9
  8
0
 10
27.03808756656369
 20
57.19543511613483
 30
0.0
 42
0.4142135623730951
  0
VERTEX
  5
BA
  8
0
 10
24.53808756656369
 20
54.69543511613483
 30
0.0
 42
0.4142135623730951
  0
VERTEX
  5
BB
  8
0
 10
27.03808756656369
 20
52.19543511613483
 30
0.0
 42
0.4142135623730951
  0
VERTEX
  5
BC
  8
0
 10
29.53808756656369
 20
54.69543511613483
 30
0.0
 42
0.4142135623730951
  0
SEQEND
  5
1C5
  8
0
  0
POLYLINE
  5
72
  8
0
 66
     1
 10
0.0
 20
0.0
 30
0.0
 70
     1
  0
VERTEX
  5
BD
  8
0
 10
495.1724542520221
 20
57.19543511613483
 30
0.0
 42
0.4142135623730951
  0
VERTEX
  5
BE
  8
0
 10
492.6724542520221
 20
54.69543511613483
 30
0.0
 42
0.4142135623730951
  0
VERTEX
  5
BF
  8
0
 10
495.1724542520221
 20
52.19543511613483
 30
0.0
 42
0.4142135623730951
  0
VERTEX
  5
C0
  8
0
 10
497.6724542520221
 20
54.69543511613483
 30
0.0
 42
0.4142135623730951
  0
SEQEND
  5
1C6
  8
0
  0
POLYLINE
  5
73
  8
0
 66
     1
 10
0.0
 20
0.0
 30
0.0
 70
     1
  0
VERTEX
  5
C1
  8
0
 10
519.538087566564
 20
88.41825001390659
 30
0.0
 42
0.4142135623730951
  0
VERTEX
  5
C2
  8
0
 10
516.788087566564
 20
85.6682500139066
 30
0.0
 42
0.4142135623730951
  0
VERTEX
  5
C3
  8
0
 10
519.538087566564
 20
82.91825001390661
 30
0.0
 42
0.4142135623730951
  0
VERTEX
  5
C4
  8
0
 10
522.288087566564
 20
85.6682500139066
 30
0.0
 42
0.4142135623730951
  0
SEQEND
  5
1C7
  8
0
  0
POLYLINE
  5
74
  8
0
 66
     1
 10
0.0
 20
0.0
 30
0.0
 70
     1
  0
VERTEX
  5
C5
  8
0
 10
519.538087566564
 20
547.4182500139091
 30
0.0
 42
0.4142135623730951
  0
VERTEX
  5
C6
  8
0
 10
516.788087566564
 20
544.6682500139091
 30
0.0
 42
0.4142135623730951
  0
VERTEX
  5
C7
  8
0
 10
519.538087566564
 20
541.9182500139091
 30
0.0
 42
0.4142135623730951
  0
VERTEX
  5
C8
  8
0
 10
522.2880875665638
 20
544.6682500139091
 30
0.0
 42
0.4142135623730951
  0
SEQEND
  5
1C8
  8
0
  0
POLYLINE
  5
75
  8
0
 66
     1
 10
0.0
 20
0.0
 30
0.0
 70
     1
  0
VERTEX
  5
C9
  8
0
 10
24.53808756656383
 20
547.4182500139091
 30
0.0
 42
0.4142135623730951
  0
VERTEX
  5
CA
  8
0
 10
21.78808756656385
 20
544.6682500139091
 30
0.0
 42
0.4142135623730951
  0
VERTEX
  5
CB
  8
0
 10
24.53808756656383
 20
541.9182500139091
 30
0.0
 42
0.4142135623730951
  0
VERTEX
  5
CC
  8
0
 10
27.28808756656382
 20
544.6682500139091
 30
0.0
 42
0.4142135623730951
  0
SEQEND
  5
1C9
  8
0
  0
POLYLINE
  5
76
  8
0
 66
     1
 10
0.0
 20
0.0
 30
0.0
 70
     1
  0
VERTEX
  5
CD
  8
0
 10
63.5380875665639
 20
40.34325001390675
 30
0.0
 42
0.4142135623730951
  0
VERTEX
  5
CE
  8
0
 10
60.36308756656391
 20
37.16825001390676
 30
0.0
 42
0.4142135623730951
  0
VERTEX
  5
CF
  8
0
 10
63.5380875665639
 20
33.99325001390677
 30
0.0
 42
0.4142135623730951
  0
VERTEX
  5
D0
  8
0
 10
66.71308756656389
 20
37.16825001390676
 30
0.0
 42
0.4142135623730951
  0
SEQEND
  5
1CA
  8
0
  0
POLYLINE
  5
77
  8
0
 66
     1
 10
0.0
 20
0.0
 30
0.0
 70
     1
  0
VERTEX
  5
D1
  8
0
 10
480.5380875665639
 20
40.34325001390675
 30
0.0
 42
0.4142135623730951
  0
VERTEX
  5
D2
  8
0
 10
477.3630875665639
 20
37.16825001390676
 30
0.0
 42
0.4142135623730951
  0
VERTEX
  5
D3
  8
0
 10
480.5380875665639
 20
33.99325001390677
 30
0.0
 42
0.4142135623730951
  0
VERTEX
  5
D4
  8
0
 10
483.7130875665639
 20
37.16825001390676
 30
0.0
 42
0.4142135623730951
  0
SEQEND
  5
1CB
  8
0
  0
POLYLINE
  5
78
  8
0
 66
     1
 10
0.0
 20
0.0
 30
0.0
 70
     1
  0
VERTEX
  5
D5
  8
0
 10
480.5380875665639
 20
285.3432500139068
 30
0.0
 42
0.4142135623730951
  0
VERTEX
  5
D6
  8
0
 10
477.3630875665639
 20
282.1682500139067
 30
0.0
 42
0.4142135623730951
  0
VERTEX
  5
D7
  8
0
 10
480.5380875665639
 20
278.9932500139067
 30
0.0
 42
0.4142135623730951
  0
VERTEX
  5
D8
  8
0
 10
483.7130875665639
 20
282.1682500139067
 30
0.0
 42
0.4142135623730951
  0
SEQEND
  5
1CC
  8
0
  0
POLYLINE
  5
79
  8
0
 66
     1
 10
0.0
 20
0.0
 30
0.0
 70
     1
  0
VERTEX
  5
D9
  8
0
 10
480.5380875665639
 20
530.3432500139068
 30
0.0
 42
0.4142135623730951
  0
VERTEX
  5
DA
  8
0
 10
477.3630875665639
 20
527.1682500139068
 30
0.0
 42
0.4142135623730951
  0
VERTEX
  5
DB
  8
0
 10
480.5380875665639
 20
523.9932500139066
 30
0.0
 42
0.4142135623730951
  0
VERTEX
  5
DC
  8
0
 10
483.7130875665639
 20
527.1682500139068
 30
0.0
 42
0.4142135623730951
  0
SEQEND
  5
1CD
  8
0
  0
POLYLINE
  5
7A
  8
0
 66
     1
 10
0.0
 20
0.0
 30
0.0
 70
     1
  0
VERTEX
  5
DD
  8
0
 10
252.1255839659116
 20
29.77906739178687
 30
0.0
 42
0.4142135623730951
  0
VERTEX
  5
DE
  8
0
 10
249.5255839659116
 20
27.17906739178689
 30
0.0
 42
0.4142135623730951
  0
VERTEX
  5
DF
  8
0
 10
252.1255839659116
 20
24.57906739178691
 30
0.0
 42
0.4142135623730951
  0
VERTEX
  5
E0
  8
0
 10
254.7255839659115
 20
27.17906739178689
 30
0.0
 42
0.4142135623730951
  0
SEQEND
  5
1CE
  8
0
  0
POLYLINE
  5
7B
  8
0
 66
     1
 10
0.0
 20
0.0
 30
0.0
 70
     1
  0
VERTEX
  5
E1
  8
0
 10
321.9505911672161
 20
46.88899675036649
 30
0.0
 42
0.4142135623730951
  0
VERTEX
  5
E2
  8
0
 10
319.3505911672161
 20
44.28899675036647
 30
0.0
 42
0.4142135623730951
  0
VERTEX
  5
E3
  8
0
 10
321.9505911672161
 20
41.68899675036646
 30
0.0
 42
0.4142135623730951
  0
VERTEX
  5
E4
  8
0
 10
324.5505911672161
 20
44.28899675036647
 30
0.0
 42
0.4142135623730951
  0
SEQEND
  5
1CF
  8
0
  0
POLYLINE
  5
7C
  8
0
 66
     1
 10
0.0
 20
0.0
 30
0.0
 70
     1
  0
VERTEX
  5
E5
  8
0
 10
222.1255839659116
 20
29.77906739178688
 30
0.0
 42
0.4142135623730951
  0
VERTEX
  5
E6
  8
0
 10
219.5255839659116
 20
27.1790673917869
 30
0.0
 42
0.4142135623730951
  0
VERTEX
  5
E7
  8
0
 10
222.1255839659116
 20
24.57906739178692
 30
0.0
 42
0.4142135623730951
  0
VERTEX
  5
E8
  8
0
 10
224.7255839659115
 20
27.1790673917869
 30
0.0
 42
0.4142135623730951
  0
SEQEND
  5
1D0
  8
0
  0
POLYLINE
  5
7D
  8
0
 66
     1
 10
0.0
 20
0.0
 30
0.0
 70
     1
  0
VERTEX
  5
E9
  8
0
 10
321.9505911672161
 20
29.77906739178693
 30
0.0
 42
0.4142135623730951
  0
VERTEX
  5
EA
  8
0
 10
319.3505911672161
 20
27.17906739178692
 30
0.0
 42
0.4142135623730951
  0
VERTEX
  5
EB
  8
0
 10
321.9505911672161
 20
24.5790673917869
 30
0.0
 42
0.4142135623730951
  0
VERTEX
  5
EC
  8
0
 10
324.5505911672161
 20
27.17906739178692
 30
0.0
 42
0.4142135623730951
  0
SEQEND
  5
1D1
  8
0
  0
POLYLINE
  5
7E
  8
0
 66
     1
 10
0.0
 20
0.0
 30
0.0
 70
     1
  0
VERTEX
  5
ED
  8
0
 10
291.9505911672161
 20
29.77906739178691
 30
0.0
 42
0.4142135623730951
  0
VERTEX
  5
EE
  8
0
 10
289.3505911672161
 20
27.1790673917869
 30
0.0
 42
0.4142135623730951
  0
VERTEX
  5
EF
  8
0
 10
291.9505911672161
 20
24.57906739178688
 30
0.0
 42
0.4142135623730951
  0
VERTEX
  5
F0
  8
0
 10
294.5505911672162
 20
27.1790673917869
 30
0.0
 42
0.4142135623730951
  0
SEQEND
  5
1D2
  8
0
  0
POLYLINE
  5
7F
  8
0
 66
     1
 10
0.0
 20
0.0
 30
0.0
 70
     1
  0
VERTEX
  5
F1
  8
0
 10
492.7318663186732
 20
10.16825001390669
 30
0.0
 42
-0.2238875363520746
  0
VERTEX
  5
F2
  8
0
 10
488.4892256315539
 20
12.16825001390668
 30
0.0
 42
0.2238875363520799
  0
VERTEX
  5
F3
  8
0
 10
484.2465849444346
 20
14.16825001390668
 30
0.0
  0
VERTEX
  5
F4
  8
0
 10
59.82959018869303
 20
14.16825001390669
 30
0.0
 42
0.2238875363520731
  0
VERTEX
  5
F5
  8
0
 10
55.58694950157371
 20
12.16825001390668
 30
0.0
 42
-0.2238875363520746
  0
VERTEX
  5
F6
  8
0
 10
51.34430881445445
 20
10.16825001390669
 30
0.0
  0
VERTEX
  5
F7
  8
0
 10
29.53808756656383
 20
10.16825001390667
 30
0.0
 42
-0.4142135623730962
  0
VERTEX
  5
F8
  8
0
 10
14.53808756656383
 20
25.16825001390666
 30
0.0
  0
VERTEX
  5
F9
  8
0
 10
14.53808756656389
 20
554.6682500139068
 30
0.0
 42
-0.4142135623731075
  0
VERTEX
  5
FA
  8
0
 10
17.03808756656383
 20
557.1682500139068
 30
0.0
  0
VERTEX
  5
FB
  8
0
 10
527.0380875665638
 20
557.1682500139068
 30
0.0
 42
-0.4142135623731075
  0
VERTEX
  5
FC
  8
0
 10
529.5380875665638
 20
554.6682500139068
 30
0.0
  0
VERTEX
  5
FD
  8
0
 10
529.5380875665638
 20
25.16825001390669
 30
0.0
 42
-0.4142135623730963
  0
VERTEX
  5
FE
  8
0
 10
514.538087566564
 20
10.16825001390669
 30
0.0
  0
SEQEND
  5
1D3
  8
0
  0
POLYLINE
  5
80
  8
0
 66
     1
 10
0.0
 20
0.0
 30
0.0
 70
     1
  0
VERTEX
  5
FF
  8
0
 10
349.5380875665638
 20
22.07341037627821
 30
0.0
 42
0.4142135623730951
  0
VERTEX
  5
100
  8
0
 10
347.9505875665638
 20
20.48591037627822
 30
0.0
 42
0.4142135623730951
  0
VERTEX
  5
101
  8
0
 10
349.5380875665638
 20
18.89841037627822
 30
0.0
 42
0.4142135623730951
  0
VERTEX
  5
102
  8
0
 10
351.1255875665638
 20
20.48591037627822
 30
0.0
 42
0.4142135623730951
  0
SEQEND
  5
1D4
  8
0
  0
POLYLINE
  5
81
  8
0
 66
     1
 10
0.0
 20
0.0
 30
0.0
 70
     1
  0
VERTEX
  5
103
  8
0
 10
94.53808756656389
 20
22.07341037627829
 30
0.0
 42
0.4142135623730951
  0
VERTEX
  5
104
  8
0
 10
92.95058756656387
 20
20.48591037627828
 30
0.0
 42
0.4142135623730951
  0
VERTEX
  5
105
  8
0
 10
94.53808756656389
 20
18.89841037627827
 30
0.0
 42
0.4142135623730951
  0
VERTEX
  5
106
  8
0
 10
96.12558756656391
 20
20.48591037627828
 30
0.0
 42
0.4142135623730951
  0
SEQEND
  5
1D5
  8
0
  0
POLYLINE
  5
82
  8
0
 66
     1
 10
0.0
 20
0.0
 30
0.0
 70
     1
  0
VERTEX
  5
107
  8
0
 10
194.5380875665639
 20
22.07341037627828
 30
0.0
 42
0.4142135623730951
  0
VERTEX
  5
108
  8
0
 10
192.9505875665639
 20
20.48591037627828
 30
0.0
 42
0.4142135623730951
  0
VERTEX
  5
109
  8
0
 10
194.5380875665639
 20
18.89841037627829
 30
0.0
 42
0.4142135623730951
  0
VERTEX
  5
10A
  8
0
 10
196.1255875665639
 20
20.48591037627828
 30
0.0
 42
0.4142135623730951
  0
SEQEND
  5
1D6
  8
0
  0
POLYLINE
  5
83
  8
0
 66
     1
 10
0.0
 20
0.0
 30
0.0
 70
     1
  0
VERTEX
  5
10B
  8
0
 10
47.53808756656383
 20
21.91825001390669
 30
0.0
  0
VERTEX
  5
10C
  8
0
 10
32.53808756656383
 20
21.91825001390669
 30
0.0
 42
-0.9999999999999999
  0
VERTEX
  5
10D
  8
0
 10
32.53808756656383
 20
28.41825001390669
 30
0.0
  0
VERTEX
  5
10E
  8
0
 10
47.53808756656383
 20
28.41825001390669
 30
0.0
 42
-0.9999999999999999
  0
SEQEND
  5
1D7
  8
0
  0
POLYLINE
  5
84
  8
0
 66
     1
 10
0.0
 20
0.0
 30
0.0
 70
     1
  0
VERTEX
  5
10F
  8
0
 10
232.1255839659116
 20
37.17906739178688
 30
0.0
  0
VERTEX
  5
110
  8
0
 10
232.1255839659116
 20
54.17906739178687
 30
0.0
  0
VERTEX
  5
111
  8
0
 10
134.5380875665639
 20
54.1790673917869
 30
0.0
 42
-0.4142135623730952
  0
VERTEX
  5
112
  8
0
 10
84.53808756656383
 20
104.1790673917868
 30
0.0
  0
VERTEX
  5
113
  8
0
 10
84.53808756656377
 20
467.1682500139067
 30
0.0
 42
-0.4142135623730958
  0
VERTEX
  5
114
  8
0
 10
134.5380875665638
 20
517.1682500139068
 30
0.0
  0
VERTEX
  5
115
  8
0
 10
409.5380875665639
 20
517.1682500139068
 30
0.0
 42
-0.4142135623730952
  0
VERTEX
  5
116
  8
0
 10
459.5380875665639
 20
467.1682500139067
 30
0.0
  0
VERTEX
  5
117
  8
0
 10
459.5380875665639
 20
104.1790673917869
 30
0.0
 42
-0.414213562373095
  0
VERTEX
  5
118
  8
0
 10
409.5380875665639
 20
54.17906739178687
 30
0.0
  0
VERTEX
  5
119
  8
0
 10
311.9505911672161
 20
54.17906739178687
 30
0.0
  0
VERTEX
  5
11A
  8
0
 10
311.9505911672161
 20
37.17906739178688
 30
0.0
  0
SEQEND
  5
1D8
  8
0
  0
POLYLINE
  5
85
  8
0
 66
     1
 10
0.0
 20
0.0
 30
0.0
 70
     1
  0
VERTEX
  5
11B
  8
0
 10
222.1255839659116
 20
46.38406739179744
 30
0.0
 42
0.4142135623730951
  0
VERTEX
  5
11C
  8
0
 10
219.5255839659116
 20
43.78406739179743
 30
0.0
 42
0.4142135623730951
  0
VERTEX
  5
11D
  8
0
 10
222.1255839659116
 20
41.18406739179741
 30
0.0
 42
0.4142135623730951
  0
VERTEX
  5
11E
  8
0
 10
224.7255839659116
 20
43.78406739179743
 30
0.0
 42
0.4142135623730951
  0
SEQEND
  5
1D9
  8
0
  0
POLYLINE
  5
86
  8
0
 66
     1
 10
0.0
 20
0.0
 30
0.0
 70
     1
  0
VERTEX
  5
11F
  8
0
 10
272.0380875665639
 20
29.77906739178688
 30
0.0
 42
0.4142135623730951
  0
VERTEX
  5
120
  8
0
 10
269.4380875665639
 20
27.1790673917869
 30
0.0
 42
0.4142135623730951
  0
VERTEX
  5
121
  8
0
 10
272.0380875665639
 20
24.57906739178692
 30
0.0
 42
0.4142135623730951
  0
VERTEX
  5
122
  8
0
 10
274.6380875665639
 20
27.1790673917869
 30
0.0
 42
0.4142135623730951
  0
SEQEND
  5
1DA
  8
0
  0
POLYLINE
  5
87
  8
0
 66
     1
 10
0.0
 20
0.0
 30
0.0
 70
     1
  0
VERTEX
  5
123
  8
0
 10
63.5380875665639
 20
285.3432500139068
 30
0.0
 42
0.4142135623730951
  0
VERTEX
  5
124
  8
0
 10
60.36308756656387
 20
282.1682500139067
 30
0.0
 42
0.4142135623730951
  0
VERTEX
  5
125
  8
0
 10
63.5380875665639
 20
278.9932500139067
 30
0.0
 42
0.4142135623730951
  0
VERTEX
  5
126
  8
0
 10
66.71308756656391
 20
282.1682500139067
 30
0.0
 42
0.4142135623730951
  0
SEQEND
  5
1DB
  8
0
  0
POLYLINE
  5
88
  8
0
 66
     1
 10
0.0
 20
0.0
 30
0.0
 70
     1
  0
VERTEX
  5
127
  8
0
 10
63.5380875665639
 20
530.3432500139068
 30
0.0
 42
0.4142135623730951
  0
VERTEX
  5
128
  8
0
 10
60.36308756656387
 20
527.1682500139068
 30
0.0
 42
0.4142135623730951
  0
VERTEX
  5
129
  8
0
 10
63.5380875665639
 20
523.9932500139066
 30
0.0
 42
0.4142135623730951
  0
VERTEX
  5
12A
  8
0
 10
66.71308756656391
 20
527.1682500139068
 30
0.0
 42
0.4142135623730951
  0
SEQEND
  5
1DC
  8
0
  0
POLYLINE
  5
89
  8
0
 66
     1
 10
0.0
 20
0.0
 30
0.0
 70
     1
  0
VERTEX
  5
12B
  8
0
 10
24.53808756656389
 20
88.41825001390659
 30
0.0
 42
0.4142135623730951
  0
VERTEX
  5
12C
  8
0
 10
21.78808756656391
 20
85.6682500139066
 30
0.0
 42
0.4142135623730951
  0
VERTEX
  5
12D
  8
0
 10
24.53808756656389
 20
82.91825001390661
 30
0.0
 42
0.4142135623730951
  0
VERTEX
  5
12E
  8
0
 10
27.28808756656388
 20
85.6682500139066
 30
0.0
 42
0.4142135623730951
  0
SEQEND
  5
1DD
  8
0
  0
POLYLINE
  5
8A
  8
0
 66
     1
 10
0.0
 20
0.0
 30
0.0
 70
     1
  0
VERTEX
  5
12F
  8
0
 10
48.90372088110571
 20
57.1954351161348
 30
0.0
 42
0.4142135623730951
  0
VERTEX
  5
130
  8
0
 10
46.40372088110571
 20
54.6954351161348
 30
0.0
 42
0.4142135623730951
  0
VERTEX
  5
131
  8
0
 10
48.90372088110571
 20
52.1954351161348
 30
0.0
 42
0.4142135623730951
  0
VERTEX
  5
132
  8
0
 10
51.40372088110571
 20
54.6954351161348
 30
0.0
 42
0.4142135623730951
  0
SEQEND
  5
1DE
  8
0
  0
POLYLINE
  5
8B
  8
0
 66
     1
 10
0.0
 20
0.0
 30
0.0
 70
     1
  0
VERTEX
  5
133
  8
0
 10
517.0380875665641
 20
57.19580036036401
 30
0.0
 42
0.4142135623730951
  0
VERTEX
  5
134
  8
0
 10
514.5377223223348
 20
54.6954351161348
 30
0.0
 42
0.4142135623730951
  0
VERTEX
  5
135
  8
0
 10
517.0380875665641
 20
52.19506987190558
 30
0.0
 42
0.4142135623730951
  0
VERTEX
  5
136
  8
0
 10
519.5384528107933
 20
54.6954351161348
 30
0.0
 42
0.4142135623730951
  0
SEQEND
  5
1DF
  8
0
  0
POLYLINE
  5
8C
  8
0
 66
     1
 10
0.0
 20
0.0
 30
0.0
 70
     1
  0
VERTEX
  5
137
  8
0
 10
0.0
 20
0.0
 30
0.0
  0
VERTEX
  5
138
  8
0
 10
0.0
 20
570.0
 30
0.0
  0
VERTEX
  5
139
  8
0
 10
1092.0
 20
570.0
 30
0.0
  0
VERTEX
  5
13A
  8
0
 10
1092.0
 20
0.0
 30
0.0
  0
SEQEND
  5
1E0
  8
0
  0
POLYLINE
  5
8D
  8
0
 66
     1
 10
0.0
 20
0.0
 30
0.0
 70
     1
  0
VERTEX
  5
13B
  8
0
 10
892.8911014157089
 20
22.31514834800089
 30
0.0
 42
0.4142135623730951
  0
VERTEX
  5
13C
  8
0
 10
891.303601415709
 20
20.72764834800089
 30
0.0
 42
0.4142135623730951
  0
VERTEX
  5
13D
  8
0
 10
892.8911014157089
 20
19.1401483480009
 30
0.0
 42
0.4142135623730951
  0
VERTEX
  5
13E
  8
0
 10
894.4786014157089
 20
20.72764834800089
 30
0.0
 42
0.4142135623730951
  0
SEQEND
  5
1E1
  8
0
  0
POLYLINE
  5
8E
  8
0
 66
     1
 10
0.0
 20
0.0
 30
0.0
 70
     1
  0
VERTEX
  5
13F
  8
0
 10
992.8911014157089
 20
22.31514834800082
 30
0.0
 42
0.4142135623730951
  0
VERTEX
  5
140
  8
0
 10
991.303601415709
 20
20.72764834800081
 30
0.0
 42
0.4142135623730951
  0
VERTEX
  5
141
  8
0
 10
992.8911014157089
 20
19.1401483480008
 30
0.0
 42
0.4142135623730951
  0
VERTEX
  5
142
  8
0
 10
994.4786014157089
 20
20.72764834800081
 30
0.0
 42
0.4142135623730951
  0
SEQEND
  5
1E2
  8
0
  0
POLYLINE
  5
8F
  8
0
 66
     1
 10
0.0
 20
0.0
 30
0.0
 70
     1
  0
VERTEX
  5
143
  8
0
 10
1039.891101415709
 20
22.15998798562936
 30
0.0
  0
VERTEX
  5
144
  8
0
 10
1054.891101415709
 20
22.15998798562936
 30
0.0
 42
0.9999999999999999
  0
VERTEX
  5
145
  8
0
 10
1054.891101415709
 20
28.65998798562936
 30
0.0
  0
VERTEX
  5
146
  8
0
 10
1039.891101415709
 20
28.65998798562936
 30
0.0
 42
0.9999999999999999
  0
SEQEND
  5
1E3
  8
0
  0
POLYLINE
  5
90
  8
0
 66
     1
 10
0.0
 20
0.0
 30
0.0
 70
     1
  0
VERTEX
  5
147
  8
0
 10
570.3911014157089
 20
57.4371730878575
 30
0.0
 42
0.4142135623730951
  0
VERTEX
  5
148
  8
0
 10
567.8911014157089
 20
54.9371730878575
 30
0.0
 42
0.4142135623730951
  0
VERTEX
  5
149
  8
0
 10
570.3911014157089
 20
52.4371730878575
 30
0.0
 42
0.4142135623730951
  0
VERTEX
  5
14A
  8
0
 10
572.8911014157089
 20
54.9371730878575
 30
0.0
 42
0.4142135623730951
  0
SEQEND
  5
1E4
  8
0
  0
POLYLINE
  5
91
  8
0
 66
     1
 10
0.0
 20
0.0
 30
0.0
 70
     1
  0
VERTEX
  5
14B
  8
0
 10
1038.525468101167
 20
57.4371730878575
 30
0.0
 42
0.4142135623730951
  0
VERTEX
  5
14C
  8
0
 10
1036.025468101167
 20
54.9371730878575
 30
0.0
 42
0.4142135623730951
  0
VERTEX
  5
14D
  8
0
 10
1038.525468101167
 20
52.4371730878575
 30
0.0
 42
0.4142135623730951
  0
VERTEX
  5
14E
  8
0
 10
1041.025468101167
 20
54.9371730878575
 30
0.0
 42
0.4142135623730951
  0
SEQEND
  5
1E5
  8
0
  0
POLYLINE
  5
92
  8
0
 66
     1
 10
0.0
 20
0.0
 30
0.0
 70
     1
  0
VERTEX
  5
14F
  8
0
 10
1062.891101415709
 20
88.65998798562926
 30
0.0
 42
0.4142135623730951
  0
VERTEX
  5
150
  8
0
 10
1060.141101415709
 20
85.90998798562927
 30
0.0
 42
0.4142135623730951
  0
VERTEX
  5
151
  8
0
 10
1062.891101415709
 20
83.15998798562929
 30
0.0
 42
0.4142135623730951
  0
VERTEX
  5
152
  8
0
 10
1065.641101415709
 20
85.90998798562927
 30
0.0
 42
0.4142135623730951
  0
SEQEND
  5
1E6
  8
0
  0
POLYLINE
  5
93
  8
0
 66
     1
 10
0.0
 20
0.0
 30
0.0
 70
     1
  0
VERTEX
  5
153
  8
0
 10
1062.891101415709
 20
547.6599879856317
 30
0.0
 42
0.4142135623730951
  0
VERTEX
  5
154
  8
0
 10
1060.141101415709
 20
544.9099879856317
 30
0.0
 42
0.4142135623730951
  0
VERTEX
  5
155
  8
0
 10
1062.891101415709
 20
542.1599879856317
 30
0.0
 42
0.4142135623730951
  0
VERTEX
  5
156
  8
0
 10
1065.641101415709
 20
544.9099879856317
 30
0.0
 42
0.4142135623730951
  0
SEQEND
  5
1E7
  8
0
  0
POLYLINE
  5
94
  8
0
 66
     1
 10
0.0
 20
0.0
 30
0.0
 70
     1
  0
VERTEX
  5
157
  8
0
 10
606.891101415709
 20
530.5849879856295
 30
0.0
 42
0.4142135623730951
  0
VERTEX
  5
158
  8
0
 10
603.716101415709
 20
527.4099879856294
 30
0.0
 42
0.4142135623730951
  0
VERTEX
  5
159
  8
0
 10
606.891101415709
 20
524.2349879856293
 30
0.0
 42
0.4142135623730951
  0
VERTEX
  5
15A
  8
0
 10
610.0661014157091
 20
527.4099879856294
 30
0.0
 42
0.4142135623730951
  0
SEQEND
  5
1E8
  8
0
  0
POLYLINE
  5
95
  8
0
 66
     1
 10
0.0
 20
0.0
 30
0.0
 70
     1
  0
VERTEX
  5
15B
  8
0
 10
606.891101415709
 20
285.5849879856294
 30
0.0
 42
0.4142135623730951
  0
VERTEX
  5
15C
  8
0
 10
603.716101415709
 20
282.4099879856294
 30
0.0
 42
0.4142135623730951
  0
VERTEX
  5
15D
  8
0
 10
606.891101415709
 20
279.2349879856294
 30
0.0
 42
0.4142135623730951
  0
VERTEX
  5
15E
  8
0
 10
610.0661014157091
 20
282.4099879856294
 30
0.0
 42
0.4142135623730951
  0
SEQEND
  5
1E9
  8
0
  0
POLYLINE
  5
96
  8
0
 66
     1
 10
0.0
 20
0.0
 30
0.0
 70
     1
  0
VERTEX
  5
15F
  8
0
 10
1023.891101415709
 20
40.58498798562942
 30
0.0
 42
0.4142135623730951
  0
VERTEX
  5
160
  8
0
 10
1020.716101415709
 20
37.40998798562943
 30
0.0
 42
0.4142135623730951
  0
VERTEX
  5
161
  8
0
 10
1023.891101415709
 20
34.23498798562944
 30
0.0
 42
0.4142135623730951
  0
VERTEX
  5
162
  8
0
 10
1027.066101415709
 20
37.40998798562943
 30
0.0
 42
0.4142135623730951
  0
SEQEND
  5
1EA
  8
0
  0
POLYLINE
  5
97
  8
0
 66
     1
 10
0.0
 20
0.0
 30
0.0
 70
     1
  0
VERTEX
  5
163
  8
0
 10
1023.891101415709
 20
285.5849879856294
 30
0.0
 42
0.4142135623730951
  0
VERTEX
  5
164
  8
0
 10
1020.716101415709
 20
282.4099879856294
 30
0.0
 42
0.4142135623730951
  0
VERTEX
  5
165
  8
0
 10
1023.891101415709
 20
279.2349879856294
 30
0.0
 42
0.4142135623730951
  0
VERTEX
  5
166
  8
0
 10
1027.066101415709
 20
282.4099879856294
 30
0.0
 42
0.4142135623730951
  0
SEQEND
  5
1EB
  8
0
  0
POLYLINE
  5
98
  8
0
 66
     1
 10
0.0
 20
0.0
 30
0.0
 70
     1
  0
VERTEX
  5
167
  8
0
 10
795.4785978150568
 20
30.02080536350954
 30
0.0
 42
0.4142135623730951
  0
VERTEX
  5
168
  8
0
 10
792.8785978150568
 20
27.42080536350956
 30
0.0
 42
0.4142135623730951
  0
VERTEX
  5
169
  8
0
 10
795.4785978150568
 20
24.82080536350958
 30
0.0
 42
0.4142135623730951
  0
VERTEX
  5
16A
  8
0
 10
798.0785978150568
 20
27.42080536350956
 30
0.0
 42
0.4142135623730951
  0
SEQEND
  5
1EC
  8
0
  0
POLYLINE
  5
99
  8
0
 66
     1
 10
0.0
 20
0.0
 30
0.0
 70
     1
  0
VERTEX
  5
16B
  8
0
 10
765.4785978150568
 20
30.02080536350955
 30
0.0
 42
0.4142135623730951
  0
VERTEX
  5
16C
  8
0
 10
762.8785978150568
 20
27.42080536350957
 30
0.0
 42
0.4142135623730951
  0
VERTEX
  5
16D
  8
0
 10
765.4785978150568
 20
24.82080536350959
 30
0.0
 42
0.4142135623730951
  0
VERTEX
  5
16E
  8
0
 10
768.0785978150568
 20
27.42080536350957
 30
0.0
 42
0.4142135623730951
  0
SEQEND
  5
1ED
  8
0
  0
POLYLINE
  5
9A
  8
0
 66
     1
 10
0.0
 20
0.0
 30
0.0
 70
     1
  0
VERTEX
  5
16F
  8
0
 10
1036.084880167818
 20
10.40998798562936
 30
0.0
 42
-0.2238875363520746
  0
VERTEX
  5
170
  8
0
 10
1031.842239480699
 20
12.40998798562935
 30
0.0
 42
0.2238875363520799
  0
VERTEX
  5
171
  8
0
 10
1027.59959879358
 20
14.40998798562935
 30
0.0
  0
VERTEX
  5
172
  8
0
 10
603.1826040378382
 20
14.40998798562936
 30
0.0
 42
0.2238875363520731
  0
VERTEX
  5
173
  8
0
 10
598.9399633507189
 20
12.40998798562935
 30
0.0
 42
-0.2238875363520746
  0
VERTEX
  5
174
  8
0
 10
594.6973226635996
 20
10.40998798562936
 30
0.0
  0
VERTEX
  5
175
  8
0
 10
572.891101415709
 20
10.40998798562934
 30
0.0
 42
-0.4142135623730962
  0
VERTEX
  5
176
  8
0
 10
557.891101415709
 20
25.40998798562933
 30
0.0
  0
VERTEX
  5
177
  8
0
 10
557.891101415709
 20
554.9099879856294
 30
0.0
 42
-0.4142135623731075
  0
VERTEX
  5
178
  8
0
 10
560.391101415709
 20
557.4099879856294
 30
0.0
  0
VERTEX
  5
179
  8
0
 10
1070.391101415709
 20
557.4099879856294
 30
0.0
 42
-0.4142135623731075
  0
VERTEX
  5
17A
  8
0
 10
1072.891101415709
 20
554.9099879856294
 30
0.0
  0
VERTEX
  5
17B
  8
0
 10
1072.891101415709
 20
25.40998798562936
 30
0.0
 42
-0.4142135623730963
  0
VERTEX
  5
17C
  8
0
 10
1057.891101415709
 20
10.40998798562936
 30
0.0
  0
SEQEND
  5
1EE
  8
0
  0
POLYLINE
  5
9B
  8
0
 66
     1
 10
0.0
 20
0.0
 30
0.0
 70
     1
  0
VERTEX
  5
17D
  8
0
 10
637.891101415709
 20
22.31514834800096
 30
0.0
 42
0.4142135623730951
  0
VERTEX
  5
17E
  8
0
 10
636.3036014157091
 20
20.72764834800095
 30
0.0
 42
0.4142135623730951
  0
VERTEX
  5
17F
  8
0
 10
637.891101415709
 20
19.14014834800094
 30
0.0
 42
0.4142135623730951
  0
VERTEX
  5
180
  8
0
 10
639.478601415709
 20
20.72764834800095
 30
0.0
 42
0.4142135623730951
  0
SEQEND
  5
1EF
  8
0
  0
POLYLINE
  5
9C
  8
0
 66
     1
 10
0.0
 20
0.0
 30
0.0
 70
     1
  0
VERTEX
  5
181
  8
0
 10
737.891101415709
 20
22.31514834800095
 30
0.0
 42
0.4142135623730951
  0
VERTEX
  5
182
  8
0
 10
736.3036014157091
 20
20.72764834800095
 30
0.0
 42
0.4142135623730951
  0
VERTEX
  5
183
  8
0
 10
737.891101415709
 20
19.14014834800096
 30
0.0
 42
0.4142135623730951
  0
VERTEX
  5
184
  8
0
 10
739.478601415709
 20
20.72764834800095
 30
0.0
 42
0.4142135623730951
  0
SEQEND
  5
1F0
  8
0
  0
POLYLINE
  5
9D
  8
0
 66
     1
 10
0.0
 20
0.0
 30
0.0
 70
     1
  0
VERTEX
  5
185
  8
0
 10
590.891101415709
 20
22.15998798562936
 30
0.0
  0
VERTEX
  5
186
  8
0
 10
575.891101415709
 20
22.15998798562936
 30
0.0
 42
-0.9999999999999999
  0
VERTEX
  5
187
  8
0
 10
575.891101415709
 20
28.65998798562936
 30
0.0
  0
VERTEX
  5
188
  8
0
 10
590.891101415709
 20
28.65998798562936
 30
0.0
 42
-0.9999999999999999
  0
SEQEND
  5
1F1
  8
0
  0
POLYLINE
  5
9E
  8
0
 66
     1
 10
0.0
 20
0.0
 30
0.0
 70
     1
  0
VERTEX
  5
189
  8
0
 10
775.4785978150568
 20
37.42080536350955
 30
0.0
  0
VERTEX
  5
18A
  8
0
 10
775.4785978150568
 20
54.42080536350954
 30
0.0
  0
VERTEX
  5
18B
  8
0
 10
677.891101415709
 20
54.42080536350957
 30
0.0
 42
-0.4142135623730952
  0
VERTEX
  5
18C
  8
0
 10
627.891101415709
 20
104.4208053635095
 30
0.0
  0
VERTEX
  5
18D
  8
0
 10
627.891101415709
 20
467.4099879856294
 30
0.0
 42
-0.4142135623730958
  0
VERTEX
  5
18E
  8
0
 10
677.891101415709
 20
517.4099879856294
 30
0.0
  0
VERTEX
  5
18F
  8
0
 10
952.891101415709
 20
517.4099879856294
 30
0.0
 42
-0.4142135623730952
  0
VERTEX
  5
190
  8
0
 10
1002.891101415709
 20
467.4099879856294
 30
0.0
  0
VERTEX
  5
191
  8
0
 10
1002.891101415709
 20
104.4208053635096
 30
0.0
 42
-0.414213562373095
  0
VERTEX
  5
192
  8
0
 10
952.891101415709
 20
54.42080536350954
 30
0.0
  0
VERTEX
  5
193
  8
0
 10
855.3036050163613
 20
54.42080536350954
 30
0.0
  0
VERTEX
  5
194
  8
0
 10
855.3036050163613
 20
37.42080536350955
 30
0.0
  0
SEQEND
  5
1F2
  8
0
  0
POLYLINE
  5
9F
  8
0
 66
     1
 10
0.0
 20
0.0
 30
0.0
 70
     1
  0
VERTEX
  5
195
  8
0
 10
765.4785978150568
 20
46.62580536352012
 30
0.0
 42
0.4142135623730951
  0
VERTEX
  5
196
  8
0
 10
762.8785978150568
 20
44.0258053635201
 30
0.0
 42
0.4142135623730951
  0
VERTEX
  5
197
  8
0
 10
765.4785978150568
 20
41.42580536352008
 30
0.0
 42
0.4142135623730951
  0
VERTEX
  5
198
  8
0
 10
768.0785978150568
 20
44.0258053635201
 30
0.0
 42
0.4142135623730951
  0
SEQEND
  5
1F3
  8
0
  0
POLYLINE
  5
A0
  8
0
 66
     1
 10
0.0
 20
0.0
 30
0.0
 70
     1
  0
VERTEX
  5
199
  8
0
 10
835.3036050163614
 20
30.02080536350958
 30
0.0
 42
0.4142135623730951
  0
VERTEX
  5
19A
  8
0
 10
832.7036050163614
 20
27.42080536350957
 30
0.0
 42
0.4142135623730951
  0
VERTEX
  5
19B
  8
0
 10
835.3036050163614
 20
24.82080536350955
 30
0.0
 42
0.4142135623730951
  0
VERTEX
  5
19C
  8
0
 10
837.9036050163614
 20
27.42080536350957
 30
0.0
 42
0.4142135623730951
  0
SEQEND
  5
1F4
  8
0
  0
POLYLINE
  5
A1
  8
0
 66
     1
 10
0.0
 20
0.0
 30
0.0
 70
     1
  0
VERTEX
  5
19D
  8
0
 10
865.3036050163613
 20
30.02080536350961
 30
0.0
 42
0.4142135623730951
  0
VERTEX
  5
19E
  8
0
 10
862.7036050163613
 20
27.42080536350959
 30
0.0
 42
0.4142135623730951
  0
VERTEX
  5
19F
  8
0
 10
865.3036050163613
 20
24.82080536350957
 30
0.0
 42
0.4142135623730951
  0
VERTEX
  5
1A0
  8
0
 10
867.9036050163613
 20
27.42080536350959
 30
0.0
 42
0.4142135623730951
  0
SEQEND
  5
1F5
  8
0
  0
POLYLINE
  5
A2
  8
0
 66
     1
 10
0.0
 20
0.0
 30
0.0
 70
     1
  0
VERTEX
  5
1A1
  8
0
 10
815.391101415709
 20
30.02080536350955
 30
0.0
 42
0.4142135623730951
  0
VERTEX
  5
1A2
  8
0
 10
812.791101415709
 20
27.42080536350957
 30
0.0
 42
0.4142135623730951
  0
VERTEX
  5
1A3
  8
0
 10
815.391101415709
 20
24.82080536350959
 30
0.0
 42
0.4142135623730951
  0
VERTEX
  5
1A4
  8
0
 10
817.9911014157091
 20
27.42080536350957
 30
0.0
 42
0.4142135623730951
  0
SEQEND
  5
1F6
  8
0
  0
POLYLINE
  5
A3
  8
0
 66
     1
 10
0.0
 20
0.0
 30
0.0
 70
     1
  0
VERTEX
  5
1A5
  8
0
 10
865.3036050163613
 20
47.13073472208916
 30
0.0
 42
0.4142135623730951
  0
VERTEX
  5
1A6
  8
0
 10
862.7036050163613
 20
44.53073472208914
 30
0.0
 42
0.4142135623730951
  0
VERTEX
  5
1A7
  8
0
 10
865.3036050163613
 20
41.93073472208913
 30
0.0
 42
0.4142135623730951
  0
VERTEX
  5
1A8
  8
0
 10
867.9036050163613
 20
44.53073472208914
 30
0.0
 42
0.4142135623730951
  0
SEQEND
  5
1F7
  8
0
  0
POLYLINE
  5
A4
  8
0
 66
     1
 10
0.0
 20
0.0
 30
0.0
 70
     1
  0
VERTEX
  5
1A9
  8
0
 10
1023.891101415709
 20
530.5849879856295
 30
0.0
 42
0.4142135623730951
  0
VERTEX
  5
1AA
  8
0
 10
1020.716101415709
 20
527.4099879856294
 30
0.0
 42
0.4142135623730951
  0
VERTEX
  5
1AB
  8
0
 10
1023.891101415709
 20
524.2349879856293
 30
0.0
 42
0.4142135623730951
  0
VERTEX
  5
1AC
  8
0
 10
1027.066101415709
 20
527.4099879856294
 30
0.0
 42
0.4142135623730951
  0
SEQEND
  5
1F8
  8
0
  0
POLYLINE
  5
A5
  8
0
 66
     1
 10
0.0
 20
0.0
 30
0.0
 70
     1
  0
VERTEX
  5
1AD
  8
0
 10
606.891101415709
 20
40.58498798562942
 30
0.0
 42
0.4142135623730951
  0
VERTEX
  5
1AE
  8
0
 10
603.7161014157091
 20
37.40998798562943
 30
0.0
 42
0.4142135623730951
  0
VERTEX
  5
1AF
  8
0
 10
606.891101415709
 20
34.23498798562944
 30
0.0
 42
0.4142135623730951
  0
VERTEX
  5
1B0
  8
0
 10
610.066101415709
 20
37.40998798562943
 30
0.0
 42
0.4142135623730951
  0
SEQEND
  5
1F9
  8
0
  0
POLYLINE
  5
A6
  8
0
 66
     1
 10
0.0
 20
0.0
 30
0.0
 70
     1
  0
VERTEX
  5
1B1
  8
0
 10
567.891101415709
 20
547.6599879856317
 30
0.0
 42
0.4142135623730951
  0
VERTEX
  5
1B2
  8
0
 10
565.141101415709
 20
544.9099879856317
 30
0.0
 42
0.4142135623730951
  0
VERTEX
  5
1B3
  8
0
 10
567.891101415709
 20
542.1599879856317
 30
0.0
 42
0.4142135623730951
  0
VERTEX
  5
1B4
  8
0
 10
570.641101415709
 20
544.9099879856317
 30
0.0
 42
0.4142135623730951
  0
SEQEND
  5
1FA
  8
0
  0
POLYLINE
  5
A7
  8
0
 66
     1
 10
0.0
 20
0.0
 30
0.0
 70
     1
  0
VERTEX
  5
1B5
  8
0
 10
567.891101415709
 20
88.65998798562926
 30
0.0
 42
0.4142135623730951
  0
VERTEX
  5
1B6
  8
0
 10
565.141101415709
 20
85.90998798562927
 30
0.0
 42
0.4142135623730951
  0
VERTEX
  5
1B7
  8
0
 10
567.891101415709
 20
83.15998798562929
 30
0.0
 42
0.4142135623730951
  0
VERTEX
  5
1B8
  8
0
 10
570.641101415709
 20
85.90998798562927
 30
0.0
 42
0.4142135623730951
  0
SEQEND
  5
1FB
  8
0
  0
POLYLINE
  5
A8
  8
0
 66
     1
 10
0.0
 20
0.0
 30
0.0
 70
     1
  0
VERTEX
  5
1B9
  8
0
 10
592.2567347302509
 20
57.43717308785747
 30
0.0
 42
0.4142135623730951
  0
VERTEX
  5
1BA
  8
0
 10
589.7567347302509
 20
54.93717308785747
 30
0.0
 42
0.4142135623730951
  0
VERTEX
  5
1BB
  8
0
 10
592.2567347302509
 20
52.43717308785747
 30
0.0
 42
0.4142135623730951
  0
VERTEX
  5
1BC
  8
0
 10
594.7567347302509
 20
54.93717308785747
 30
0.0
 42
0.4142135623730951
  0
SEQEND
  5
1FC
  8
0
  0
POLYLINE
  5
A9
  8
0
 66
     1
 10
0.0
 20
0.0
 30
0.0
 70
     1
  0
VERTEX
  5
1BD
  8
0
 10
1060.391101415709
 20
57.43753833208668
 30
0.0
 42
0.4142135623730951
  0
VERTEX
  5
1BE
  8
0
 10
1057.89073617148
 20
54.93717308785747
 30
0.0
 42
0.4142135623730951
  0
VERTEX
  5
1BF
  8
0
 10
1060.391101415709
 20
52.43680784362825
 30
0.0
 42
0.4142135623730951
  0
VERTEX
  5
1C0
  8
0
 10
1062.891466659938
 20
54.93717308785747
 30
0.0
 42
0.4142135623730951
  0
SEQEND
  5
1FD
  8
0
  0
ENDSEC
  0
EOF
