0
SECTION
2
HEADER
9
$INSUNITS
70
4
9
$ACADVER
1
AC1014
9
$HANDSEED
5
FFFF
0
ENDSEC
0
SECTION
2
TABLES
0
TABLE
2
VPORT
5
8
100
AcDbSymbolTable
0
ENDTAB
0
TABLE
2
LTYPE
5
5
100
AcDbSymbolTable
0
LTYPE
5
14
100
AcDbSymbolTableRecord
100
AcDbLinetypeTableRecord
2
BYBLOCK
70
0
0
LTYPE
5
15
100
AcDbSymbolTableRecord
100
AcDbLinetypeTableRecord
2
BYLAYER
70
0
0
ENDTAB
0
TABLE
2
LAYER
5
2
100
AcDbSymbolTable
70
2
0
LAYER
5
50
100
AcDbSymbolTableRecord
100
AcDbLayerTableRecord
2
0
70
0
6
CONTINUOUS
0
ENDTAB
0
TABLE
2
STYLE
5
3
100
AcDbSymbolTable
70
1
0
STYLE
5
11
100
AcDbSymbolTableRecord
100
AcDbTextStyleTableRecord
2
STANDARD
70
0
0
ENDTAB
0
TABLE
2
VIEW
5
6
100
AcDbSymbolTable
70
0
0
ENDTAB
0
TABLE
2
UCS
5
7
100
AcDbSymbolTable
70
0
0
ENDTAB
0
TABLE
2
APPID
5
9
100
AcDbSymbolTable
70
2
0
APPID
5
12
100
AcDbSymbolTableRecord
100
AcDbRegAppTableRecord
2
ACAD
70
0
0
ENDTAB
0
TABLE
2
DIMSTYLE
5
A
100
AcDbSymbolTable
70
1
0
ENDTAB
0
TABLE
2
BLOCK_RECORD
5
1
100
AcDbSymbolTable
70
1
0
BLOCK_RECORD
5
1F
100
AcDbSymbolTableRecord
100
AcDbBlockTableRecord
2
*MODEL_SPACE
0
BLOCK_RECORD
5
1B
100
AcDbSymbolTableRecord
100
AcDbBlockTableRecord
2
*PAPER_SPACE
0
ENDTAB
0
ENDSEC
0
SECTION
2
BLOCKS
0
BLOCK
5
20
100
AcDbEntity
100
AcDbBlockBegin
2
*MODEL_SPACE
0
ENDBLK
5
21
100
AcDbEntity
100
AcDbBlockEnd
0
BLOCK
5
1C
100
AcDbEntity
100
AcDbBlockBegin
2
*PAPER_SPACE
0
ENDBLK
5
1D
100
AcDbEntity
100
AcDbBlockEnd
0
ENDSEC
0
SECTION
2
ENTITIES
0
CIRCLE
5
100
100
AcDbEntity
8
0
100
AcDbCircle
10
318.73804238160392
20
-230.00682232036689
30
0
40
1.6000000000000369
0
CIRCLE
5
101
100
AcDbEntity
8
0
100
AcDbCircle
10
308.70721182194336
20
-232.00682232036542
30
0
40
1.5999999999999659
0
CIRCLE
5
102
100
AcDbEntity
8
0
100
AcDbCircle
10
318.56174492798868
20
-12.006822320364233
30
0
40
1.6000000000000014
0
CIRCLE
5
103
100
AcDbEntity
8
0
100
AcDbCircle
10
308.61906309510766
20
-9.8937288909506442
30
0
40
1.6000000000000014
0
CIRCLE
5
104
100
AcDbEntity
8
0
100
AcDbCircle
10
26.416278034089515
20
-232.00682232040009
30
0
40
1.6000000000000014
0
CIRCLE
5
105
100
AcDbEntity
8
0
100
AcDbCircle
10
16.473596201208807
20
-229.8937288909853
30
0
40
1.6000000000000014
0
CIRCLE
5
106
100
AcDbEntity
8
0
100
AcDbCircle
10
16.47359620120767
20
-11.893728890984967
30
0
40
1.6000000000000369
0
CIRCLE
5
107
100
AcDbEntity
8
0
100
AcDbCircle
10
26.504426760868114
20
-9.8937288909863881
30
0
40
1.5999999999999659
0
CIRCLE
5
108
100
AcDbEntity
8
0
100
AcDbCircle
10
117.62359620120861
20
-45.498728890984566
30
0
40
3.5549999999999926
0
CIRCLE
5
109
100
AcDbEntity
8
0
100
AcDbCircle
10
217.32359620120857
20
-46.28872889098443
30
0
40
2.7499999999999858
0
CIRCLE
5
110
100
AcDbEntity
8
0
100
AcDbCircle
10
217.32359620120857
20
-196.28872889098494
30
0
40
2.5
0
CIRCLE
5
111
100
AcDbEntity
8
0
100
AcDbCircle
10
117.62359620120861
20
-195.4987288909843
30
0
40
3.5549999999999926
0
LWPOLYLINE
5
112
100
AcDbEntity
8
0
100
AcDbPolyline
90
28
70
1
43
0.0
10
324.47359620120864
20
-233.89372889098479
42
-0.41421356237308982
10
322.47359620120858
20
-235.89372889098479
10
306.47359620120858
20
-235.89372889098479
42
-0.41421356237309503
10
304.47359620120858
20
-233.89372889098479
10
304.47359620120858
20
-229.89372889098479
42
0.41421356237309503
10
302.47359620120858
20
-227.89372889098476
10
32.473596201208608
20
-227.89372889098479
42
0.41421356237309503
10
30.473596201208579
20
-229.89372889098479
10
30.473596201208537
20
-233.8937259345133
42
-0.4142135623730937
10
28.473596201208551
20
-235.8937259345133
10
12.480473957770286
20
-235.89372593451333
42
-0.41421356237309404
10
10.480473957770258
20
-233.8937259345133
10
10.480473957770258
20
-227.89372889098479
10
10.473596201208579
20
-227.89372889098479
10
10.473596201208579
20
-13.893728890984789
10
10.482735633255942
20
-13.893728890984789
10
10.482735633255974
20
-7.8937341115626296
42
-0.41421356237309459
10
12.48273563325597
20
-5.8937341115626296
10
28.473596201208551
20
-5.8937341115626039
42
-0.4142135623730947
10
30.473596201208579
20
-7.8937341115626305
10
30.473596201208608
20
-11.8937288909848
42
0.41421356237309503
10
32.473596201208608
20
-13.893728890984789
10
302.47359620120864
20
-13.893728890984784
42
0.41421356237309503
10
304.47359620120864
20
-11.893728890984786
10
304.47359620120864
20
-7.8937288909847947
42
-0.41421356237309404
10
306.47359620120864
20
-5.8937288909847947
10
322.47359620120858
20
-5.8937288909848213
42
-0.41421356237310381
10
324.47359620120864
20
-7.893728890984768
0
LWPOLYLINE
5
113
100
AcDbEntity
8
0
100
AcDbPolyline
90
14
70
1
43
0.0
10
83.28255590879246
20
-138.75538342635423
42
-0.41421356237309503
10
79.282555908792176
20
-142.75538342635394
10
67.282555908792148
20
-142.75538342635309
42
-0.41421356237309176
10
63.282555908792439
20
-138.75538342635284
10
63.282555908794585
20
-109.55814906547823
42
0.51177255225266549
10
51.440450462880804
20
-101.01868557915085
42
-0.79662977407448765
10
41.305776399111132
20
-84.366277165867857
42
0.36612798762037096
10
39.607034325671073
20
-65.069904444274414
42
-1.1593628912321041
10
53.003042482413477
20
-50.512205070705967
42
0.45207367986523045
10
64.253918709308365
20
-50.985526288461827
42
-0.70819596033198395
10
85.735369969477631
20
-60.715479155928868
42
0.36765236976477517
10
100.74166137655172
20
-81.837467644010857
42
-1.037094265899245
10
95.124660989208024
20
-101.01868571431379
42
0.51177253874975281
10
83.282555908794578
20
-109.55814932228562
0
CIRCLE
5
114
100
AcDbEntity
8
0
100
AcDbCircle
10
73.282555908792659
20
-136.75538342635349
30
-4.4408920985006262e-014
40
2.5000000000000009
0
CIRCLE
5
115
100
AcDbEntity
8
0
100
AcDbCircle
10
45.224783630813405
20
-56.797003336164089
30
-5.3290705182007514e-014
40
2.5000000000000009
0
CIRCLE
5
116
100
AcDbEntity
8
0
100
AcDbCircle
10
73.282555908794293
20
-113.27573021590524
30
-8.8817841970012523e-015
40
2.4999999999999831
0
ARC
5
117
100
AcDbEntity
8
0
100
AcDbCircle
10
105.65987308369806
20
-62.451617298883157
30
-8.8817841970012523e-015
40
28.582404499977706
100
AcDbArc
50
196.50332125080328
51
231.19063118162344
0
ARC
5
118
100
AcDbEntity
8
0
100
AcDbCircle
10
87.069303497306763
20
-85.565881927564291
30
-5.3290705182007514e-014
40
1.0803416114523285
100
AcDbArc
50
-110.34055524041578
51
51.190631181626529
0
ARC
5
119
100
AcDbEntity
8
0
100
AcDbCircle
10
73.282555908793668
20
-122.75538311745727
30
-3.5527136788004984e-014
40
38.582404499977763
100
AcDbArc
50
69.659444759581334
51
110.34055401021004
0
ARC
5
120
100
AcDbEntity
8
0
100
AcDbCircle
10
59.49580754876969
20
-85.565881927562231
30
-5.3290705182007514e-014
40
1.0803416114038402
100
AcDbArc
50
128.80936881855027
51
290.34063754053597
0
ARC
5
121
100
AcDbEntity
8
0
100
AcDbCircle
10
40.905237962264835
20
-62.451617298884976
30
-8.8817841970012365e-015
40
28.582404500094331
100
AcDbArc
50
308.80936881855212
51
343.49667874925524
0
ARC
5
122
100
AcDbEntity
8
0
100
AcDbCircle
10
73.282555523039221
20
-72.044257210059669
30
-3.5527136788005009e-014
40
5.1860635270033804
100
AcDbArc
50
16.503321250803015
51
163.49667874925635
0
CIRCLE
5
123
100
AcDbEntity
8
0
100
AcDbCircle
10
73.282555522996589
20
-59.630392816573021
30
8.8817841970012523e-015
40
3.6000000000000121
0
CIRCLE
5
124
100
AcDbEntity
8
0
100
AcDbCircle
10
48.282555522978463
20
-91.530392816571165
30
-8.8817841970012523e-015
40
2.5000000000000009
0
CIRCLE
5
125
100
AcDbEntity
8
0
100
AcDbCircle
10
98.282555522998592
20
-91.530392816572856
30
-8.8817841970012507e-015
40
2.5000000000000098
0
CIRCLE
5
126
100
AcDbEntity
8
0
100
AcDbCircle
10
81.009817123412788
20
-158.30942949145032
30
0
40
2.7500000000000258
0
CIRCLE
5
127
100
AcDbEntity
8
0
100
AcDbCircle
10
81.009817123412574
20
-198.30942949145069
30
0
40
2.5000000000000044
0
CIRCLE
5
128
100
AcDbEntity
8
0
100
AcDbCircle
10
49.109817123412483
20
-178.30942949145077
30
0
40
3.600000000000001
0
LWPOLYLINE
5
129
100
AcDbEntity
8
0
100
AcDbPolyline
90
8
70
1
43
0.0
10
37.559817123412515
20
-201.3094294914508
10
37.559817123412401
20
-155.30942949145077
42
-0.41421356237309281
10
44.559817123412401
20
-148.30942949145077
10
85.559817123412472
20
-148.30942949145071
42
-0.41421356237309803
10
92.559817123412472
20
-155.30942949145066
10
92.559817123412586
20
-201.30942949145066
42
-0.41421356237309431
10
85.559817123412572
20
-208.30942949145069
10
44.559817123412522
20
-208.3094294914508
42
-0.41421356237309914
0
LWPOLYLINE
5
130
100
AcDbEntity
8
0
100
AcDbPolyline
90
17
70
1
43
0.0
10
165.50196499290655
20
-182.40173930286073
42
-0.41421356237309764
10
161.50196499290675
20
-186.40173930286085
10
149.50196499290675
20
-186.4017393028613
42
-0.41421356237310153
10
145.50196499290664
20
-182.4017393028615
10
145.50196499290547
20
-153.20450519879304
42
0.51177253874975503
10
133.65985991249221
20
-144.66504159082069
42
-1.0370942658992475
10
128.0428595251492
20
-125.48382352051769
42
0.36765236976477678
10
143.04915093137231
20
-104.36183503251037
42
-0.14588243332856912
10
144.48769983922892
20
-97.366084208471221
10
156.89348534331788
20
-74.248397161239467
10
184.74465484914276
20
-54.746798325302699
10
190.315568771703
20
-55.729100757054212
10
209.8171676076397
20
-83.580270262879196
10
208.83486517588807
20
-89.151184185439348
10
189.84066721612089
20
-138.75287061382659
42
-0.40126195842857298
10
177.34407043881947
20
-144.66504145565924
42
0.51177255225266438
10
165.50196499290541
20
-153.20450494198622
0
CIRCLE
5
131
100
AcDbEntity
8
0
100
AcDbCircle
10
161.27688380968226
20
-77.893368750302116
30
8.8817841970012523e-015
40
1.4999999999999989
0
CIRCLE
5
132
100
AcDbEntity
8
0
100
AcDbCircle
10
182.86417525960306
20
-81.699790673339407
30
-6.2172489379008766e-014
40
11.499999999999993
0
CIRCLE
5
133
100
AcDbEntity
8
0
100
AcDbCircle
10
186.67059718264025
20
-60.112499223418695
30
-5.3290705182007514e-014
40
1.5000000000000033
0
CIRCLE
5
134
100
AcDbEntity
8
0
100
AcDbCircle
10
179.05775333656561
20
-103.28708212326019
30
8.8817841970012523e-015
40
1.5000000000000033
0
CIRCLE
5
135
100
AcDbEntity
8
0
100
AcDbCircle
10
204.45146670952366
20
-85.506212596376713
30
-5.3290705182007514e-014
40
1.5000000000000033
0
CIRCLE
5
136
100
AcDbEntity
8
0
100
AcDbCircle
10
155.50196499290652
20
-180.40173930286113
30
-4.4408920985006262e-014
40
2.4999999999999996
0
CIRCLE
5
137
100
AcDbEntity
8
0
100
AcDbCircle
10
155.50196499290567
20
-158.4017393028611
30
-5.3290705182007514e-014
40
2.4999999999999818
0
ARC
5
138
100
AcDbEntity
8
0
100
AcDbCircle
10
123.12464781800352
20
-106.09797317538988
30
-8.8817841970012507e-015
40
28.582404499977606
100
AcDbArc
50
308.80936881837476
51
343.49667874919504
0
ARC
5
139
100
AcDbEntity
8
0
100
AcDbCircle
10
155.50196537866202
20
-115.6906130865674
30
-3.5527136788005009e-014
40
5.1860635269968984
100
AcDbArc
50
16.503321250742623
51
163.4966787491947
0
ARC
5
140
100
AcDbEntity
8
0
100
AcDbCircle
10
187.87928293943654
20
-106.09797317539378
30
-8.8817841970012523e-015
40
28.58240450009427
100
AcDbArc
50
196.50332125074277
51
231.19063118144629
0
ARC
5
141
100
AcDbEntity
8
0
100
AcDbCircle
10
169.28871335293115
20
-129.21223780407041
30
-5.3290705182007514e-014
40
1.0803416114038371
100
AcDbArc
50
-110.34063754053935
51
51.19063118145057
0
ARC
5
142
100
AcDbEntity
8
0
100
AcDbCircle
10
155.50196499290595
20
-166.40173899396495
30
-3.5527136788005009e-014
40
38.58240449997772
100
AcDbArc
50
69.659445989788097
51
110.34055524041689
0
ARC
5
143
100
AcDbEntity
8
0
100
AcDbCircle
10
141.71521740439405
20
-129.21223780407152
30
-5.3290705182007514e-014
40
1.0803416114523303
100
AcDbArc
50
128.8093688183709
51
290.34055524041418
0
CIRCLE
5
144
100
AcDbEntity
8
0
100
AcDbCircle
10
155.50196537870502
20
-103.27674869308071
30
8.8817841970012523e-015
40
3.6000000000000099
0
CIRCLE
5
145
100
AcDbEntity
8
0
100
AcDbCircle
10
180.50196537872208
20
-135.17674869307962
30
-8.8817841970012523e-015
40
2.4999999999999996
0
CIRCLE
5
146
100
AcDbEntity
8
0
100
AcDbCircle
10
130.50196537870195
20
-135.17674869307973
30
-8.8817841970012523e-015
40
2.5000000000000084
0
CIRCLE
5
147
100
AcDbEntity
8
0
100
AcDbCircle
10
258.95274140408321
20
-89.484741506309447
30
-5.3290705182007514e-014
40
1.6000000000000285
0
LWPOLYLINE
5
148
100
AcDbEntity
8
0
100
AcDbPolyline
90
12
70
1
43
0.0
10
267.57827777818477
20
-132.7469506255519
42
-0.41421356237309631
10
263.57827777818488
20
-136.74695062555196
10
251.57827777818483
20
-136.74695062555219
42
-0.41421356237309503
10
247.57827777818477
20
-132.74695062555227
10
247.5782777781842
20
-103.54971652148376
42
0.51177253874975304
10
235.73617269777117
20
-95.010252913511181
42
-1.0370942658992457
10
230.11917231042855
20
-75.829034843208035
42
0.36765236976477578
10
245.12546371747277
20
-54.707046355129492
42
-1.0909249790747089
10
270.0310926104969
20
-54.707046355128888
42
0.36765236976483578
10
285.03738401757198
20
-75.829034843212597
42
-1.0370942881075664
10
279.42038322409837
20
-95.010252778350605
42
0.51177255225266416
10
267.5782777781842
20
-103.54971626467733
0
CIRCLE
5
149
100
AcDbEntity
8
0
100
AcDbCircle
10
257.57827777818471
20
-130.74695062555207
30
-2.6645352591003757e-014
40
2.5000000000000009
0
CIRCLE
5
150
100
AcDbEntity
8
0
100
AcDbCircle
10
257.57827777818426
20
-108.74695062555206
30
-2.6645352591003757e-014
40
2.4999999999999831
0
ARC
5
151
100
AcDbEntity
8
0
100
AcDbCircle
10
225.20096060328319
20
-56.443184498080058
30
-5.3290705182007514e-014
40
28.582404499977699
100
AcDbArc
50
308.80936881837357
51
343.49667874919373
0
ARC
5
152
100
AcDbEntity
8
0
100
AcDbCircle
10
257.57827816394155
20
-66.035824409258268
30
-8.8817841970012523e-015
40
5.1860635269968984
100
AcDbArc
50
16.503321250741298
51
163.49667874919376
0
ARC
5
153
100
AcDbEntity
8
0
100
AcDbCircle
10
289.95559572471615
20
-56.443184498085337
30
-5.3290705182007501e-014
40
28.582404500094182
100
AcDbArc
50
196.50332125074169
51
231.19063118144524
0
ARC
5
154
100
AcDbEntity
8
0
100
AcDbCircle
10
271.36502613821034
20
-79.557449126761583
30
-2.664535259100376e-014
40
1.0803416114038538
100
AcDbArc
50
-110.34063754053909
51
51.190631181447273
0
ARC
5
155
100
AcDbEntity
8
0
100
AcDbCircle
10
257.57827777818443
20
-116.7469503166559
30
-8.8817841970012523e-015
40
38.582404499977748
100
AcDbArc
50
69.659445989786974
51
110.3405552404157
0
ARC
5
156
100
AcDbEntity
8
0
100
AcDbCircle
10
243.7915301896733
20
-79.557449126762123
30
-2.6645352591003757e-014
40
1.0803416114522941
100
AcDbArc
50
128.80936881837064
51
290.34055524041383
0
CIRCLE
5
157
100
AcDbEntity
8
0
100
AcDbCircle
10
257.57827816398481
20
-53.621960015771592
30
-4.4408920985006262e-014
40
3.6000000000000116
0
CIRCLE
5
158
100
AcDbEntity
8
0
100
AcDbCircle
10
282.57827816400123
20
-85.521960015771043
30
-5.3290705182007514e-014
40
2.5000000000000009
0
CIRCLE
5
159
100
AcDbEntity
8
0
100
AcDbCircle
10
232.57827816398111
20
-85.521960015770134
30
-5.3290705182007514e-014
40
2.5000000000000098
0
CIRCLE
5
160
100
AcDbEntity
8
0
100
AcDbCircle
10
279.86332725485306
20
-148.65574539110625
30
-2.6645352591003757e-014
40
1.6000000000000283
0
LWPOLYLINE
5
161
100
AcDbEntity
8
0
100
AcDbPolyline
90
12
70
1
43
0.0
10
271.23779088075639
20
-105.39353627186281
42
-0.41421356237310153
10
275.23779088075673
20
-101.39353627186321
10
287.23779088075679
20
-101.39353627186429
42
-0.41421356237309243
10
291.23779088075645
20
-105.39353627186473
10
291.23779088075366
20
-134.59077037593326
42
0.51177253874975281
10
303.07989596116568
20
-143.13023398390717
42
-1.0370942658992512
10
308.69689634850607
20
-162.31145205421097
42
0.36765236976477544
10
293.69060494145947
20
-183.4334405422878
42
-1.0909249790747066
10
268.78497604843528
20
-183.43344054228555
42
0.36765236976483356
10
253.7786846413627
20
-162.31145205420012
42
-1.0370942881075704
10
259.39568543483853
20
-143.13023411906278
42
0.51177255225266294
10
271.23779088075361
20
-134.59077063273736
0
CIRCLE
5
162
100
AcDbEntity
8
0
100
AcDbCircle
10
281.23779088075622
20
-107.39353627186378
30
-5.3290705182007514e-014
40
2.5000000000000004
0
CIRCLE
5
163
100
AcDbEntity
8
0
100
AcDbCircle
10
281.23779088075412
20
-129.39353627186381
30
-5.3290705182007514e-014
40
2.4999999999999827
0
ARC
5
164
100
AcDbEntity
8
0
100
AcDbCircle
10
313.61510805564922
20
-181.69730239933952
30
-1.7763568394002501e-014
40
28.582404499977699
100
AcDbArc
50
128.80936881836692
51
163.49667874918717
0
ARC
5
165
100
AcDbEntity
8
0
100
AcDbCircle
10
281.237790494992
20
-172.10466248815754
30
8.8817841970012507e-015
40
5.1860635269969215
100
AcDbArc
50
196.5033212507353
51
343.49667874918669
0
ARC
5
166
100
AcDbEntity
8
0
100
AcDbCircle
10
248.8604729342162
20
-181.69730239932682
30
-1.7763568394002501e-014
40
28.582404500094242
100
AcDbArc
50
16.503321250735073
51
51.190631181438583
0
ARC
5
167
100
AcDbEntity
8
0
100
AcDbCircle
10
267.45104252072474
20
-158.58303777065268
30
-4.4408920985006262e-014
40
1.0803416114038531
100
AcDbArc
50
69.659362459454499
51
231.19063118144066
0
ARC
5
168
100
AcDbEntity
8
0
100
AcDbCircle
10
281.23779088075486
20
-121.39353658075997
30
8.8817841970012523e-015
40
38.58240449997772
100
AcDbArc
50
249.65944598978044
51
290.34055524040917
0
ARC
5
169
100
AcDbEntity
8
0
100
AcDbCircle
10
295.02453846926181
20
-158.5830377706553
30
-4.4408920985006262e-014
40
1.0803416114522966
100
AcDbArc
50
-51.190631181635723
51
110.34055524040691
0
CIRCLE
5
170
100
AcDbEntity
8
0
100
AcDbCircle
10
281.23779049494726
20
-184.51852688164425
30
-3.5527136788005009e-014
40
3.6000000000000112
0
CIRCLE
5
171
100
AcDbEntity
8
0
100
AcDbCircle
10
256.23779049493459
20
-152.61852688164194
30
-1.7763568394002505e-014
40
2.5000000000000004
0
CIRCLE
5
172
100
AcDbEntity
8
0
100
AcDbCircle
10
306.23779049495465
20
-152.61852688164856
30
-1.7763568394002505e-014
40
2.5000000000000093
0
ENDSEC
0
SECTION
2
OBJECTS
0
DICTIONARY
5
C
100
AcDbDictionary
3
ACAD_GROUP
350
D
3
ACAD_MLINESTYLE
350
17
0
DICTIONARY
5
D
100
AcDbDictionary
0
DICTIONARY
5
1A
330
C
100
AcDbDictionary
0
DICTIONARY
5
17
100
AcDbDictionary
0
ENDSEC
0
EOF
