  0
SECTION
  2
HEADER
  9
$ACADVER
  1
AC1015
  9
$ACADMAINTVER
 70
     6
  9
$DWGCODEPAGE
  3
ANSI_1252
  9
$INSBASE
 10
0.0
 20
0.0
 30
0.0
  9
$EXTMIN
 10
75.52640379879139
 20
-245.8937288909848
 30
0.0
  9
$EXTMAX
 10
389.5264037987914
 20
-5.893728890984764
 30
0.0000000000000089
  9
$LIMMIN
 10
0.0
 20
0.0
  9
$LIMMAX
 10
12.0
 20
9.0
  9
$ORTHOMODE
 70
     0
  9
$REGENMODE
 70
     1
  9
$FILLMODE
 70
     1
  9
$QTEXTMODE
 70
     0
  9
$MIRRTEXT
 70
     1
  9
$LTSCALE
 40
1.0
  9
$ATTMODE
 70
     1
  9
$TEXTSIZE
 40
0.2
  9
$TRACEWID
 40
0.05
  9
$TEXTSTYLE
  7
STANDARD
  9
$CLAYER
  8
0
  9
$CELTYPE
  6
BYBLOCK
  9
$CECOLOR
 62
   256
  9
$CELTSCALE
 40
1.0
  9
$DISPSILH
 70
     0
  9
$DIMSCALE
 40
1.0
  9
$DIMASZ
 40
0.18
  9
$DIMEXO
 40
0.0625
  9
$DIMDLI
 40
0.38
  9
$DIMRND
 40
0.0
  9
$DIMDLE
 40
0.0
  9
$DIMEXE
 40
0.18
  9
$DIMTP
 40
0.0
  9
$DIMTM
 40
0.0
  9
$DIMTXT
 40
0.18
  9
$DIMCEN
 40
0.09
  9
$DIMTSZ
 40
0.0
  9
$DIMTOL
 70
     0
  9
$DIMLIM
 70
     0
  9
$DIMTIH
 70
     1
  9
$DIMTOH
 70
     1
  9
$DIMSE1
 70
     0
  9
$DIMSE2
 70
     0
  9
$DIMTAD
 70
     0
  9
$DIMZIN
 70
     0
  9
$DIMBLK
  1

  9
$DIMASO
 70
     1
  9
$DIMSHO
 70
     1
  9
$DIMPOST
  1

  9
$DIMAPOST
  1

  9
$DIMALT
 70
     0
  9
$DIMALTD
 70
     2
  9
$DIMALTF
 40
25.4
  9
$DIMLFAC
 40
1.0
  9
$DIMTOFL
 70
     0
  9
$DIMTVP
 40
0.0
  9
$DIMTIX
 70
     0
  9
$DIMSOXD
 70
     0
  9
$DIMSAH
 70
     0
  9
$DIMBLK1
  1

  9
$DIMBLK2
  1

  9
$DIMSTYLE
  2
Standard
  9
$DIMCLRD
 70
     0
  9
$DIMCLRE
 70
     0
  9
$DIMCLRT
 70
     0
  9
$DIMTFAC
 40
1.0
  9
$DIMGAP
 40
0.09
  9
$DIMJUST
 70
     0
  9
$DIMSD1
 70
     0
  9
$DIMSD2
 70
     0
  9
$DIMTOLJ
 70
     1
  9
$DIMTZIN
 70
     0
  9
$DIMALTZ
 70
     0
  9
$DIMALTTZ
 70
     0
  9
$DIMUPT
 70
     0
  9
$DIMDEC
 70
     4
  9
$DIMTDEC
 70
     4
  9
$DIMALTU
 70
     2
  9
$DIMALTTD
 70
     2
  9
$DIMTXSTY
  7
STANDARD
  9
$DIMAUNIT
 70
     0
  9
$DIMADEC
 70
     0
  9
$DIMALTRND
 40
0.0
  9
$DIMAZIN
 70
     0
  9
$DIMDSEP
 70
    46
  9
$DIMATFIT
 70
     3
  9
$DIMFRAC
 70
     0
  9
$DIMLDRBLK
  1

  9
$DIMLUNIT
 70
     2
  9
$DIMLWD
 70
    -2
  9
$DIMLWE
 70
    -2
  9
$DIMTMOVE
 70
     2
  9
$LUNITS
 70
     2
  9
$LUPREC
 70
     4
  9
$SKETCHINC
 40
0.1
  9
$FILLETRAD
 40
0.5
  9
$AUNITS
 70
     0
  9
$AUPREC
 70
     0
  9
$MENU
  1
.
  9
$ELEVATION
 40
0.0
  9
$PELEVATION
 40
0.0
  9
$THICKNESS
 40
0.0
  9
$LIMCHECK
 70
     0
  9
$CHAMFERA
 40
0.0
  9
$CHAMFERB
 40
0.0
  9
$CHAMFERC
 40
0.0
  9
$CHAMFERD
 40
0.0
  9
$SKPOLY
 70
     0
  9
$TDCREATE
 40
2447892.75
  9
$TDUCREATE
 40
0.0
  9
$TDUPDATE
 40
2457398.676399444
  9
$TDUUPDATE
 40
2457398.926399444
  9
$TDINDWG
 40
0.084789213
  9
$TDUSRTIMER
 40
2457398.841610324
  9
$USRTIMER
 70
     1
  9
$ANGBASE
 50
0.0
  9
$ANGDIR
 70
     0
  9
$PDMODE
 70
     0
  9
$PDSIZE
 40
0.0
  9
$PLINEWID
 40
0.0
  9
$SPLFRAME
 70
     0
  9
$SPLINETYPE
 70
     6
  9
$SPLINESEGS
 70
     8
  9
$HANDSEED
  5
1005E
  9
$SURFTAB1
 70
     6
  9
$SURFTAB2
 70
     6
  9
$SURFTYPE
 70
     6
  9
$SURFU
 70
     6
  9
$SURFV
 70
     6
  9
$UCSBASE
  2

  9
$UCSNAME
  2

  9
$UCSORG
 10
0.0
 20
0.0
 30
0.0
  9
$UCSXDIR
 10
1.0
 20
0.0
 30
0.0
  9
$UCSYDIR
 10
0.0
 20
1.0
 30
0.0
  9
$UCSORTHOREF
  2

  9
$UCSORTHOVIEW
 70
     0
  9
$UCSORGTOP
 10
0.0
 20
0.0
 30
0.0
  9
$UCSORGBOTTOM
 10
0.0
 20
0.0
 30
0.0
  9
$UCSORGLEFT
 10
0.0
 20
0.0
 30
0.0
  9
$UCSORGRIGHT
 10
0.0
 20
0.0
 30
0.0
  9
$UCSORGFRONT
 10
0.0
 20
0.0
 30
0.0
  9
$UCSORGBACK
 10
0.0
 20
0.0
 30
0.0
  9
$PUCSBASE
  2

  9
$PUCSNAME
  2

  9
$PUCSORG
 10
0.0
 20
0.0
 30
0.0
  9
$PUCSXDIR
 10
1.0
 20
0.0
 30
0.0
  9
$PUCSYDIR
 10
0.0
 20
1.0
 30
0.0
  9
$PUCSORTHOREF
  2

  9
$PUCSORTHOVIEW
 70
     0
  9
$PUCSORGTOP
 10
0.0
 20
0.0
 30
0.0
  9
$PUCSORGBOTTOM
 10
0.0
 20
0.0
 30
0.0
  9
$PUCSORGLEFT
 10
0.0
 20
0.0
 30
0.0
  9
$PUCSORGRIGHT
 10
0.0
 20
0.0
 30
0.0
  9
$PUCSORGFRONT
 10
0.0
 20
0.0
 30
0.0
  9
$PUCSORGBACK
 10
0.0
 20
0.0
 30
0.0
  9
$USERI1
 70
     0
  9
$USERI2
 70
     0
  9
$USERI3
 70
     0
  9
$USERI4
 70
     0
  9
$USERI5
 70
     0
  9
$USERR1
 40
0.0
  9
$USERR2
 40
0.0
  9
$USERR3
 40
0.0
  9
$USERR4
 40
0.0
  9
$USERR5
 40
0.0
  9
$WORLDVIEW
 70
     1
  9
$SHADEDGE
 70
     3
  9
$SHADEDIF
 70
    70
  9
$TILEMODE
 70
     1
  9
$MAXACTVP
 70
    64
  9
$PINSBASE
 10
0.0
 20
0.0
 30
0.0
  9
$PLIMCHECK
 70
     0
  9
$PEXTMIN
 10
1.000000000000000E+20
 20
1.000000000000000E+20
 30
1.000000000000000E+20
  9
$PEXTMAX
 10
-1.000000000000000E+20
 20
-1.000000000000000E+20
 30
-1.000000000000000E+20
  9
$PLIMMIN
 10
0.0
 20
0.0
  9
$PLIMMAX
 10
0.0
 20
0.0
  9
$UNITMODE
 70
     0
  9
$VISRETAIN
 70
     1
  9
$PLINEGEN
 70
     0
  9
$PSLTSCALE
 70
     1
  9
$TREEDEPTH
 70
  3020
  9
$CMLSTYLE
  2

  9
$CMLJUST
 70
     0
  9
$CMLSCALE
 40
1.0
  9
$PROXYGRAPHICS
 70
     1
  9
$MEASUREMENT
 70
     0
  9
$CELWEIGHT
370
    -1
  9
$ENDCAPS
280
     0
  9
$JOINSTYLE
280
     0
  9
$LWDISPLAY
290
     0
  9
$INSUNITS
 70
     4
  9
$HYPERLINKBASE
  1

  9
$STYLESHEET
  1

  9
$XEDIT
290
     1
  9
$CEPSNTYPE
380
     0
  9
$PSTYLEMODE
290
     1
  9
$FINGERPRINTGUID
  2
{89B35046-0178-4DE6-9705-10F6A136315F}
  9
$VERSIONGUID
  2
{FAEB1C32-E019-11D5-929B-00C0DF256EC4}
  9
$EXTNAMES
290
     1
  9
$PSVPSCALE
 40
0.0
  9
$OLESTARTUP
290
     0
  0
ENDSEC
  0
SECTION
  2
CLASSES
  0
CLASS
  1
SCALE
  2
AcDbScale
  3
ObjectDBX Classes
 90
     1153
280
     0
281
     0
  0
CLASS
  1
VISUALSTYLE
  2
AcDbVisualStyle
  3
ObjectDBX Classes
 90
     4095
280
     0
281
     0
  0
CLASS
  1
MATERIAL
  2
AcDbMaterial
  3
ObjectDBX Classes
 90
     1153
280
     0
281
     0
  0
CLASS
  1
TABLESTYLE
  2
AcDbTableStyle
  3
ObjectDBX Classes
 90
     4095
280
     0
281
     0
  0
CLASS
  1
SUN
  2
AcDbSun
  3
SCENEOE
 90
     1153
280
     0
281
     0
  0
CLASS
  1
RASTERVARIABLES
  2
AcDbRasterVariables
  3
ISM
 90
        0
280
     0
281
     0
  0
CLASS
  1
ACDBPLACEHOLDER
  2
AcDbPlaceHolder
  3
ObjectDBX Classes
 90
        0
280
     0
281
     0
  0
CLASS
  1
LAYOUT
  2
AcDbLayout
  3
ObjectDBX Classes
 90
        0
280
     0
281
     0
  0
ENDSEC
  0
SECTION
  2
TABLES
  0
TABLE
  2
VPORT
  5
8
330
0
100
AcDbSymbolTable
 70
     1
  0
VPORT
  5
10001
330
8
100
AcDbSymbolTableRecord
100
AcDbViewportTableRecord
  2
*Active
 70
     0
 10
0.0
 20
0.0
 11
1.0
 21
1.0
 12
168.3459704449598
 22
81.39866881367956
 13
0.0
 23
0.0
 14
0.5
 24
0.5
 15
0.5
 25
0.5
 16
0.0
 26
0.0
 36
1.0
 17
0.0
 27
0.0
 37
0.0
 40
120.2433615319968
 41
1.353430353430353
 42
50.0
 43
0.0
 44
0.0
 50
0.0
 51
0.0
 71
    16
 72
   100
 73
     1
 74
     3
 75
     0
 76
     0
 77
     0
 78
     0
281
     0
 65
     1
110
0.0
120
0.0
130
0.0
111
1.0
121
0.0
131
0.0
112
0.0
122
1.0
132
0.0
 79
     0
146
0.0
  0
ENDTAB
  0
TABLE
  2
LTYPE
  5
5
330
0
100
AcDbSymbolTable
 70
     1
  0
LTYPE
  5
14
330
5
100
AcDbSymbolTableRecord
100
AcDbLinetypeTableRecord
  2
BYBLOCK
 70
     0
  3

 72
    65
 73
     0
 40
0.0
  0
LTYPE
  5
15
330
5
100
AcDbSymbolTableRecord
100
AcDbLinetypeTableRecord
  2
BYLAYER
 70
     0
  3

 72
    65
 73
     0
 40
0.0
  0
LTYPE
  5
FFFF
330
5
100
AcDbSymbolTableRecord
100
AcDbLinetypeTableRecord
  2
Continuous
 70
     0
  3
Solid line
 72
    65
 73
     0
 40
0.0
  0
ENDTAB
  0
TABLE
  2
LAYER
  5
2
330
0
100
AcDbSymbolTable
 70
     1
  0
LAYER
  5
50
330
2
100
AcDbSymbolTableRecord
100
AcDbLayerTableRecord
  2
0
 70
     0
 62
     7
  6
Continuous
370
    -3
390
0
  0
ENDTAB
  0
TABLE
  2
STYLE
  5
3
330
0
100
AcDbSymbolTable
 70
     1
  0
STYLE
  5
11
330
3
100
AcDbSymbolTableRecord
100
AcDbTextStyleTableRecord
  2
STANDARD
 70
     0
 40
0.2
 41
1.0
 50
0.0
 71
     0
 42
0.2
  3

  4

  0
ENDTAB
  0
TABLE
  2
VIEW
  5
6
330
0
100
AcDbSymbolTable
 70
     0
  0
ENDTAB
  0
TABLE
  2
UCS
  5
7
330
0
100
AcDbSymbolTable
 70
     0
  0
ENDTAB
  0
TABLE
  2
APPID
  5
9
330
0
100
AcDbSymbolTable
 70
     1
  0
APPID
  5
12
330
9
100
AcDbSymbolTableRecord
100
AcDbRegAppTableRecord
  2
ACAD
 70
     0
  0
ENDTAB
  0
TABLE
  2
DIMSTYLE
  5
A
330
0
100
AcDbSymbolTable
 70
     1
100
AcDbDimStyleTable
  0
DIMSTYLE
105
10000
330
A
100
AcDbSymbolTableRecord
100
AcDbDimStyleTableRecord
  2
Standard
 70
     0
178
     0
340
11
  0
ENDTAB
  0
TABLE
  2
BLOCK_RECORD
  5
1
330
0
100
AcDbSymbolTable
 70
     0
  0
BLOCK_RECORD
  5
1F
330
1
100
AcDbSymbolTableRecord
100
AcDbBlockTableRecord
  2
*MODEL_SPACE
340
10026
  0
BLOCK_RECORD
  5
1B
330
1
100
AcDbSymbolTableRecord
100
AcDbBlockTableRecord
  2
*PAPER_SPACE
340
10027
  0
ENDTAB
  0
ENDSEC
  0
SECTION
  2
BLOCKS
  0
BLOCK
  5
20
330
1F
100
AcDbEntity
  8
0
100
AcDbBlockBegin
  2
*MODEL_SPACE
 70
     0
 10
0.0
 20
0.0
 30
0.0
  3
*MODEL_SPACE
  1
*MODEL_SPACE
  0
ENDBLK
  5
21
330
1F
100
AcDbEntity
  8
0
100
AcDbBlockEnd
  0
BLOCK
  5
1C
330
1B
100
AcDbEntity
 67
     1
  8
0
100
AcDbBlockBegin
  2
*PAPER_SPACE
 70
     0
 10
0.0
 20
0.0
 30
0.0
  3
*PAPER_SPACE
  1
*PAPER_SPACE
  0
ENDBLK
  5
1D
330
1B
100
AcDbEntity
 67
     1
  8
0
100
AcDbBlockEnd
  0
ENDSEC
  0
SECTION
  2
ENTITIES
  0
CIRCLE
  5
100
330
1F
100
AcDbEntity
  8
0
100
AcDbCircle
 10
289.3761315460312
 20
39.83594549146679
 30
0.0
 40
2.000000000000028
  0
CIRCLE
  5
101
330
1F
100
AcDbEntity
  8
0
100
AcDbCircle
 10
289.3761315460312
 20
29.83594549146679
 30
0.0
 40
2.000000000000028
  0
LWPOLYLINE
  5
102
330
1F
100
AcDbEntity
  8
0
100
AcDbPolyline
 90
       37
 70
     1
 43
0.0
 10
262.8094122217714
 20
27.38289799172799
 10
227.5044701571731
 20
27.38289799172799
 42
0.3542144916579479
 10
224.0807056733226
 20
24.60942174159743
 42
-0.3542144916579399
 10
220.6569411894722
 20
21.8359454914669
 10
174.0852415709364
 20
21.83594549146687
 42
0.414213562373095
 10
169.0852415709364
 20
16.83594549146687
 10
169.0852415709364
 20
8.835945491466873
 42
-0.414213562373095
 10
164.0852415709364
 20
3.835945491466845
 10
44.0852415709364
 20
3.835945491466873
 42
-0.414213562373094
 10
39.0852415709364
 20
8.835945491466873
 42
0.414213562373095
 10
34.0852415709364
 20
13.83594549146687
 10
13.15694118947216
 20
13.83594549146684
 42
-0.4142135623730937
 10
11.15694118947215
 20
15.83594549146687
 10
11.15694118947216
 20
241.8359454914669
 42
-0.4142135623730928
 10
13.15694118947215
 20
243.8359454914669
 10
29.15694118947212
 20
243.8359454914669
 42
-0.4142135623730928
 10
31.15694118947214
 20
241.8359454914669
 10
31.15694118947212
 20
237.8359454914669
 42
0.4142135623730954
 10
33.15694118947212
 20
235.8359454914669
 10
303.1569411894721
 20
235.8359454914669
 42
0.414213562373095
 10
305.1569411894721
 20
237.8359454914669
 10
305.1569411894721
 20
241.835940270889
 42
-0.4142135623731054
 10
307.1569411894721
 20
243.835940270889
 10
323.1478017574248
 20
243.835940270889
 42
-0.4142135623731056
 10
325.1478017574248
 20
241.835940270889
 10
325.1478017574248
 20
235.8359454914669
 10
325.1569411894721
 20
235.8359454914669
 10
325.1569411894721
 20
21.83594549146687
 10
325.1500634329105
 20
21.83594549146687
 10
325.1500634329105
 20
15.83594844793836
 42
-0.414213562373069
 10
323.1500634329104
 20
13.83594844793836
 10
307.1569411894721
 20
13.83594844793836
 42
-0.4142135623730898
 10
305.1569411894721
 20
15.83594844793836
 10
305.1569411894721
 20
19.83594549146687
 42
0.414213562373095
 10
303.1569411894721
 20
21.8359454914669
 10
269.6569411894721
 20
21.83594549146693
 42
-0.3542144916579288
 10
266.2331767056218
 20
24.60942174159743
 42
0.3542144916579484
  0
CIRCLE
  5
103
330
1F
100
AcDbEntity
  8
0
 62
     5
100
AcDbCircle
 10
217.0069411894721
 20
54.23094549146737
 30
0.0
 40
3.554999999999993
  0
CIRCLE
  5
104
330
1F
100
AcDbEntity
  8
0
 62
     5
100
AcDbCircle
 10
118.3069411894722
 20
53.44094549146672
 30
0.0
 40
2.5
  0
CIRCLE
  5
105
330
1F
100
AcDbEntity
  8
0
 62
     5
100
AcDbCircle
 10
118.3069411894722
 20
203.4409454914672
 30
0.0
 40
2.749999999999986
  0
CIRCLE
  5
106
330
1F
100
AcDbEntity
  8
0
 62
     5
100
AcDbCircle
 10
217.0069411894721
 20
204.2309454914671
 30
0.0
 40
3.554999999999993
  0
CIRCLE
  5
107
330
1F
100
AcDbEntity
  8
0
 62
     5
100
AcDbCircle
 10
309.1261106298124
 20
237.8359454914654
 30
0.0
 40
1.599999999999966
  0
CIRCLE
  5
108
330
1F
100
AcDbEntity
  8
0
 62
     5
100
AcDbCircle
 10
319.1569411894731
 20
237.8359454914668
 30
0.0
 40
1.600000000000037
  0
CIRCLE
  5
109
330
1F
100
AcDbEntity
  8
0
 62
     5
100
AcDbCircle
 10
319.156941189472
 20
19.83594549146625
 30
0.0
 40
1.600000000000001
  0
CIRCLE
  5
110
330
1F
100
AcDbEntity
  8
0
 62
     5
100
AcDbCircle
 10
309.2142593565916
 20
19.72285206205146
 30
0.0
 40
1.600000000000001
  0
CIRCLE
  5
111
330
1F
100
AcDbEntity
  8
0
 62
     5
100
AcDbCircle
 10
27.01147429557244
 20
237.835945491501
 30
0.0
 40
1.600000000000001
  0
CIRCLE
  5
112
330
1F
100
AcDbEntity
  8
0
 62
     5
100
AcDbCircle
 10
17.06879246269202
 20
237.7228520620874
 30
0.0
 40
1.600000000000001
  0
CIRCLE
  5
113
330
1F
100
AcDbEntity
  8
0
 62
     5
100
AcDbCircle
 10
26.9233255687376
 20
19.7228520620861
 30
0.0
 40
1.599999999999966
  0
CIRCLE
  5
114
330
1F
100
AcDbEntity
  8
0
 62
     5
100
AcDbCircle
 10
16.89249500907687
 20
19.72285206208468
 30
0.0
 40
1.600000000000037
  0
LWPOLYLINE
  5
115
330
1F
100
AcDbEntity
  8
0
100
AcDbPolyline
 90
        8
 70
     1
 43
0.0
 10
208.1569411894722
 20
178.8359454914669
 10
208.1569411894722
 20
198.8359454914669
 42
0.414213562373095
 10
198.1569411894721
 20
208.8359454914669
 10
138.1569411894721
 20
208.8359454914669
 42
0.4142135623730948
 10
128.1569411894721
 20
198.8359454914669
 10
128.1569411894721
 20
178.8359454914669
 42
0.414213562373095
 10
138.1569411894721
 20
168.8359454914669
 10
198.1569411894721
 20
168.8359454914669
 42
0.4142135623730953
  0
LWPOLYLINE
  5
116
330
1F
100
AcDbEntity
  8
0
100
AcDbPolyline
 90
        8
 70
     1
 43
0.0
 10
198.1569411894721
 20
88.83594549146687
 10
138.1569411894721
 20
88.83594549146687
 42
0.414213562373095
 10
128.1569411894721
 20
78.83594549146687
 10
128.1569411894721
 20
58.83594549146687
 42
0.414213562373095
 10
138.1569411894721
 20
48.83594549146687
 10
198.1569411894721
 20
48.83594549146687
 42
0.414213562373095
 10
208.1569411894722
 20
58.83594549146687
 10
208.1569411894721
 20
78.83594549146687
 42
0.414213562373095
  0
CIRCLE
  5
117
330
1F
100
AcDbEntity
  8
0
 62
     5
100
AcDbCircle
 10
173.6334244519149
 20
94.83594549146687
 30
0.0
 40
1.999999999999993
  0
CIRCLE
  5
118
330
1F
100
AcDbEntity
  8
0
 62
     5
100
AcDbCircle
 10
174.3882150886866
 20
162.8359454914669
 30
0.0
 40
1.999999999999993
  0
CIRCLE
  5
119
330
1F
100
AcDbEntity
  8
0
 62
     5
100
AcDbCircle
 10
159.0852415709364
 20
11.83594549146693
 30
0.0
 40
1.499999999999986
  0
CIRCLE
  5
120
330
1F
100
AcDbEntity
  8
0
 62
     5
100
AcDbCircle
 10
49.08524157093638
 20
11.83594549146693
 30
0.0
 40
1.500000000000004
  0
CIRCLE
  5
121
330
1F
100
AcDbEntity
  8
0
100
AcDbCircle
 10
289.3761315460312
 20
39.83594549146679
 30
0.0
 40
2.000000000000028
  0
CIRCLE
  5
122
330
1F
100
AcDbEntity
  8
0
100
AcDbCircle
 10
289.3761315460312
 20
29.83594549146679
 30
0.0
 40
2.000000000000028
  0
CIRCLE
  5
124
330
1F
100
AcDbEntity
  8
0
 62
     5
100
AcDbCircle
 10
49.08524157093638
 20
11.83594549146693
 30
0.0
 40
1.500000000000004
  0
CIRCLE
  5
125
330
1F
100
AcDbEntity
  8
0
 62
     5
100
AcDbCircle
 10
159.0852415709364
 20
11.83594549146693
 30
0.0
 40
1.499999999999986
  0
CIRCLE
  5
126
330
1F
100
AcDbEntity
  8
0
 62
     5
100
AcDbCircle
 10
174.3882150886866
 20
162.8359454914669
 30
0.0000000000000089
 40
1.999999999999993
  0
CIRCLE
  5
127
330
1F
100
AcDbEntity
  8
0
 62
     5
100
AcDbCircle
 10
173.6334244519149
 20
94.83594549146687
 30
0.0
 40
1.999999999999993
  0
CIRCLE
  5
130
330
1F
100
AcDbEntity
  8
0
 62
     5
100
AcDbCircle
 10
16.89249500907687
 20
19.72285206208477
 30
0.0
 40
1.600000000000037
  0
CIRCLE
  5
131
330
1F
100
AcDbEntity
  8
0
 62
     5
100
AcDbCircle
 10
26.9233255687376
 20
19.72285206208619
 30
0.0
 40
1.599999999999966
  0
CIRCLE
  5
132
330
1F
100
AcDbEntity
  8
0
 62
     5
100
AcDbCircle
 10
17.06879246269202
 20
237.7228520620874
 30
0.0
 40
1.600000000000001
  0
CIRCLE
  5
133
330
1F
100
AcDbEntity
  8
0
 62
     5
100
AcDbCircle
 10
27.01147429557244
 20
237.835945491501
 30
0.0
 40
1.600000000000001
  0
CIRCLE
  5
134
330
1F
100
AcDbEntity
  8
0
 62
     5
100
AcDbCircle
 10
309.2142593565916
 20
19.7228520620516
 30
0.0
 40
1.600000000000001
  0
CIRCLE
  5
135
330
1F
100
AcDbEntity
  8
0
 62
     5
100
AcDbCircle
 10
319.156941189472
 20
19.83594549146642
 30
0.0
 40
1.600000000000001
  0
CIRCLE
  5
136
330
1F
100
AcDbEntity
  8
0
 62
     5
100
AcDbCircle
 10
319.1569411894731
 20
237.8359454914668
 30
0.0
 40
1.600000000000037
  0
CIRCLE
  5
137
330
1F
100
AcDbEntity
  8
0
 62
     5
100
AcDbCircle
 10
309.1261106298124
 20
237.8359454914654
 30
0.0
 40
1.599999999999966
  0
CIRCLE
  5
138
330
1F
100
AcDbEntity
  8
0
 62
     5
100
AcDbCircle
 10
217.0069411894721
 20
204.2309454914671
 30
0.0
 40
3.554999999999993
  0
CIRCLE
  5
139
330
1F
100
AcDbEntity
  8
0
 62
     5
100
AcDbCircle
 10
118.3069411894722
 20
203.4409454914672
 30
0.0
 40
2.749999999999986
  0
CIRCLE
  5
140
330
1F
100
AcDbEntity
  8
0
 62
     5
100
AcDbCircle
 10
118.3069411894722
 20
53.44094549146672
 30
0.0
 40
2.5
  0
CIRCLE
  5
141
330
1F
100
AcDbEntity
  8
0
 62
     5
100
AcDbCircle
 10
217.0069411894721
 20
54.23094549146737
 30
0.0
 40
3.554999999999993
  0
CIRCLE
  5
1004A
330
1F
100
AcDbEntity
  8
0
100
AcDbCircle
 10
26.9233255687376
 20
19.72285206208619
 30
0.0
 40
1.099999999999966
  0
CIRCLE
  5
1004B
330
1F
100
AcDbEntity
  8
0
100
AcDbCircle
 10
16.89249500907687
 20
19.72285206208477
 30
0.0
 40
1.100000000000037
  0
CIRCLE
  5
1004C
330
1F
100
AcDbEntity
  8
0
100
AcDbCircle
 10
49.08524157093638
 20
11.83594549146693
 30
0.0
 40
1.000000000000004
  0
CIRCLE
  5
1004D
330
1F
100
AcDbEntity
  8
0
100
AcDbCircle
 10
159.0852415709364
 20
11.83594549146693
 30
0.0
 40
0.9999999999999858
  0
CIRCLE
  5
1004E
330
1F
100
AcDbEntity
  8
0
100
AcDbCircle
 10
319.156941189472
 20
19.83594549146642
 30
0.0
 40
1.100000000000001
  0
CIRCLE
  5
1004F
330
1F
100
AcDbEntity
  8
0
100
AcDbCircle
 10
309.2142593565916
 20
19.7228520620516
 30
0.0
 40
1.100000000000001
  0
CIRCLE
  5
10051
330
1F
100
AcDbEntity
  8
0
100
AcDbCircle
 10
173.6334244519149
 20
94.83594549146687
 30
0.0
 40
1.499999999999993
  0
CIRCLE
  5
10052
330
1F
100
AcDbEntity
  8
0
100
AcDbCircle
 10
174.3882150886866
 20
162.8359454914669
 30
0.0000000000000089
 40
1.499999999999993
  0
CIRCLE
  5
10053
330
1F
100
AcDbEntity
  8
0
100
AcDbCircle
 10
319.1569411894731
 20
237.8359454914668
 30
0.0
 40
1.100000000000037
  0
CIRCLE
  5
10054
330
1F
100
AcDbEntity
  8
0
100
AcDbCircle
 10
309.1261106298124
 20
237.8359454914654
 30
0.0
 40
1.099999999999966
  0
CIRCLE
  5
10055
330
1F
100
AcDbEntity
  8
0
100
AcDbCircle
 10
17.06879246269202
 20
237.7228520620874
 30
0.0
 40
1.100000000000001
  0
CIRCLE
  5
10056
330
1F
100
AcDbEntity
  8
0
100
AcDbCircle
 10
27.01147429557244
 20
237.835945491501
 30
0.0
 40
1.100000000000001
  0
CIRCLE
  5
10057
330
1F
100
AcDbEntity
  8
0
100
AcDbCircle
 10
217.0069411894721
 20
204.2309454914671
 30
0.0
 40
3.454999999999993
  0
CIRCLE
  5
10058
330
1F
100
AcDbEntity
  8
0
100
AcDbCircle
 10
118.3069411894722
 20
203.4409454914672
 30
0.0
 40
2.649999999999986
  0
CIRCLE
  5
10059
330
1F
100
AcDbEntity
  8
0
100
AcDbCircle
 10
118.3069411894722
 20
53.44094549146672
 30
0.0
 40
2.4
  0
CIRCLE
  5
1005A
330
1F
100
AcDbEntity
  8
0
100
AcDbCircle
 10
217.0069411894721
 20
54.23094549146737
 30
0.0
 40
3.454999999999993
  0
ENDSEC
  0
SECTION
  2
OBJECTS
  0
DICTIONARY
  5
C
330
0
100
AcDbDictionary
281
     1
  3
ACAD_GROUP
350
D
  3
ACAD_IMAGE_VARS
350
10049
  3
ACAD_LAYOUT
350
10025
  3
ACAD_MLINESTYLE
350
17
  3
ACAD_SCALELIST
350
10003
  3
APPDATA
350
10047
  3
DWGPROPS
350
1005D
  0
DICTIONARY
  5
D
330
C
100
AcDbDictionary
281
     1
  0
RASTERVARIABLES
  5
10049
102
{ACAD_REACTORS
330
C
102
}
330
C
100
AcDbRasterVariables
 90
        0
 70
     1
 71
     1
 72
     1
  0
DICTIONARY
  5
10025
102
{ACAD_REACTORS
330
C
102
}
330
C
100
AcDbDictionary
281
     1
  3
Model
350
10026
  3
Sheet 1
350
10027
  0
DICTIONARY
  5
17
330
C
100
AcDbDictionary
281
     1
  3
Standard
350
10002
  0
DICTIONARY
  5
10003
102
{ACAD_REACTORS
330
C
102
}
330
C
100
AcDbDictionary
281
     1
  3
A0
350
10004
  3
A1
350
10005
  3
A2
350
10006
  3
A3
350
10007
  3
A4
350
10008
  3
A5
350
10009
  3
A6
350
1000A
  3
A7
350
1000B
  3
A8
350
1000C
  3
A9
350
1000D
  3
B0
350
1000E
  3
B1
350
1000F
  3
B2
350
10010
  3
B3
350
10011
  3
B4
350
10012
  3
B5
350
10013
  3
B6
350
10014
  3
B7
350
10015
  3
B8
350
10016
  3
B9
350
10017
  3
C0
350
10018
  3
C1
350
10019
  3
C2
350
1001A
  3
C3
350
1001B
  3
C4
350
1001C
  3
C5
350
1001D
  3
C6
350
1001E
  3
C7
350
1001F
  3
C8
350
10020
  3
C9
350
10021
  3
D0
350
10022
  3
D1
350
10023
  3
D2
350
10024
  0
DICTIONARY
  5
10047
102
{ACAD_REACTORS
330
C
102
}
330
C
100
AcDbDictionary
281
     1
  0
XRECORD
  5
1005D
102
{ACAD_REACTORS
330
C
102
}
330
C
100
AcDbXrecord
280
     1
  1
DWGPROPS COOKIE
  2

  3

  4

  6

  7

  8
joe
  9

300
=
301
=
302
=
303
=
304
=
305
=
306
=
307
=
308
=
309
=
 40
0.0
 41
0.0
 42
2457398.926399444
  1

 90
        0
  0
LAYOUT
  5
10026
102
{ACAD_REACTORS
330
10025
102
}
330
10025
100
AcDbPlotSettings
  1

  2
none_device
  4
Letter_(8.50_x_11.00_Inches)
  6

 40
6.35
 41
6.35
 42
6.35
 43
6.35
 44
215.9
 45
279.4
 46
0.0
 47
0.0
 48
0.0
 49
0.0
140
0.0
141
0.0
142
1.0
143
2.21959459445662
 70
  1712
 72
     0
 73
     0
 74
     0
  7

 75
     0
147
0.4505327245333333
148
-39.40881537143161
149
0.0
100
AcDbLayout
  1
Model
 70
     1
 71
     0
 10
0.0
 20
0.0
 11
12.0
 21
9.0
 12
0.0
 22
0.0
 32
0.0
 14
75.52640379879139
 24
-245.8937288909848
 34
0.0
 15
389.5264037987914
 25
-5.893728890984764
 35
0.0000000000000089
146
0.0
 13
0.0
 23
0.0
 33
0.0
 16
1.0
 26
0.0
 36
0.0
 17
0.0
 27
1.0
 37
0.0
 76
     0
330
1F
331
10001
  0
LAYOUT
  5
10027
102
{ACAD_REACTORS
330
10025
102
}
330
10025
100
AcDbPlotSettings
  1

  2
none_device
  4

  6

 40
0.0
 41
0.0
 42
0.0
 43
0.0
 44
0.0
 45
0.0
 46
0.0
 47
0.0
 48
0.0
 49
0.0
140
0.0
141
0.0
142
1.0
143
1.0
 70
   688
 72
     0
 73
     0
 74
     5
  7

 75
    16
147
1.0
148
0.0
149
0.0
100
AcDbLayout
  1
Sheet 1
 70
     1
 71
     1
 10
0.0
 20
0.0
 11
0.0
 21
0.0
 12
0.0
 22
0.0
 32
0.0
 14
1.000000000000000E+20
 24
1.000000000000000E+20
 34
1.000000000000000E+20
 15
-1.000000000000000E+20
 25
-1.000000000000000E+20
 35
-1.000000000000000E+20
146
0.0
 13
0.0
 23
0.0
 33
0.0
 16
1.0
 26
0.0
 36
0.0
 17
0.0
 27
1.0
 37
0.0
 76
     0
330
1B
  0
MLINESTYLE
  5
10002
102
{ACAD_REACTORS
330
17
102
}
330
17
100
AcDbMlineStyle
  2
Standard
 70
     0
  3

 62
   256
 51
90.0
 52
90.0
 71
     2
 49
0.5
 62
   256
  6
BYLAYER
 49
-0.5
 62
   256
  6
BYLAYER
  0
SCALE
  5
10004
102
{ACAD_REACTORS
330
10003
102
}
330
10003
100
AcDbScale
 70
     0
300
1:1
140
1.0
141
1.0
290
     1
  0
SCALE
  5
10005
102
{ACAD_REACTORS
330
10003
102
}
330
10003
100
AcDbScale
 70
     0
300
1:2
140
1.0
141
2.0
290
     0
  0
SCALE
  5
10006
102
{ACAD_REACTORS
330
10003
102
}
330
10003
100
AcDbScale
 70
     0
300
1:4
140
1.0
141
4.0
290
     0
  0
SCALE
  5
10007
102
{ACAD_REACTORS
330
10003
102
}
330
10003
100
AcDbScale
 70
     0
300
1:5
140
1.0
141
5.0
290
     0
  0
SCALE
  5
10008
102
{ACAD_REACTORS
330
10003
102
}
330
10003
100
AcDbScale
 70
     0
300
1:8
140
1.0
141
8.0
290
     0
  0
SCALE
  5
10009
102
{ACAD_REACTORS
330
10003
102
}
330
10003
100
AcDbScale
 70
     0
300
1:10
140
1.0
141
10.0
290
     0
  0
SCALE
  5
1000A
102
{ACAD_REACTORS
330
10003
102
}
330
10003
100
AcDbScale
 70
     0
300
1:16
140
1.0
141
16.0
290
     0
  0
SCALE
  5
1000B
102
{ACAD_REACTORS
330
10003
102
}
330
10003
100
AcDbScale
 70
     0
300
1:20
140
1.0
141
20.0
290
     0
  0
SCALE
  5
1000C
102
{ACAD_REACTORS
330
10003
102
}
330
10003
100
AcDbScale
 70
     0
300
1:30
140
1.0
141
30.0
290
     0
  0
SCALE
  5
1000D
102
{ACAD_REACTORS
330
10003
102
}
330
10003
100
AcDbScale
 70
     0
300
1:40
140
1.0
141
40.0
290
     0
  0
SCALE
  5
1000E
102
{ACAD_REACTORS
330
10003
102
}
330
10003
100
AcDbScale
 70
     0
300
1:50
140
1.0
141
50.0
290
     0
  0
SCALE
  5
1000F
102
{ACAD_REACTORS
330
10003
102
}
330
10003
100
AcDbScale
 70
     0
300
1:100
140
1.0
141
100.0
290
     0
  0
SCALE
  5
10010
102
{ACAD_REACTORS
330
10003
102
}
330
10003
100
AcDbScale
 70
     0
300
2:1
140
2.0
141
1.0
290
     0
  0
SCALE
  5
10011
102
{ACAD_REACTORS
330
10003
102
}
330
10003
100
AcDbScale
 70
     0
300
4:1
140
4.0
141
1.0
290
     0
  0
SCALE
  5
10012
102
{ACAD_REACTORS
330
10003
102
}
330
10003
100
AcDbScale
 70
     0
300
8:1
140
8.0
141
1.0
290
     0
  0
SCALE
  5
10013
102
{ACAD_REACTORS
330
10003
102
}
330
10003
100
AcDbScale
 70
     0
300
10:1
140
10.0
141
1.0
290
     0
  0
SCALE
  5
10014
102
{ACAD_REACTORS
330
10003
102
}
330
10003
100
AcDbScale
 70
     0
300
100:1
140
100.0
141
1.0
290
     0
  0
SCALE
  5
10015
102
{ACAD_REACTORS
330
10003
102
}
330
10003
100
AcDbScale
 70
     0
300
1/128" = 1'-0"
140
0.0078125
141
12.0
290
     0
  0
SCALE
  5
10016
102
{ACAD_REACTORS
330
10003
102
}
330
10003
100
AcDbScale
 70
     0
300
1/64" = 1'-0"
140
0.015625
141
12.0
290
     0
  0
SCALE
  5
10017
102
{ACAD_REACTORS
330
10003
102
}
330
10003
100
AcDbScale
 70
     0
300
1/32" = 1'-0"
140
0.03125
141
12.0
290
     0
  0
SCALE
  5
10018
102
{ACAD_REACTORS
330
10003
102
}
330
10003
100
AcDbScale
 70
     0
300
1/16" = 1'-0"
140
0.0625
141
12.0
290
     0
  0
SCALE
  5
10019
102
{ACAD_REACTORS
330
10003
102
}
330
10003
100
AcDbScale
 70
     0
300
3/32" = 1'-0"
140
0.09375
141
12.0
290
     0
  0
SCALE
  5
1001A
102
{ACAD_REACTORS
330
10003
102
}
330
10003
100
AcDbScale
 70
     0
300
1/8" = 1'-0"
140
0.125
141
12.0
290
     0
  0
SCALE
  5
1001B
102
{ACAD_REACTORS
330
10003
102
}
330
10003
100
AcDbScale
 70
     0
300
3/16" = 1'-0"
140
0.1875
141
12.0
290
     0
  0
SCALE
  5
1001C
102
{ACAD_REACTORS
330
10003
102
}
330
10003
100
AcDbScale
 70
     0
300
1/4" = 1'-0"
140
0.25
141
12.0
290
     0
  0
SCALE
  5
1001D
102
{ACAD_REACTORS
330
10003
102
}
330
10003
100
AcDbScale
 70
     0
300
3/8" = 1'-0"
140
0.375
141
12.0
290
     0
  0
SCALE
  5
1001E
102
{ACAD_REACTORS
330
10003
102
}
330
10003
100
AcDbScale
 70
     0
300
1/2" = 1'-0"
140
0.5
141
12.0
290
     0
  0
SCALE
  5
1001F
102
{ACAD_REACTORS
330
10003
102
}
330
10003
100
AcDbScale
 70
     0
300
3/4" = 1'-0"
140
0.75
141
12.0
290
     0
  0
SCALE
  5
10020
102
{ACAD_REACTORS
330
10003
102
}
330
10003
100
AcDbScale
 70
     0
300
1" = 1'-0"
140
1.0
141
12.0
290
     0
  0
SCALE
  5
10021
102
{ACAD_REACTORS
330
10003
102
}
330
10003
100
AcDbScale
 70
     0
300
1-1/2" = 1'-0"
140
1.5
141
12.0
290
     0
  0
SCALE
  5
10022
102
{ACAD_REACTORS
330
10003
102
}
330
10003
100
AcDbScale
 70
     0
300
3" = 1'-0"
140
3.0
141
12.0
290
     0
  0
SCALE
  5
10023
102
{ACAD_REACTORS
330
10003
102
}
330
10003
100
AcDbScale
 70
     0
300
6" = 1'-0"
140
6.0
141
12.0
290
     0
  0
SCALE
  5
10024
102
{ACAD_REACTORS
330
10003
102
}
330
10003
100
AcDbScale
 70
     0
300
1'-0" = 1'-0"
140
12.0
141
12.0
290
     0
  0
ENDSEC
  0
EOF
