0
SECTION
2
HEADER
9
$INSUNITS
70
4
9
$ACADVER
1
AC1014
9
$HANDSEED
5
FFFF
0
ENDSEC
0
SECTION
2
TABLES
0
TABLE
2
VPORT
5
8
100
AcDbSymbolTable
0
ENDTAB
0
TABLE
2
LTYPE
5
5
100
AcDbSymbolTable
0
LTYPE
5
14
100
AcDbSymbolTableRecord
100
AcDbLinetypeTableRecord
2
BYBLOCK
70
0
0
LTYPE
5
15
100
AcDbSymbolTableRecord
100
AcDbLinetypeTableRecord
2
BYLAYER
70
0
0
ENDTAB
0
TABLE
2
LAYER
5
2
100
AcDbSymbolTable
70
2
0
LAYER
5
50
100
AcDbSymbolTableRecord
100
AcDbLayerTableRecord
2
0
70
0
6
CONTINUOUS
0
ENDTAB
0
TABLE
2
STYLE
5
3
100
AcDbSymbolTable
70
1
0
STYLE
5
11
100
AcDbSymbolTableRecord
100
AcDbTextStyleTableRecord
2
STANDARD
70
0
0
ENDTAB
0
TABLE
2
VIEW
5
6
100
AcDbSymbolTable
70
0
0
ENDTAB
0
TABLE
2
UCS
5
7
100
AcDbSymbolTable
70
0
0
ENDTAB
0
TABLE
2
APPID
5
9
100
AcDbSymbolTable
70
2
0
APPID
5
12
100
AcDbSymbolTableRecord
100
AcDbRegAppTableRecord
2
ACAD
70
0
0
ENDTAB
0
TABLE
2
DIMSTYLE
5
A
100
AcDbSymbolTable
70
1
0
ENDTAB
0
TABLE
2
BLOCK_RECORD
5
1
100
AcDbSymbolTable
70
1
0
BLOCK_RECORD
5
1F
100
AcDbSymbolTableRecord
100
AcDbBlockTableRecord
2
*MODEL_SPACE
0
BLOCK_RECORD
5
1B
100
AcDbSymbolTableRecord
100
AcDbBlockTableRecord
2
*PAPER_SPACE
0
ENDTAB
0
ENDSEC
0
SECTION
2
BLOCKS
0
BLOCK
5
20
100
AcDbEntity
100
AcDbBlockBegin
2
*MODEL_SPACE
0
ENDBLK
5
21
100
AcDbEntity
100
AcDbBlockEnd
0
BLOCK
5
1C
100
AcDbEntity
100
AcDbBlockBegin
2
*PAPER_SPACE
0
ENDBLK
5
1D
100
AcDbEntity
100
AcDbBlockEnd
0
ENDSEC
0
SECTION
2
ENTITIES
0
CIRCLE
5
100
100
AcDbEntity
8
0
100
AcDbCircle
10
34.50000000000081
20
350.62553637409712
30
0
40
1.6000000000000281
0
LWPOLYLINE
5
101
100
AcDbEntity
8
0
100
AcDbPolyline
90
12
70
1
43
0.0
10
77.762209119243408
20
359.25107274819777
42
-0.41421356237309764
10
81.762209119243394
20
355.25107274819788
10
81.762209119243394
20
343.25107274819788
42
-0.41421356237309631
10
77.762209119243394
20
339.25107274819788
10
48.564975015174873
20
339.25107274819788
42
0.51177253874975293
10
40.025511407202082
20
327.40896766778496
42
-1.0370942658992466
10
20.844293336898826
20
321.79196728044275
42
0.36765236976477561
10
-0.277695151179434
20
336.79825868748736
42
-1.0909249790747058
10
-0.27769515117956667
20
361.7038875805116
42
0.36765236976483323
10
20.84429333690445
20
376.71017898758623
42
-1.0370942881075655
10
40.025511272042358
20
371.09317819411223
42
0.51177255225266438
10
48.564974758368862
20
359.25107274819788
0
CIRCLE
5
102
100
AcDbEntity
8
0
100
AcDbCircle
10
75.762209119243394
20
349.25107274819788
30
0
40
2.5
0
CIRCLE
5
103
100
AcDbEntity
8
0
100
AcDbCircle
10
53.762209119243387
20
349.25107274819788
30
0
40
2.4999999999999822
0
ARC
5
104
100
AcDbEntity
8
0
100
AcDbCircle
10
1.4584429917707276
20
316.87375557329779
30
0
40
28.582404499977709
100
AcDbArc
50
38.809368818372398
51
73.496678749192512
0
ARC
5
105
100
AcDbEntity
8
0
100
AcDbCircle
10
11.051082902949647
20
349.25107313395597
30
0
40
5.1860635269969189
100
AcDbArc
50
106.50332125074068
51
253.49667874919245
0
ARC
5
106
100
AcDbEntity
8
0
100
AcDbCircle
10
1.4584429917772757
20
381.62839069473091
30
0
40
28.582404500094309
100
AcDbArc
50
286.50332125074056
51
321.19063118144391
0
ARC
5
107
100
AcDbEntity
8
0
100
AcDbCircle
10
24.572707620453205
20
363.03782110822448
30
0
40
1.0803416114038122
100
AcDbArc
50
-20.3406375405396
51
141.19063118144715
0
ARC
5
108
100
AcDbEntity
8
0
100
AcDbCircle
10
61.762208810347218
20
349.25107274819788
30
0
40
38.582404499977741
100
AcDbArc
50
159.65944598978592
51
200.34055524041457
0
ARC
5
109
100
AcDbEntity
8
0
100
AcDbCircle
10
24.572707620453205
20
335.46432515968746
30
0
40
1.0803416114523372
100
AcDbArc
50
-141.19063118162927
51
20.340555240410836
0
CIRCLE
5
110
100
AcDbEntity
8
0
100
AcDbCircle
10
-1.3627814905370763
20
349.25107313399951
30
0
40
3.6000000000000103
0
CIRCLE
5
111
100
AcDbEntity
8
0
100
AcDbCircle
10
30.537218509462861
20
374.25107313401526
30
0
40
2.5
0
CIRCLE
5
112
100
AcDbEntity
8
0
100
AcDbCircle
10
30.53721850946097
20
324.25107313399513
30
0
40
2.5000000000000089
0
CIRCLE
5
113
100
AcDbEntity
8
0
100
AcDbCircle
10
34.50000000000081
20
350.62553637409712
30
0
40
1.6000000000000281
0
LWPOLYLINE
5
114
100
AcDbEntity
8
0
100
AcDbPolyline
90
12
70
1
43
0.0
10
77.762209119243408
20
359.25107274819788
42
-0.41421356237309437
10
81.762209119243394
20
355.25107274819788
10
81.76220911924338
20
343.25107274819788
42
-0.41421356237309503
10
77.762209119243394
20
339.25107274819788
10
48.564975015174873
20
339.25107274819788
42
0.51177253874975315
10
40.025511407202089
20
327.40896766778496
42
-1.0370942658992457
10
20.844293336898826
20
321.79196728044275
42
0.36765236976477544
10
-0.27769515117939819
20
336.79825868748736
42
-1.0909249790747078
10
-0.27769515117955806
20
361.7038875805116
42
0.36765236976483445
10
20.844293336904471
20
376.71017898758623
42
-1.0370942881075655
10
40.025511272042344
20
371.09317819411223
42
0.51177255225266383
10
48.564974758368855
20
359.25107274819788
0
CIRCLE
5
115
100
AcDbEntity
8
0
100
AcDbCircle
10
75.762209119243394
20
349.25107274819788
30
0
40
2.5
0
CIRCLE
5
116
100
AcDbEntity
8
0
100
AcDbCircle
10
53.762209119243387
20
349.25107274819788
30
0
40
2.4999999999999822
0
ARC
5
117
100
AcDbEntity
8
0
100
AcDbCircle
10
1.4584429917707451
20
316.87375557329779
30
0
40
28.582404499977692
100
AcDbArc
50
38.809368818372427
51
73.49667874919254
0
ARC
5
118
100
AcDbEntity
8
0
100
AcDbCircle
10
24.572707620453194
20
335.46432515968746
30
0
40
1.0803416114523303
100
AcDbArc
50
-141.1906311816289
51
20.340555240410907
0
ARC
5
119
100
AcDbEntity
8
0
100
AcDbCircle
10
61.762208810347218
20
349.25107274819788
30
0
40
38.582404499977748
100
AcDbArc
50
159.65944598978592
51
200.34055524041457
0
ARC
5
120
100
AcDbEntity
8
0
100
AcDbCircle
10
24.572707620453194
20
363.03782110822453
30
0
40
1.0803416114038369
100
AcDbArc
50
-20.34063754054235
51
141.19063118144538
0
ARC
5
121
100
AcDbEntity
8
0
100
AcDbCircle
10
1.4584429917772943
20
381.62839069473085
30
0
40
28.582404500094238
100
AcDbArc
50
286.50332125074056
51
321.19063118144408
0
ARC
5
122
100
AcDbEntity
8
0
100
AcDbCircle
10
11.051082902949634
20
349.25107313395597
30
0
40
5.1860635269969144
100
AcDbArc
50
106.50332125074054
51
253.49667874919265
0
CIRCLE
5
123
100
AcDbEntity
8
0
100
AcDbCircle
10
-1.3627814905370763
20
349.25107313399951
30
0
40
3.6000000000000103
0
CIRCLE
5
124
100
AcDbEntity
8
0
100
AcDbCircle
10
30.537218509462861
20
374.25107313401526
30
0
40
2.5
0
CIRCLE
5
125
100
AcDbEntity
8
0
100
AcDbCircle
10
30.53721850946097
20
324.25107313399513
30
0
40
2.5000000000000089
0
ENDSEC
0
SECTION
2
OBJECTS
0
DICTIONARY
5
C
100
AcDbDictionary
3
ACAD_GROUP
350
D
3
ACAD_MLINESTYLE
350
17
0
DICTIONARY
5
D
100
AcDbDictionary
0
DICTIONARY
5
1A
330
C
100
AcDbDictionary
0
DICTIONARY
5
17
100
AcDbDictionary
0
ENDSEC
0
EOF
