  0
SECTION
  2
HEADER
  9
$ACADVER
  1
AC1015
  9
$ACADMAINTVER
 70
     6
  9
$DWGCODEPAGE
  3
ANSI_1252
  9
$INSBASE
 10
0.0
 20
0.0
 30
0.0
  9
$EXTMIN
 10
1.000000000000000E+20
 20
1.000000000000000E+20
 30
1.000000000000000E+20
  9
$EXTMAX
 10
-1.000000000000000E+20
 20
-1.000000000000000E+20
 30
-1.000000000000000E+20
  9
$LIMMIN
 10
0.0
 20
0.0
  9
$LIMMAX
 10
420.0
 20
297.0
  9
$ORTHOMODE
 70
     0
  9
$REGENMODE
 70
     1
  9
$FILLMODE
 70
     1
  9
$QTEXTMODE
 70
     0
  9
$MIRRTEXT
 70
     0
  9
$LTSCALE
 40
1.0
  9
$ATTMODE
 70
     1
  9
$TEXTSIZE
 40
2.5
  9
$TRACEWID
 40
1.0
  9
$TEXTSTYLE
  7
Standard
  9
$CLAYER
  8
0
  9
$CELTYPE
  6
ByLayer
  9
$CECOLOR
 62
   256
  9
$CELTSCALE
 40
1.0
  9
$DISPSILH
 70
     0
  9
$DIMSCALE
 40
1.0
  9
$DIMASZ
 40
2.5
  9
$DIMEXO
 40
0.625
  9
$DIMDLI
 40
3.75
  9
$DIMRND
 40
0.0
  9
$DIMDLE
 40
0.0
  9
$DIMEXE
 40
1.25
  9
$DIMTP
 40
0.0
  9
$DIMTM
 40
0.0
  9
$DIMTXT
 40
2.5
  9
$DIMCEN
 40
2.5
  9
$DIMTSZ
 40
0.0
  9
$DIMTOL
 70
     0
  9
$DIMLIM
 70
     0
  9
$DIMTIH
 70
     0
  9
$DIMTOH
 70
     0
  9
$DIMSE1
 70
     0
  9
$DIMSE2
 70
     0
  9
$DIMTAD
 70
     1
  9
$DIMZIN
 70
     8
  9
$DIMBLK
  1

  9
$DIMASO
 70
     1
  9
$DIMSHO
 70
     1
  9
$DIMPOST
  1

  9
$DIMAPOST
  1

  9
$DIMALT
 70
     0
  9
$DIMALTD
 70
     3
  9
$DIMALTF
 40
0.03937007874016
  9
$DIMLFAC
 40
1.0
  9
$DIMTOFL
 70
     1
  9
$DIMTVP
 40
0.0
  9
$DIMTIX
 70
     0
  9
$DIMSOXD
 70
     0
  9
$DIMSAH
 70
     0
  9
$DIMBLK1
  1

  9
$DIMBLK2
  1

  9
$DIMSTYLE
  2
ISO-25
  9
$DIMCLRD
 70
     0
  9
$DIMCLRE
 70
     0
  9
$DIMCLRT
 70
     0
  9
$DIMTFAC
 40
1.0
  9
$DIMGAP
 40
0.625
  9
$DIMJUST
 70
     0
  9
$DIMSD1
 70
     0
  9
$DIMSD2
 70
     0
  9
$DIMTOLJ
 70
     0
  9
$DIMTZIN
 70
     8
  9
$DIMALTZ
 70
     0
  9
$DIMALTTZ
 70
     0
  9
$DIMUPT
 70
     0
  9
$DIMDEC
 70
     2
  9
$DIMTDEC
 70
     2
  9
$DIMALTU
 70
     2
  9
$DIMALTTD
 70
     3
  9
$DIMTXSTY
  7
Standard
  9
$DIMAUNIT
 70
     0
  9
$DIMADEC
 70
     0
  9
$DIMALTRND
 40
0.0
  9
$DIMAZIN
 70
     0
  9
$DIMDSEP
 70
    44
  9
$DIMATFIT
 70
     3
  9
$DIMFRAC
 70
     0
  9
$DIMLDRBLK
  1

  9
$DIMLUNIT
 70
     2
  9
$DIMLWD
 70
    -2
  9
$DIMLWE
 70
    -2
  9
$DIMTMOVE
 70
     0
  9
$LUNITS
 70
     2
  9
$LUPREC
 70
     3
  9
$SKETCHINC
 40
1.0
  9
$FILLETRAD
 40
10.0
  9
$AUNITS
 70
     0
  9
$AUPREC
 70
     0
  9
$MENU
  1
.
  9
$ELEVATION
 40
0.0
  9
$PELEVATION
 40
0.0
  9
$THICKNESS
 40
0.0
  9
$LIMCHECK
 70
     0
  9
$CHAMFERA
 40
10.0
  9
$CHAMFERB
 40
10.0
  9
$CHAMFERC
 40
20.0
  9
$CHAMFERD
 40
0.0
  9
$SKPOLY
 70
     0
  9
$TDCREATE
 40
2455022.387359514
  9
$TDUCREATE
 40
2455022.637359514
  9
$TDUPDATE
 40
2457439.629674085
  9
$TDUUPDATE
 40
2457439.879674085
  9
$TDINDWG
 40
0.0006795139
  9
$TDUSRTIMER
 40
2457439.8789939
  9
$USRTIMER
 70
     1
  9
$ANGBASE
 50
0.0
  9
$ANGDIR
 70
     0
  9
$PDMODE
 70
     0
  9
$PDSIZE
 40
0.0
  9
$PLINEWID
 40
0.0
  9
$SPLFRAME
 70
     0
  9
$SPLINETYPE
 70
     6
  9
$SPLINESEGS
 70
     8
  9
$HANDSEED
  5
10A
  9
$SURFTAB1
 70
     6
  9
$SURFTAB2
 70
     6
  9
$SURFTYPE
 70
     6
  9
$SURFU
 70
     6
  9
$SURFV
 70
     6
  9
$UCSBASE
  2

  9
$UCSNAME
  2

  9
$UCSORG
 10
0.0
 20
0.0
 30
0.0
  9
$UCSXDIR
 10
1.0
 20
0.0
 30
0.0
  9
$UCSYDIR
 10
0.0
 20
1.0
 30
0.0
  9
$UCSORTHOREF
  2

  9
$UCSORTHOVIEW
 70
     0
  9
$UCSORGTOP
 10
0.0
 20
0.0
 30
0.0
  9
$UCSORGBOTTOM
 10
0.0
 20
0.0
 30
0.0
  9
$UCSORGLEFT
 10
0.0
 20
0.0
 30
0.0
  9
$UCSORGRIGHT
 10
0.0
 20
0.0
 30
0.0
  9
$UCSORGFRONT
 10
0.0
 20
0.0
 30
0.0
  9
$UCSORGBACK
 10
0.0
 20
0.0
 30
0.0
  9
$PUCSBASE
  2

  9
$PUCSNAME
  2

  9
$PUCSORG
 10
0.0
 20
0.0
 30
0.0
  9
$PUCSXDIR
 10
1.0
 20
0.0
 30
0.0
  9
$PUCSYDIR
 10
0.0
 20
1.0
 30
0.0
  9
$PUCSORTHOREF
  2

  9
$PUCSORTHOVIEW
 70
     0
  9
$PUCSORGTOP
 10
0.0
 20
0.0
 30
0.0
  9
$PUCSORGBOTTOM
 10
0.0
 20
0.0
 30
0.0
  9
$PUCSORGLEFT
 10
0.0
 20
0.0
 30
0.0
  9
$PUCSORGRIGHT
 10
0.0
 20
0.0
 30
0.0
  9
$PUCSORGFRONT
 10
0.0
 20
0.0
 30
0.0
  9
$PUCSORGBACK
 10
0.0
 20
0.0
 30
0.0
  9
$USERI1
 70
     0
  9
$USERI2
 70
     0
  9
$USERI3
 70
     0
  9
$USERI4
 70
     0
  9
$USERI5
 70
     0
  9
$USERR1
 40
0.0
  9
$USERR2
 40
0.0
  9
$USERR3
 40
0.0
  9
$USERR4
 40
0.0
  9
$USERR5
 40
0.0
  9
$WORLDVIEW
 70
     1
  9
$SHADEDGE
 70
     3
  9
$SHADEDIF
 70
    70
  9
$TILEMODE
 70
     1
  9
$MAXACTVP
 70
    64
  9
$PINSBASE
 10
0.0
 20
0.0
 30
0.0
  9
$PLIMCHECK
 70
     0
  9
$PEXTMIN
 10
1.000000000000000E+20
 20
1.000000000000000E+20
 30
1.000000000000000E+20
  9
$PEXTMAX
 10
-1.000000000000000E+20
 20
-1.000000000000000E+20
 30
-1.000000000000000E+20
  9
$PLIMMIN
 10
0.0
 20
0.0
  9
$PLIMMAX
 10
0.0
 20
0.0
  9
$UNITMODE
 70
     0
  9
$VISRETAIN
 70
     1
  9
$PLINEGEN
 70
     0
  9
$PSLTSCALE
 70
     1
  9
$TREEDEPTH
 70
  3020
  9
$CMLSTYLE
  2
Standard
  9
$CMLJUST
 70
     0
  9
$CMLSCALE
 40
20.0
  9
$PROXYGRAPHICS
 70
     1
  9
$MEASUREMENT
 70
     1
  9
$CELWEIGHT
370
    -1
  9
$ENDCAPS
280
     0
  9
$JOINSTYLE
280
     0
  9
$LWDISPLAY
290
     0
  9
$INSUNITS
 70
     4
  9
$HYPERLINKBASE
  1

  9
$STYLESHEET
  1

  9
$XEDIT
290
     1
  9
$CEPSNTYPE
380
     0
  9
$PSTYLEMODE
290
     1
  9
$FINGERPRINTGUID
  2
{EC6BB858-51AA-46EC-B484-6C9CC7AB3E2E}
  9
$VERSIONGUID
  2
{FAEB1C32-E019-11D5-929B-00C0DF256EC4}
  9
$EXTNAMES
290
     1
  9
$PSVPSCALE
 40
0.0
  9
$OLESTARTUP
290
     0
  0
ENDSEC
  0
SECTION
  2
CLASSES
  0
CLASS
  1
ACDBDICTIONARYWDFLT
  2
AcDbDictionaryWithDefault
  3
ObjectDBX Classes
 90
        0
280
     0
281
     0
  0
CLASS
  1
VISUALSTYLE
  2
AcDbVisualStyle
  3
ObjectDBX Classes
 90
     4095
280
     0
281
     0
  0
CLASS
  1
TABLESTYLE
  2
AcDbTableStyle
  3
ObjectDBX Classes
 90
     4095
280
     0
281
     0
  0
CLASS
  1
DICTIONARYVAR
  2
AcDbDictionaryVar
  3
ObjectDBX Classes
 90
        0
280
     0
281
     0
  0
CLASS
  1
SCALE
  2
AcDbScale
  3
ObjectDBX Classes
 90
     1153
280
     0
281
     0
  0
CLASS
  1
CELLSTYLEMAP
  2
AcDbCellStyleMap
  3
ObjectDBX Classes
 90
     1152
280
     0
281
     0
  0
CLASS
  1
RASTERVARIABLES
  2
AcDbRasterVariables
  3
ISM
 90
        0
280
     0
281
     0
  0
CLASS
  1
MATERIAL
  2
AcDbMaterial
  3
ObjectDBX Classes
 90
     1153
280
     0
281
     0
  0
CLASS
  1
SUN
  2
AcDbSun
  3
SCENEOE
 90
     1153
280
     0
281
     0
  0
CLASS
  1
ACDBPLACEHOLDER
  2
AcDbPlaceHolder
  3
ObjectDBX Classes
 90
        0
280
     0
281
     0
  0
CLASS
  1
LAYOUT
  2
AcDbLayout
  3
ObjectDBX Classes
 90
        0
280
     0
281
     0
  0
ENDSEC
  0
SECTION
  2
TABLES
  0
TABLE
  2
VPORT
  5
8
330
0
100
AcDbSymbolTable
 70
     1
  0
VPORT
  5
29
330
8
100
AcDbSymbolTableRecord
100
AcDbViewportTableRecord
  2
*Active
 70
     0
 10
0.0
 20
0.0
 11
1.0
 21
1.0
 12
344.1869158878504
 22
148.5
 13
0.0
 23
0.0
 14
10.0
 24
10.0
 15
10.0
 25
10.0
 16
0.0
 26
0.0
 36
1.0
 17
-134.1869158878504
 27
0.0
 37
0.0
 40
385.2
 41
1.11214953271028
 42
50.0
 43
0.0
 44
0.0
 50
0.0
 51
0.0
 71
    16
 72
  1000
 73
     1
 74
     3
 75
     0
 76
     0
 77
     0
 78
     0
281
     0
 65
     1
110
0.0
120
0.0
130
0.0
111
1.0
121
0.0
131
0.0
112
0.0
122
1.0
132
0.0
 79
     0
146
0.0
  0
ENDTAB
  0
TABLE
  2
LTYPE
  5
5
330
0
100
AcDbSymbolTable
 70
     1
  0
LTYPE
  5
14
330
5
100
AcDbSymbolTableRecord
100
AcDbLinetypeTableRecord
  2
ByBlock
 70
     0
  3

 72
    65
 73
     0
 40
0.0
  0
LTYPE
  5
15
330
5
100
AcDbSymbolTableRecord
100
AcDbLinetypeTableRecord
  2
ByLayer
 70
     0
  3

 72
    65
 73
     0
 40
0.0
  0
LTYPE
  5
16
330
5
100
AcDbSymbolTableRecord
100
AcDbLinetypeTableRecord
  2
Continuous
 70
     0
  3
Solid line
 72
    65
 73
     0
 40
0.0
  0
ENDTAB
  0
TABLE
  2
LAYER
  5
2
330
0
100
AcDbSymbolTable
 70
     2
  0
LAYER
  5
10
330
2
100
AcDbSymbolTableRecord
100
AcDbLayerTableRecord
  2
0
 70
     0
 62
     7
  6
Continuous
370
    -3
390
F
  0
LAYER
  5
B8
102
{ACAD_XDICTIONARY
360
B9
102
}
330
2
100
AcDbSymbolTableRecord
100
AcDbLayerTableRecord
  2
LAYER_1
 70
     0
 62
    18
  6
Continuous
370
    -3
390
F
  0
ENDTAB
  0
TABLE
  2
STYLE
  5
3
330
0
100
AcDbSymbolTable
 70
     1
  0
STYLE
  5
11
330
3
100
AcDbSymbolTableRecord
100
AcDbTextStyleTableRecord
  2
Standard
 70
     0
 40
0.0
 41
1.0
 50
0.0
 71
     0
 42
2.5
  3
arial.ttf
  4

1001
ACAD
1000
Arial
1071
        0
  0
ENDTAB
  0
TABLE
  2
VIEW
  5
6
330
0
100
AcDbSymbolTable
 70
     0
  0
ENDTAB
  0
TABLE
  2
UCS
  5
7
330
0
100
AcDbSymbolTable
 70
     0
  0
ENDTAB
  0
TABLE
  2
APPID
  5
9
330
0
100
AcDbSymbolTable
 70
     1
  0
APPID
  5
12
330
9
100
AcDbSymbolTableRecord
100
AcDbRegAppTableRecord
  2
ACAD
 70
     0
  0
ENDTAB
  0
TABLE
  2
DIMSTYLE
  5
A
330
0
100
AcDbSymbolTable
 70
     2
100
AcDbDimStyleTable
  0
DIMSTYLE
105
27
330
A
100
AcDbSymbolTableRecord
100
AcDbDimStyleTableRecord
  2
ISO-25
 70
     0
 41
2.5
 42
0.625
 43
3.75
 44
1.25
 73
     0
 74
     0
 77
     1
 78
     8
140
2.5
141
2.5
143
0.03937007874016
147
0.625
171
     3
172
     1
178
     0
271
     2
272
     2
274
     3
278
    44
283
     0
284
     8
340
11
  0
DIMSTYLE
105
BC
330
A
100
AcDbSymbolTableRecord
100
AcDbDimStyleTableRecord
  2
Standard
 70
     0
178
     0
340
11
  0
ENDTAB
  0
TABLE
  2
BLOCK_RECORD
  5
1
330
0
100
AcDbSymbolTable
 70
     2
  0
BLOCK_RECORD
  5
1F
330
1
100
AcDbSymbolTableRecord
100
AcDbBlockTableRecord
  2
*Model_Space
340
22
  0
BLOCK_RECORD
  5
1B
330
1
100
AcDbSymbolTableRecord
100
AcDbBlockTableRecord
  2
*Paper_Space
340
1E
  0
BLOCK_RECORD
  5
23
330
1
100
AcDbSymbolTableRecord
100
AcDbBlockTableRecord
  2
*Paper_Space0
340
26
  0
ENDTAB
  0
ENDSEC
  0
SECTION
  2
BLOCKS
  0
BLOCK
  5
20
330
1F
100
AcDbEntity
  8
0
100
AcDbBlockBegin
  2
*Model_Space
 70
     0
 10
0.0
 20
0.0
 30
0.0
  3
*Model_Space
  1
*Model_Space
  0
ENDBLK
  5
21
330
1F
100
AcDbEntity
  8
0
100
AcDbBlockEnd
  0
BLOCK
  5
1C
330
1B
100
AcDbEntity
 67
     1
  8
0
100
AcDbBlockBegin
  2
*Paper_Space
 70
     0
 10
0.0
 20
0.0
 30
0.0
  3
*Paper_Space
  1
*Paper_Space
  0
ENDBLK
  5
1D
330
1B
100
AcDbEntity
 67
     1
  8
0
100
AcDbBlockEnd
  0
BLOCK
  5
24
330
23
100
AcDbEntity
  8
0
100
AcDbBlockBegin
  2
*Paper_Space0
 70
     0
 10
0.0
 20
0.0
 30
0.0
  3
*Paper_Space0
  1
*Paper_Space0
  0
ENDBLK
  5
25
330
23
100
AcDbEntity
  8
0
100
AcDbBlockEnd
  0
ENDSEC
  0
SECTION
  2
ENTITIES
  0
LWPOLYLINE
  5
F4
330
1F
100
AcDbEntity
  8
0
 62
     7
100
AcDbPolyline
 90
        4
 70
     1
 43
0.0
 10
20.7288933124689
 20
32.01009115674572
 42
0.4142135623730951
 10
20.06052197000983
 20
31.34171981428665
 42
0.4142135623730951
 10
20.7288933124689
 20
30.67334847182667
 42
0.4142135623730951
 10
21.39726465492797
 20
31.34171981428665
 42
0.4142135623730951
  0
LWPOLYLINE
  5
F5
330
1F
100
AcDbEntity
  8
0
 62
     7
100
AcDbPolyline
 90
        4
 70
     1
 43
0.0
 10
24.18428587532819
 20
22.64213798632738
 42
0.4142135623730951
 10
23.51591453286912
 20
21.97376664386832
 42
0.4142135623730951
 10
24.18428587532819
 20
21.30539530140925
 42
0.4142135623730951
 10
24.85265721778725
 20
21.97376664386832
 42
0.4142135623730951
  0
LWPOLYLINE
  5
F6
330
1F
100
AcDbEntity
  8
0
 62
     7
100
AcDbPolyline
 90
        4
 70
     1
 43
0.0
 10
25.79680240466243
 20
29.86006911763309
 42
0.4142135623730951
 10
25.12843106220336
 20
29.19169777517402
 42
0.4142135623730951
 10
25.79680240466243
 20
28.52332643271495
 42
0.4142135623730951
 10
26.4651737471215
 20
29.19169777517402
 42
0.4142135623730951
  0
LWPOLYLINE
  5
F7
330
1F
100
AcDbEntity
  8
0
 62
     7
100
AcDbPolyline
 90
        4
 70
     1
 43
0.0
 10
30.17363298428401
 20
26.07193504872123
 42
0.4142135623730951
 10
29.50526164182494
 20
25.40356370626216
 42
0.4142135623730951
 10
30.17363298428401
 20
24.73519236380218
 42
0.4142135623730951
 10
30.84200432674308
 20
25.40356370626216
 42
0.4142135623730951
  0
LWPOLYLINE
  5
F8
330
1F
100
AcDbEntity
  8
0
 62
     7
100
AcDbPolyline
 90
        4
 70
     1
 43
0.0
 10
28.86078521499141
 20
20.491477659422
 42
0.4142135623730951
 10
28.19241387253234
 20
19.82310631696294
 42
0.4142135623730951
 10
28.86078521499141
 20
19.15473497450387
 42
0.4142135623730951
 10
29.52915655745093
 20
19.82310631696294
 42
0.4142135623730951
  0
LWPOLYLINE
  5
F9
330
1F
100
AcDbEntity
  8
0
 62
     7
100
AcDbPolyline
 90
        4
 70
     1
 43
0.0
 10
26.32171156880187
 20
16.70334359051014
 42
0.4142135623730951
 10
25.65334022634281
 20
16.03497224805108
 42
0.4142135623730951
 10
26.32171156880187
 20
15.3666009055911
 42
0.4142135623730951
 10
26.99008291126094
 20
16.03497224805108
 42
0.4142135623730951
  0
LWPOLYLINE
  5
FA
330
1F
100
AcDbEntity
  8
0
 62
     7
100
AcDbPolyline
 90
        4
 70
     1
 43
0.0
 10
22.88167630622203
 20
10.70375828136787
 42
0.4142135623730951
 10
22.21330496376297
 20
10.0353869389088
 42
0.4142135623730951
 10
22.88167630622203
 20
9.367015596448823
 42
0.4142135623730951
 10
23.5500476486811
 20
10.0353869389088
 42
0.4142135623730951
  0
LWPOLYLINE
  5
FB
330
1F
100
AcDbEntity
  8
0
 62
     7
100
AcDbPolyline
 90
        4
 70
     1
 43
0.0
 10
28.38982800642427
 20
11.13376268918967
 42
0.4142135623730951
 10
27.7214566639652
 20
10.4653913467306
 42
0.4142135623730951
 10
28.38982800642427
 20
9.79702000427244
 42
0.4142135623730951
 10
29.05819934888333
 20
10.4653913467306
 42
0.4142135623730951
  0
LWPOLYLINE
  5
FC
330
1F
100
AcDbEntity
  8
0
 62
     7
100
AcDbPolyline
 90
        4
 70
     1
 43
0.0
 10
30.0688928369693
 20
15.02427875996511
 42
0.4142135623730951
 10
29.40052149450977
 20
14.35590741750605
 42
0.4142135623730951
 10
30.0688928369693
 20
13.68753607504698
 42
0.4142135623730951
 10
30.73726417942837
 20
14.35590741750605
 42
0.4142135623730951
  0
LWPOLYLINE
  5
FD
330
1F
100
AcDbEntity
  8
0
 62
     7
100
AcDbPolyline
 90
        4
 70
     1
 43
0.0
 10
21.6196831569948
 20
6.005969124325588
 42
0.4142135623730951
 10
20.95131181453618
 20
5.337597781866521
 42
0.4142135623730951
 10
21.6196831569948
 20
4.669226439406543
 42
0.4142135623730951
 10
22.28805449945386
 20
5.337597781866521
 42
0.4142135623730951
  0
LWPOLYLINE
  5
FE
330
1F
100
AcDbEntity
  8
0
 62
     7
100
AcDbPolyline
 90
       12
 70
     1
 43
0.0
 10
24.68817354877658
 20
10.84584450966634
 10
26.77000371321739
 20
13.12684982779103
 10
26.9811805094466
 20
14.08833148314045
 10
27.42610038462018
 20
14.53325135831403
 42
0.7133184769099651
 10
26.37586748851183
 20
17.89827775803462
 42
0.7133184769099661
 10
25.13196736704614
 20
14.59992903561272
 10
25.65552374908449
 20
14.16586672694996
 10
25.65552374908449
 20
13.62764912346449
 10
23.8705382300511
 20
11.86518870360453
 10
23.23757768173638
 20
11.86518870360453
 42
0.7511164794321701
 10
21.60174500189325
 20
8.680168822377368
 42
0.7511164794321635
 10
24.68817354877658
 20
10.49517819569576
  0
LWPOLYLINE
  5
FF
330
1F
100
AcDbEntity
  8
0
 62
     7
100
AcDbPolyline
 90
       14
 70
     1
 43
0.0
 10
23.16347717304572
 20
6.382365853345277
 42
0.7507890877619531
 10
19.75639552034929
 20
5.282830361821311
 42
0.7507890877619446
 10
23.22217648108128
 20
4.385308207506228
 10
23.5018813109352
 20
4.690674717989737
 10
26.06495486137439
 20
4.690674717989737
 10
29.04124945016085
 20
7.679396370007112
 10
29.04124945016085
 20
8.594280977944095
 10
29.5117564440695
 20
8.976728568267959
 42
0.7457838416670193
 10
28.26423008685808
 20
12.32524764488301
 42
0.7457838416670194
 10
27.47823502205594
 20
8.83940287259395
 10
27.75144918308408
 20
8.581728752482036
 10
27.75144918308408
 20
8.148364977113147
 10
25.56681897636756
 20
5.980474985066053
 10
23.43545824243094
 20
5.980474985066053
  0
LWPOLYLINE
  5
100
330
1F
100
AcDbEntity
  8
0
 62
     7
100
AcDbPolyline
 90
       13
 70
     1
 43
0.0
 10
31.88520876910044
 20
24.6650864757363
 42
0.7943124583702978
 10
28.96290466430648
 20
26.82094764238502
 42
0.7943124583703016
 10
30.63551653821261
 20
23.59760028753283
 10
30.96374845930197
 20
23.61502148126203
 10
31.62084998431439
 20
23.02035277408197
 10
31.62084998431439
 20
16.72272200577447
 10
30.9193211092672
 20
16.01470579007912
 42
0.789515781606351
 10
28.56125828390688
 20
13.25960529601309
 42
0.7895157816063577
 10
31.90905794365719
 20
14.65361980774617
 10
31.881704821699
 20
15.16897873823439
 10
32.74942521800651
 20
16.0746836720233
 10
32.74942521800651
 20
23.61697204025916
 10
31.87540151543291
 20
24.5292562081064
  0
LWPOLYLINE
  5
101
330
1F
100
AcDbEntity
  8
0
 62
     7
100
AcDbPolyline
 90
       13
 70
     1
 43
0.0
 10
26.85912007557337
 20
27.65992708305077
 42
0.7497134787944042
 10
25.72590254909821
 20
31.05444131566912
 42
0.7497134787943966
 10
24.85399429492801
 20
27.5836078661838
 10
25.18293537205884
 20
27.27337649933418
 10
25.18293537205884
 20
25.15939360880441
 10
28.23512428323804
 20
22.35153873458478
 10
28.23512428323804
 20
21.73408805846941
 10
27.81667054228748
 20
21.36734232140645
 42
0.7987372914110468
 10
29.13717585954848
 20
17.97961818334863
 42
0.7987372914110465
 10
29.40612280337538
 20
21.60564585421673
 10
29.3636995169297
 20
22.99643886812339
 10
26.46164891600731
 20
25.88504374708066
 10
26.46165842510092
 20
27.34279190852487
  0
LWPOLYLINE
  5
102
330
1F
100
AcDbEntity
  8
0
 62
     7
100
AcDbPolyline
 90
       13
 70
     1
 43
0.0
 10
21.7039980872257
 20
29.75300619458596
 42
0.7681455111554631
 10
20.67494621173202
 20
33.20503138176502
 42
0.7681455111554693
 10
19.84733858606953
 20
29.69925168627253
 10
20.1738631049154
 20
29.43871734252355
 10
20.1738631049154
 20
27.9547550188787
 10
23.55959831508491
 20
24.60772762722684
 10
23.55959831508491
 20
23.88079321031876
 10
23.21837928642
 20
23.56808930527643
 42
0.8137939998221776
 10
24.43608508783265
 20
20.12675894389542
 42
0.8137939998221657
 10
24.68817354877658
 20
23.76846369343423
 10
24.68817354877658
 20
25.25262776076545
 10
21.30244784770068
 20
28.62683088936103
 10
21.30244784770068
 20
29.37102062845736
  0
LWPOLYLINE
  5
103
330
1F
100
AcDbEntity
  8
0
 62
     7
100
AcDbPolyline
 90
       37
 70
     1
 43
0.0
 10
18.20700053388711
 20
27.54728537709855
 42
0.4197408968946193
 10
8.406744415362683
 20
17.92989601437478
 42
0.4197408968946193
 10
18.20700053388711
 20
8.312506651651006
 10
18.20700053388711
 20
5.893788346823953
 42
-0.0090190520994639
 10
17.77277148249843
 20
5.895085531306563
 42
-0.2046878821568574
 10
16.16027532435848
 20
2.944829566108297
 10
15.1579521644596
 20
3.103980607767539
 42
-0.2046878821568598
 10
14.53862041238583
 20
6.408611041125027
 42
-0.0321461647499694
 10
13.09051410974391
 20
6.95067625046488
 42
-0.2046878821568574
 10
10.45344672738858
 20
4.86500375912749
 10
9.59298866008132
 20
5.403141924784563
 42
-0.204687882156861
 10
10.31411275486627
 20
8.687062471954619
 42
-0.0321461647499696
 10
9.192925625929293
 20
9.751856337842241
 42
-0.2046878821568572
 10
5.950555135391113
 20
8.862369001064167
 10
5.368766640993471
 20
9.69393554603596
 42
-0.2046878821568581
 10
7.315694851448571
 20
12.43503471672159
 42
-0.0321461647499698
 10
6.699684766460651
 20
13.85326535033585
 42
-0.2046878821568572
 10
3.367516602352879
 20
14.30138302049511
 10
3.1568964041073
 20
15.29416693606856
 42
-0.2046878821568588
 10
6.020086043418104
 20
17.05663656972013
 42
-0.0321461647499692
 10
6.007192626340583
 20
18.60281906694456
 42
-0.2046878821568588
 10
3.115009181717795
 20
20.31729538432194
 10
3.309043846675848
 20
21.31345366478001
 42
-0.2046878821568602
 10
6.633275554900793
 20
21.81707819777296
 42
-0.0321461647499698
 10
7.225548733895012
 20
23.24538455019558
 42
-0.2046878821568594
 10
5.233179102300909
 20
25.95363442258679
 10
5.801019002210268
 20
26.79478757094932
 42
-0.2046878821568587
 10
9.057772205743023
 20
25.95949559117219
 42
-0.0321461647499694
 10
10.16104629448657
 20
27.04283895319315
 42
-0.2046878821568582
 10
9.385257907604428
 20
30.31427693961052
 10
10.23662201034651
 20
30.86668977028296
 42
-0.2046878821568606
 10
12.90810456281881
 20
28.8252845944204
 42
-0.0321461647499695
 10
14.3469696905797
 20
29.39142388738821
 42
-0.204687882156858
 10
14.91110537141842
 20
32.7059231035297
 10
15.9106350487684
 20
32.8817673386535
 42
-0.2046878821568597
 10
17.57210715616358
 20
29.9588125739416
 42
-0.0131889112949197
 10
18.20700053388711
 20
29.9660036819256
  0
LWPOLYLINE
  5
104
330
1F
100
AcDbEntity
  8
LAYER_1
 62
     7
100
AcDbPolyline
 90
      112
 70
     1
 43
0.0
 10
17.54035029625877
 20
12.58565207788763
 10
21.28889455124019
 20
12.59029714222072
 10
21.48996189814963
 20
12.64755556462899
 10
21.55760516517077
 20
12.66792631150258
 10
21.62298359995813
 20
12.68986176317469
 10
21.68607157895642
 20
12.71334567963333
 10
21.74684347860941
 20
12.73836182086654
 10
21.80527367536089
 20
12.76489394685871
 10
21.86133654565558
 20
12.79292581760058
 10
21.91500646593769
 20
12.82244119307745
 10
21.96625781265058
 20
12.85342383327827
 10
22.01506496223848
 20
12.88585749819015
 10
22.06140229114609
 20
12.91972594779929
 10
22.10524417581766
 20
12.95501294209373
 10
22.14656499269606
 20
12.99170224106149
 10
22.18533911822598
 20
13.02977760468968
 10
22.22154092885214
 20
13.06922279296543
 10
22.25514480101876
 20
13.11002156587585
 10
22.28612511116873
 20
13.15215768340988
 10
22.36011236332999
 20
13.25892132291722
 10
22.48989600877096
 20
13.61594135595135
 10
22.51932601385371
 20
14.06756392171758
 10
22.43230403800473
 20
14.45771971496436
 10
22.30348640361782
 20
14.73520838415209
 10
20.89083124424971
 20
16.82522134968951
 10
19.60642144828054
 20
18.77183380490862
 10
19.38925221133351
 20
19.20171820344751
 10
19.32068575211835
 20
19.42081797054436
 10
19.30595316219089
 20
19.46966259994736
 10
19.29035502635108
 20
19.52457136957366
 10
19.2584579340257
 20
19.64510254157597
 10
19.22878610932841
 20
19.76745391070529
 10
19.21596955802326
 20
19.82463792673991
 10
19.20513118644541
 20
19.87666790111382
 10
19.15814307998764
 20
20.11341806458643
 10
19.15814307998764
 20
23.21747576344899
 10
19.2086251849025
 20
23.34900363204417
 10
19.22149393336232
 20
23.37998319783185
 10
19.23877280534381
 20
23.41769630930014
 10
19.25970654316436
 20
23.46068745629475
 10
19.28353988913952
 20
23.50750112866683
 10
19.3095175855876
 20
23.55668181626481
 10
19.33688437482462
 20
23.60677400893803
 10
19.36488499916888
 20
23.65632219653401
 10
19.3927642009364
 20
23.70387086890207
 10
19.52642111205589
 20
23.92721023716388
 10
19.52642111205589
 20
24.17210568808844
 10
19.47380996461808
 20
24.23110918636633
 10
19.46151381155798
 20
24.2436929949032
 10
19.44670276926601
 20
24.25684617323407
 10
19.42993981559968
 20
24.27017976499212
 10
19.41178792841467
 20
24.2833048138142
 10
19.39281008556574
 20
24.2958323633344
 10
19.37356926491086
 20
24.30737345718774
 10
19.35462844430478
 20
24.31753913901105
 10
19.33655060160456
 20
24.32594045243752
 10
19.2519023860302
 20
24.36176822023265
 10
15.67096476417211
 20
24.36176822023265
 10
15.49734896964012
 20
24.28922690947968
 10
15.37811871971573
 20
24.13817084361983
 10
15.40114949221535
 20
23.89582775705151
 10
15.52597122337485
 20
23.69555948711206
 10
15.55220795214265
 20
23.65249468768036
 10
15.57893209972437
 20
23.60683838510215
 10
15.6053980541935
 20
23.55998173092541
 10
15.63086020362127
 20
23.51331587670177
 10
15.65457293608117
 20
23.46823197397828
 10
15.67579063964487
 20
23.42612117430565
 10
15.69376770238498
 20
23.38837462923368
 10
15.70775851237406
 20
23.35638349031035
 10
15.76472407021467
 20
23.21747576344899
 10
15.76472407021467
 20
20.1397236383051
 10
15.71788543303248
 20
19.90978622380374
 10
15.70657080598741
 20
19.85808858950315
 10
15.69233125057983
 20
19.79921152684221
 10
15.67574184864245
 20
19.73520502096255
 10
15.65737768200799
 20
19.66811905700126
 10
15.63781383250964
 20
19.60000362009907
 10
15.61762538198056
 20
19.53290869539489
 10
15.59738741225394
 20
19.46888426802855
 10
15.57767500516295
 20
19.40998032313894
 10
15.48430321447515
 20
19.14011183697642
 10
15.25605098502567
 20
18.71922265746946
 10
13.81617852346128
 20
16.50955446505998
 10
12.64252846378005
 20
14.77495273344505
 10
12.58289457622843
 20
14.65579458478317
 10
12.55582040560941
 20
14.59811150190365
 10
12.52618692252847
 20
14.52913919975128
 10
12.4975807343105
 20
14.45753488908542
 10
12.47358844827906
 20
14.39195578066631
 10
12.4239162078795
 20
14.24727512521133
 10
12.42867143962732
 20
13.61594135595135
 10
12.54380484363466
 20
13.3002744713209
 10
12.72247955887653
 20
13.03082558203334
 10
12.83625362056975
 20
12.93848424674127
 10
12.87447289349777
 20
12.90854437156725
 10
12.91355310223273
 20
12.88008968448378
 10
12.95358873810867
 20
12.85308042104191
 10
12.99467429246144
 20
12.82747681678813
 10
13.03690425662464
 20
12.80323910727259
 10
13.08037312193321
 20
12.78032752804268
 10
13.12517537972164
 20
12.7587023146458
 10
13.17140552132443
 20
12.73832370263301
 10
13.21915803807608
 20
12.71915192755262
 10
13.26852742131106
 20
12.70114722495111
 10
13.3196081623648
 20
12.68426983037773
 10
13.37249475257087
 20
12.66847997938169
 10
13.42728168326377
 20
12.6537379075113
 10
13.48406344577845
 20
12.64000385031488
 10
13.54293453144939
 20
12.62723804334075
 10
13.60398943161155
 20
12.61540072213813
 10
13.79180604127689
 20
12.58100701355363
  0
LWPOLYLINE
  5
105
330
1F
100
AcDbEntity
  8
LAYER_1
 62
     7
100
AcDbPolyline
 90
       78
 70
     1
 43
0.0
 10
21.41051965514791
 20
13.54405717649263
 10
21.50517772878786
 20
13.60255908331203
 10
21.64351031294584
 20
13.802173067014
 10
21.67378698315198
 20
14.03683053545831
 10
21.59883372155375
 20
14.27917048467373
 10
20.28524904515572
 20
16.22019315414911
 10
18.87658724561626
 20
18.35094462540167
 10
18.59445466950567
 20
18.92966724722339
 10
18.51431538129711
 20
19.17937349515307
 10
18.49704092574095
 20
19.23517568698082
 10
18.47865171840041
 20
19.29813984913164
 10
18.44078926601898
 20
19.43692256802353
 10
18.42244612980195
 20
19.50842536657694
 10
18.40524845945239
 20
19.57845861907629
 10
18.38976130938246
 20
19.64486444642773
 10
18.37654973400433
 20
19.70548496953563
 10
18.3189233749201
 20
19.98189019599033
 10
18.30026524674733
 20
22.9544200262568
 10
18.37746525215536
 20
23.39631169379356
 10
18.36198654182792
 20
23.43842159721646
 10
18.35374937183789
 20
23.4562970544572
 10
18.34276380216008
 20
23.47383883739406
 10
18.33046383920393
 20
23.48903106834189
 10
18.32426908724912
 20
23.49511614004098
 10
18.31828348937708
 20
23.49985786961099
 10
18.29005914725505
 20
23.51918423858081
 10
16.62341315519026
 20
23.51998986121873
 10
16.54073849493008
 20
23.4373152009581
 10
16.54166258974212
 20
23.38000662964134
 10
16.54261585036258
 20
23.36500469086297
 10
16.54498907598256
 20
23.34426290378963
 10
16.55336321942079
 20
23.28930524632926
 10
16.56552061446175
 20
23.22262458040279
 10
16.58019685550855
 20
23.15171182915003
 10
16.6178070264634
 20
22.98072559997638
 10
16.61965521608747
 20
20.32248243344441
 10
16.5919592898733
 20
20.09957516727866
 10
16.58383560395961
 20
20.0374271392526
 10
16.57493975983809
 20
19.97552395156492
 10
16.56527451685017
 20
19.91387361809541
 10
16.55484263433911
 20
19.85248415271838
 10
16.54364687164545
 20
19.79136356930906
 10
16.53168998811245
 20
19.7305198817445
 10
16.51897474308291
 20
19.66996110390085
 10
16.50550389589827
 20
19.60969524965242
 10
16.49128020590044
 20
19.54973033287717
 10
16.47630643243176
 20
19.49007436745126
 10
16.46058533483503
 20
19.43073536724899
 10
16.44411967245216
 20
19.3717213461465
 10
16.42691220462549
 20
19.31304031802176
 10
16.40896569069693
 20
19.25470029674909
 10
16.39028289000836
 20
19.19670929620463
 10
16.37086656190306
 20
19.13907533026452
 10
16.35071946572199
 20
19.08180641280489
 10
16.32984436080889
 20
19.0249105577019
 10
16.30824400650474
 20
18.96839577883168
 10
16.28592116215188
 20
18.91227009006946
 10
16.26287858709313
 20
18.85654150529137
 10
16.23911904066992
 20
18.80121803837449
 10
16.21464528222461
 20
18.74630770319402
 10
16.1894600711
 20
18.69181851362521
 10
16.16356616663799
 20
18.6377584835451
 10
16.13696632818048
 20
18.58413562682983
 10
16.10966331507026
 20
18.53095795735464
 10
16.08165988664879
 20
18.47823348899567
 10
16.05295880225887
 20
18.42597023562905
 10
16.02356282124285
 20
18.37417621113093
 10
15.99347470294217
 20
18.32285942937744
 10
15.96269720670008
 20
18.27202790424383
 10
15.12907133065866
 20
16.98305479200428
 10
13.85678930827882
 20
15.06274791050475
 10
13.30484858428483
 20
14.24727512521133
 10
13.24432334376636
 20
13.95735846940408
 10
13.2818202124233
 20
13.7574829756328
 10
13.46342604526055
 20
13.55646702747038
 10
13.73919489383818
 20
13.43180233991609
 10
21.02583881404846
 20
13.42242656070505
 10
21.31586158150751
 20
13.48555526967323
  0
LWPOLYLINE
  5
106
330
1F
100
AcDbEntity
  8
LAYER_1
 62
     7
100
AcDbPolyline
 90
       18
 70
     1
 43
0.0
 10
17.45390030784822
 20
13.83953873256417
 10
20.80570017077
 20
13.83953873256417
 10
20.86315834497074
 20
13.86913153470834
 10
20.89016186630963
 20
13.88489756010188
 10
20.92121134588407
 20
13.90594889072656
 10
20.95246964760165
 20
13.92953650090351
 10
20.98009963537126
 20
13.95291136495109
 10
21.03958275157058
 20
14.00709839305057
 10
21.09498980199689
 20
14.21286446938086
 10
21.04408309471793
 20
14.35889554545395
 10
19.32386678919531
 20
16.98305479200428
 10
18.8950873427959
 20
17.62571167720546
 10
16.01366965345389
 20
17.62754134812405
 10
15.41603870668107
 20
16.719999054813
 10
13.8588529090309
 20
14.33347559316155
 10
13.82583845559768
 20
14.15749342670699
 10
13.92333390987207
 20
13.95860810273518
 10
14.10210044492735
 20
13.83953873256417
  0
LWPOLYLINE
  5
107
330
1F
100
AcDbEntity
  8
LAYER_1
 62
     7
100
AcDbPolyline
 90
       11
 70
     1
 43
0.0
 10
19.98676865214131
 20
14.82986455679077
 10
19.98676865214131
 20
14.92198234964383
 10
19.32589438603802
 20
15.93083184323825
 10
19.17247984476873
 20
16.00558011337819
 10
19.04255060377201
 20
15.94638038942105
 10
18.95505160857712
 20
15.81284004356132
 10
18.98500329720511
 20
15.69408167976474
 10
19.61878591421757
 20
14.72077545215564
 10
19.7295413863246
 20
14.62870594413891
 10
19.84814571302806
 20
14.62870594413891
 10
19.98676865214131
 20
14.73774676393771
  0
LWPOLYLINE
  5
108
330
1F
100
AcDbEntity
  8
LAYER_1
 62
     7
100
AcDbPolyline
 90
        9
 70
     1
 43
0.0
 10
19.01346242453221
 20
16.36487380960409
 10
19.01346242453221
 20
16.46627757955923
 10
18.87483948541851
 20
16.57531839935712
 10
18.7480152715477
 20
16.57531839935712
 10
18.61887881874438
 20
16.4461819465547
 10
18.61887881874438
 20
16.28356567265439
 10
18.7480152715477
 20
16.15442921985107
 10
18.87483948541851
 20
16.15442921985107
 10
19.01346242453221
 20
16.26347003964895
  0
ENDSEC
  0
SECTION
  2
OBJECTS
  0
DICTIONARY
  5
C
330
0
100
AcDbDictionary
281
     1
  3
ACAD_DETAILVIEWSTYLE
350
B5
  3
ACAD_GROUP
350
D
  3
ACAD_IMAGE_VARS
350
6A
  3
ACAD_LAYOUT
350
1A
  3
ACAD_MLINESTYLE
350
17
  3
ACAD_PLOTSETTINGS
350
19
  3
ACAD_PLOTSTYLENAME
350
E
  3
ACAD_SCALELIST
350
40
  3
ACAD_SECTIONVIEWSTYLE
350
B6
  3
AcDbVariableDictionary
350
3D
  3
APPDATA
350
71
  3
DWGPROPS
350
109
  0
DICTIONARY
  5
B9
330
B8
100
AcDbDictionary
280
     1
281
     1
  3
ADSK_XREC_LAYER_RECONCILED
360
BA
  0
DICTIONARY
  5
B5
102
{ACAD_REACTORS
330
C
102
}
330
C
100
AcDbDictionary
281
     1
  0
DICTIONARY
  5
D
102
{ACAD_REACTORS
330
C
102
}
330
C
100
AcDbDictionary
281
     1
  0
RASTERVARIABLES
  5
6A
102
{ACAD_REACTORS
330
C
102
}
330
C
100
AcDbRasterVariables
 90
        0
 70
     1
 71
     1
 72
     1
  0
DICTIONARY
  5
1A
102
{ACAD_REACTORS
330
C
102
}
330
C
100
AcDbDictionary
281
     1
  3
Model
350
22
  3
Sheet1
350
1E
  3
Sheet2
350
26
  0
DICTIONARY
  5
17
102
{ACAD_REACTORS
330
C
102
}
330
C
100
AcDbDictionary
281
     1
  3
Standard
350
18
  0
DICTIONARY
  5
19
102
{ACAD_REACTORS
330
C
102
}
330
C
100
AcDbDictionary
281
     1
  0
ACDBDICTIONARYWDFLT
  5
E
102
{ACAD_REACTORS
330
C
102
}
330
C
100
AcDbDictionary
281
     1
  3
Normal
350
F
100
AcDbDictionaryWithDefault
340
F
  0
DICTIONARY
  5
40
102
{ACAD_REACTORS
330
C
102
}
330
C
100
AcDbDictionary
281
     1
  3
A0
350
41
  3
A1
350
42
  3
A2
350
43
  3
A3
350
44
  3
A4
350
45
  3
A5
350
46
  3
A6
350
47
  3
A7
350
48
  3
A8
350
49
  3
A9
350
4A
  3
B0
350
4B
  3
B1
350
4C
  3
B2
350
4D
  3
B3
350
4E
  3
B4
350
4F
  3
B5
350
50
  3
B6
350
51
  3
B7
350
52
  3
B8
350
53
  3
B9
350
54
  3
C0
350
55
  3
C1
350
56
  3
C2
350
57
  3
C3
350
58
  3
C4
350
59
  3
C5
350
5A
  3
C6
350
5B
  3
C7
350
5C
  3
C8
350
5D
  3
C9
350
5E
  3
D0
350
5F
  3
D1
350
60
  3
D2
350
61
  0
DICTIONARY
  5
B6
102
{ACAD_REACTORS
330
C
102
}
330
C
100
AcDbDictionary
281
     1
  0
DICTIONARY
  5
3D
102
{ACAD_REACTORS
330
C
102
}
330
C
100
AcDbDictionary
281
     1
  0
DICTIONARY
  5
71
102
{ACAD_REACTORS
330
C
102
}
330
C
100
AcDbDictionary
281
     1
  0
XRECORD
  5
109
102
{ACAD_REACTORS
330
C
102
}
330
C
100
AcDbXrecord
280
     1
  1
DWGPROPS COOKIE
  2

  3

  4

  6

  7

  8
joe
  9

300
=
301
=
302
=
303
=
304
=
305
=
306
=
307
=
308
=
309
=
 40
0.0
 41
2455022.637359514
 42
2457439.879674085
  1

 90
        0
  0
XRECORD
  5
BA
102
{ACAD_REACTORS
330
B9
102
}
330
B9
100
AcDbXrecord
280
     1
290
     1
  0
LAYOUT
  5
22
102
{ACAD_REACTORS
330
1A
102
}
330
1A
100
AcDbPlotSettings
  1

  2
none_device
  4
ISO_A3_(420.00_x_297.00_MM)
  6

 40
7.5
 41
20.0
 42
7.5
 43
20.0
 44
420.0
 45
297.0
 46
20.78282828282826
 47
0.0
 48
0.0
 49
0.0
140
0.0
141
0.0
142
1.0
143
1.155642023346303
 70
  1204
 72
     1
 73
     0
 74
     1
  7
monochrome.ctb
 75
     0
147
0.8653198653198654
148
-134.1869158878504
149
0.0
100
AcDbLayout
  1
Model
 70
     1
 71
     0
 10
0.0
 20
0.0
 11
420.0
 21
297.0
 12
0.0
 22
0.0
 32
0.0
 14
1.000000000000000E+20
 24
1.000000000000000E+20
 34
1.000000000000000E+20
 15
-1.000000000000000E+20
 25
-1.000000000000000E+20
 35
-1.000000000000000E+20
146
0.0
 13
0.0
 23
0.0
 33
0.0
 16
1.0
 26
0.0
 36
0.0
 17
0.0
 27
1.0
 37
0.0
 76
     0
330
1F
331
29
  0
LAYOUT
  5
1E
102
{ACAD_REACTORS
330
1A
102
}
330
1A
100
AcDbPlotSettings
  1

  2
none_device
  4

  6

 40
0.0
 41
0.0
 42
0.0
 43
0.0
 44
0.0
 45
0.0
 46
0.0
 47
0.0
 48
0.0
 49
0.0
140
0.0
141
0.0
142
1.0
143
1.0
 70
   688
 72
     0
 73
     0
 74
     5
  7

 75
    16
147
1.0
148
0.0
149
0.0
100
AcDbLayout
  1
Sheet1
 70
     1
 71
     1
 10
0.0
 20
0.0
 11
420.0
 21
297.0
 12
0.0
 22
0.0
 32
0.0
 14
1.000000000000000E+20
 24
1.000000000000000E+20
 34
1.000000000000000E+20
 15
-1.000000000000000E+20
 25
-1.000000000000000E+20
 35
-1.000000000000000E+20
146
0.0
 13
0.0
 23
0.0
 33
0.0
 16
1.0
 26
0.0
 36
0.0
 17
0.0
 27
1.0
 37
0.0
 76
     0
330
1B
  0
LAYOUT
  5
26
102
{ACAD_REACTORS
330
1A
102
}
330
1A
100
AcDbPlotSettings
  1

  2
none_device
  4

  6

 40
0.0
 41
0.0
 42
0.0
 43
0.0
 44
0.0
 45
0.0
 46
0.0
 47
0.0
 48
0.0
 49
0.0
140
0.0
141
0.0
142
1.0
143
1.0
 70
   688
 72
     0
 73
     0
 74
     5
  7

 75
    16
147
1.0
148
0.0
149
0.0
100
AcDbLayout
  1
Sheet2
 70
     1
 71
     2
 10
0.0
 20
0.0
 11
0.0
 21
0.0
 12
0.0
 22
0.0
 32
0.0
 14
0.0
 24
0.0
 34
0.0
 15
0.0
 25
0.0
 35
0.0
146
0.0
 13
0.0
 23
0.0
 33
0.0
 16
1.0
 26
0.0
 36
0.0
 17
0.0
 27
1.0
 37
0.0
 76
     0
330
23
  0
MLINESTYLE
  5
18
102
{ACAD_REACTORS
330
17
102
}
330
17
100
AcDbMlineStyle
  2
Standard
 70
     0
  3

 62
   256
 51
90.0
 52
90.0
 71
     2
 49
0.5
 62
   256
  6
BYLAYER
 49
-0.5
 62
   256
  6
BYLAYER
  0
ACDBPLACEHOLDER
  5
F
102
{ACAD_REACTORS
330
E
102
}
330
E
  0
SCALE
  5
41
102
{ACAD_REACTORS
330
40
102
}
330
40
100
AcDbScale
 70
     0
300
1:1
140
1.0
141
1.0
290
     1
  0
SCALE
  5
42
102
{ACAD_REACTORS
330
40
102
}
330
40
100
AcDbScale
 70
     0
300
1:2
140
1.0
141
2.0
290
     0
  0
SCALE
  5
43
102
{ACAD_REACTORS
330
40
102
}
330
40
100
AcDbScale
 70
     0
300
1:4
140
1.0
141
4.0
290
     0
  0
SCALE
  5
44
102
{ACAD_REACTORS
330
40
102
}
330
40
100
AcDbScale
 70
     0
300
1:5
140
1.0
141
5.0
290
     0
  0
SCALE
  5
45
102
{ACAD_REACTORS
330
40
102
}
330
40
100
AcDbScale
 70
     0
300
1:8
140
1.0
141
8.0
290
     0
  0
SCALE
  5
46
102
{ACAD_REACTORS
330
40
102
}
330
40
100
AcDbScale
 70
     0
300
1:10
140
1.0
141
10.0
290
     0
  0
SCALE
  5
47
102
{ACAD_REACTORS
330
40
102
}
330
40
100
AcDbScale
 70
     0
300
1:16
140
1.0
141
16.0
290
     0
  0
SCALE
  5
48
102
{ACAD_REACTORS
330
40
102
}
330
40
100
AcDbScale
 70
     0
300
1:20
140
1.0
141
20.0
290
     0
  0
SCALE
  5
49
102
{ACAD_REACTORS
330
40
102
}
330
40
100
AcDbScale
 70
     0
300
1:30
140
1.0
141
30.0
290
     0
  0
SCALE
  5
4A
102
{ACAD_REACTORS
330
40
102
}
330
40
100
AcDbScale
 70
     0
300
1:40
140
1.0
141
40.0
290
     0
  0
SCALE
  5
4B
102
{ACAD_REACTORS
330
40
102
}
330
40
100
AcDbScale
 70
     0
300
1:50
140
1.0
141
50.0
290
     0
  0
SCALE
  5
4C
102
{ACAD_REACTORS
330
40
102
}
330
40
100
AcDbScale
 70
     0
300
1:100
140
1.0
141
100.0
290
     0
  0
SCALE
  5
4D
102
{ACAD_REACTORS
330
40
102
}
330
40
100
AcDbScale
 70
     0
300
2:1
140
2.0
141
1.0
290
     0
  0
SCALE
  5
4E
102
{ACAD_REACTORS
330
40
102
}
330
40
100
AcDbScale
 70
     0
300
4:1
140
4.0
141
1.0
290
     0
  0
SCALE
  5
4F
102
{ACAD_REACTORS
330
40
102
}
330
40
100
AcDbScale
 70
     0
300
8:1
140
8.0
141
1.0
290
     0
  0
SCALE
  5
50
102
{ACAD_REACTORS
330
40
102
}
330
40
100
AcDbScale
 70
     0
300
10:1
140
10.0
141
1.0
290
     0
  0
SCALE
  5
51
102
{ACAD_REACTORS
330
40
102
}
330
40
100
AcDbScale
 70
     0
300
100:1
140
100.0
141
1.0
290
     0
  0
SCALE
  5
52
102
{ACAD_REACTORS
330
40
102
}
330
40
100
AcDbScale
 70
     0
300
1/128" = 1'-0"
140
0.0078125
141
12.0
290
     0
  0
SCALE
  5
53
102
{ACAD_REACTORS
330
40
102
}
330
40
100
AcDbScale
 70
     0
300
1/64" = 1'-0"
140
0.015625
141
12.0
290
     0
  0
SCALE
  5
54
102
{ACAD_REACTORS
330
40
102
}
330
40
100
AcDbScale
 70
     0
300
1/32" = 1'-0"
140
0.03125
141
12.0
290
     0
  0
SCALE
  5
55
102
{ACAD_REACTORS
330
40
102
}
330
40
100
AcDbScale
 70
     0
300
1/16" = 1'-0"
140
0.0625
141
12.0
290
     0
  0
SCALE
  5
56
102
{ACAD_REACTORS
330
40
102
}
330
40
100
AcDbScale
 70
     0
300
3/32" = 1'-0"
140
0.09375
141
12.0
290
     0
  0
SCALE
  5
57
102
{ACAD_REACTORS
330
40
102
}
330
40
100
AcDbScale
 70
     0
300
1/8" = 1'-0"
140
0.125
141
12.0
290
     0
  0
SCALE
  5
58
102
{ACAD_REACTORS
330
40
102
}
330
40
100
AcDbScale
 70
     0
300
3/16" = 1'-0"
140
0.1875
141
12.0
290
     0
  0
SCALE
  5
59
102
{ACAD_REACTORS
330
40
102
}
330
40
100
AcDbScale
 70
     0
300
1/4" = 1'-0"
140
0.25
141
12.0
290
     0
  0
SCALE
  5
5A
102
{ACAD_REACTORS
330
40
102
}
330
40
100
AcDbScale
 70
     0
300
3/8" = 1'-0"
140
0.375
141
12.0
290
     0
  0
SCALE
  5
5B
102
{ACAD_REACTORS
330
40
102
}
330
40
100
AcDbScale
 70
     0
300
1/2" = 1'-0"
140
0.5
141
12.0
290
     0
  0
SCALE
  5
5C
102
{ACAD_REACTORS
330
40
102
}
330
40
100
AcDbScale
 70
     0
300
3/4" = 1'-0"
140
0.75
141
12.0
290
     0
  0
SCALE
  5
5D
102
{ACAD_REACTORS
330
40
102
}
330
40
100
AcDbScale
 70
     0
300
1" = 1'-0"
140
1.0
141
12.0
290
     0
  0
SCALE
  5
5E
102
{ACAD_REACTORS
330
40
102
}
330
40
100
AcDbScale
 70
     0
300
1-1/2" = 1'-0"
140
1.5
141
12.0
290
     0
  0
SCALE
  5
5F
102
{ACAD_REACTORS
330
40
102
}
330
40
100
AcDbScale
 70
     0
300
3" = 1'-0"
140
3.0
141
12.0
290
     0
  0
SCALE
  5
60
102
{ACAD_REACTORS
330
40
102
}
330
40
100
AcDbScale
 70
     0
300
6" = 1'-0"
140
6.0
141
12.0
290
     0
  0
SCALE
  5
61
102
{ACAD_REACTORS
330
40
102
}
330
40
100
AcDbScale
 70
     0
300
1'-0" = 1'-0"
140
12.0
141
12.0
290
     0
  0
ENDSEC
  0
EOF
