0
SECTION
2
HEADER
9
$INSUNITS
70
4
9
$ACADVER
1
AC1014
9
$HANDSEED
5
FFFF
0
ENDSEC
0
SECTION
2
TABLES
0
TABLE
2
VPORT
5
8
100
AcDbSymbolTable
0
ENDTAB
0
TABLE
2
LTYPE
5
5
100
AcDbSymbolTable
0
LTYPE
5
14
100
AcDbSymbolTableRecord
100
AcDbLinetypeTableRecord
2
BYBLOCK
70
0
0
LTYPE
5
15
100
AcDbSymbolTableRecord
100
AcDbLinetypeTableRecord
2
BYLAYER
70
0
0
ENDTAB
0
TABLE
2
LAYER
5
2
100
AcDbSymbolTable
70
2
0
LAYER
5
50
100
AcDbSymbolTableRecord
100
AcDbLayerTableRecord
2
0
70
0
6
CONTINUOUS
0
ENDTAB
0
TABLE
2
STYLE
5
3
100
AcDbSymbolTable
70
1
0
STYLE
5
11
100
AcDbSymbolTableRecord
100
AcDbTextStyleTableRecord
2
STANDARD
70
0
0
ENDTAB
0
TABLE
2
VIEW
5
6
100
AcDbSymbolTable
70
0
0
ENDTAB
0
TABLE
2
UCS
5
7
100
AcDbSymbolTable
70
0
0
ENDTAB
0
TABLE
2
APPID
5
9
100
AcDbSymbolTable
70
2
0
APPID
5
12
100
AcDbSymbolTableRecord
100
AcDbRegAppTableRecord
2
ACAD
70
0
0
ENDTAB
0
TABLE
2
DIMSTYLE
5
A
100
AcDbSymbolTable
70
1
0
ENDTAB
0
TABLE
2
BLOCK_RECORD
5
1
100
AcDbSymbolTable
70
1
0
BLOCK_RECORD
5
1F
100
AcDbSymbolTableRecord
100
AcDbBlockTableRecord
2
*MODEL_SPACE
0
BLOCK_RECORD
5
1B
100
AcDbSymbolTableRecord
100
AcDbBlockTableRecord
2
*PAPER_SPACE
0
ENDTAB
0
ENDSEC
0
SECTION
2
BLOCKS
0
BLOCK
5
20
100
AcDbEntity
100
AcDbBlockBegin
2
*MODEL_SPACE
0
ENDBLK
5
21
100
AcDbEntity
100
AcDbBlockEnd
0
BLOCK
5
1C
100
AcDbEntity
100
AcDbBlockBegin
2
*PAPER_SPACE
0
ENDBLK
5
1D
100
AcDbEntity
100
AcDbBlockEnd
0
ENDSEC
0
SECTION
2
ENTITIES
0
CIRCLE
5
100
100
AcDbEntity
8
0
100
AcDbCircle
10
77.499999999999858
20
3.3176603623715328
30
0
40
1.587499999999995
0
CIRCLE
5
101
100
AcDbEntity
8
0
100
AcDbCircle
10
-177.49999999999994
20
3.3176603623715906
30
0
40
1.5875000000000126
0
CIRCLE
5
102
100
AcDbEntity
8
0
100
AcDbCircle
10
177.49999999999986
20
3.3176603623714582
30
0
40
1.5875000000000126
0
CIRCLE
5
103
100
AcDbEntity
8
0
100
AcDbCircle
10
-77.499999999999929
20
3.3176603623715906
30
0
40
1.587499999999995
0
LWPOLYLINE
5
104
100
AcDbEntity
8
0
100
AcDbPolyline
90
4
70
1
43
0.0
10
224.49999999999991
20
4.7499999999999982
10
239.49999999999991
20
4.7499999999999982
42
0.99999999999999989
10
239.49999999999991
20
11.249999999999998
10
224.49999999999991
20
11.249999999999998
42
0.99999999999999989
0
LWPOLYLINE
5
105
100
AcDbEntity
8
0
100
AcDbPolyline
90
4
70
1
43
0.0
10
-239.5
20
4.7499999999999982
10
-224.5
20
4.7499999999999982
42
0.99999999999999989
10
-224.5
20
11.249999999999998
10
-239.5
20
11.249999999999998
42
0.99999999999999989
0
CIRCLE
5
106
100
AcDbEntity
8
0
100
AcDbCircle
10
-245.00000000000014
20
37.527185102228138
30
0
40
2.5
0
CIRCLE
5
107
100
AcDbEntity
8
0
100
AcDbCircle
10
223.13436668545819
20
37.527185102228138
30
0
40
2.5
0
ARC
5
108
100
AcDbEntity
8
0
100
AcDbCircle
10
245.00036524422944
20
37.527185102227719
30
0
40
2.4999999999999982
100
AcDbArc
50
-90.004185451176269
51
90.004185329908651
0
ARC
5
109
100
AcDbEntity
8
0
100
AcDbCircle
10
245.00000000000023
20
37.527185102228117
30
0
40
2.4999999999999987
100
AcDbArc
50
89.99581454877098
51
270.00418532996144
0
CIRCLE
5
110
100
AcDbEntity
8
0
100
AcDbCircle
10
-223.13436668545813
20
37.527185102228117
30
0
40
2.5
0
CIRCLE
5
111
100
AcDbEntity
8
0
100
AcDbCircle
10
247.50000000000014
20
68.499999999999915
30
0
40
2.7499999999999858
0
CIRCLE
5
112
100
AcDbEntity
8
0
100
AcDbCircle
10
-247.49999999999994
20
68.499999999999915
30
0
40
2.7499999999999858
0
CIRCLE
5
113
100
AcDbEntity
8
0
100
AcDbCircle
10
247.50000000000006
20
527.50000000000239
30
0
40
2.7499999999999858
0
CIRCLE
5
114
100
AcDbEntity
8
0
100
AcDbCircle
10
-247.5
20
527.50000000000239
30
0
40
2.7499999999999858
0
CIRCLE
5
115
100
AcDbEntity
8
0
100
AcDbCircle
10
-208.49999999999994
20
510.00000000000006
30
0
40
3.1750000000000251
0
CIRCLE
5
116
100
AcDbEntity
8
0
100
AcDbCircle
10
-208.49999999999994
20
265.00000000000006
30
0
40
3.1750000000000251
0
CIRCLE
5
117
100
AcDbEntity
8
0
100
AcDbCircle
10
-208.49999999999994
20
20.000000000000071
30
0
40
3.1749999999999901
0
CIRCLE
5
118
100
AcDbEntity
8
0
100
AcDbCircle
10
208.5
20
20.000000000000071
30
0
40
3.1749999999999901
0
CIRCLE
5
119
100
AcDbEntity
8
0
100
AcDbCircle
10
208.5
20
265.00000000000006
30
0
40
3.1750000000000251
0
CIRCLE
5
120
100
AcDbEntity
8
0
100
AcDbCircle
10
208.5
20
510.00000000000006
30
0
40
3.1750000000000251
0
CIRCLE
5
121
100
AcDbEntity
8
0
100
AcDbCircle
10
-19.912503600652229
20
10.010817377880201
30
0
40
2.5999999999999801
0
CIRCLE
5
122
100
AcDbEntity
8
0
100
AcDbCircle
10
49.912503600652265
20
27.120746736459775
30
0
40
2.6000000000000156
0
CIRCLE
5
123
100
AcDbEntity
8
0
100
AcDbCircle
10
3.5527136788005009e-014
20
10.010817377880219
30
0
40
2.5999999999999801
0
CIRCLE
5
124
100
AcDbEntity
8
0
100
AcDbCircle
10
-49.912503600652229
20
10.010817377880219
30
0
40
2.5999999999999801
0
CIRCLE
5
125
100
AcDbEntity
8
0
100
AcDbCircle
10
49.912503600652265
20
10.010817377880237
30
0
40
2.6000000000000156
0
CIRCLE
5
126
100
AcDbEntity
8
0
100
AcDbCircle
10
19.9125036006523
20
10.010817377880219
30
0
40
2.6000000000000156
0
CIRCLE
5
127
100
AcDbEntity
8
0
100
AcDbCircle
10
-49.912503600652229
20
26.615817377890743
30
0
40
2.6000000000000156
0
LWPOLYLINE
5
128
100
AcDbEntity
8
0
100
AcDbPolyline
90
12
70
1
43
0.0
10
-187.5
20
450
10
-187.5
20
87.010817377880187
42
0.41421356237309503
10
-137.5
20
37.010817377880194
10
-39.912503600652244
20
37.010817377880194
10
-39.912503600652244
20
20.010817377880194
10
39.912503600652244
20
20.010817377880194
10
39.912503600652244
20
37.010817377880194
10
137.49999999999997
20
37.010817377880194
42
0.41421356237309537
10
187.5
20
87.01081737788023
10
187.5
20
450.00000000000006
42
0.41421356237309503
10
137.50000000000003
20
500.00000000000006
10
-137.49999999999997
20
500.00000000000006
42
0.41421356237309553
0
LWPOLYLINE
5
129
100
AcDbEntity
8
0
100
AcDbPolyline
90
14
70
1
43
0.0
10
220.69377875210938
20
-6.9999999999999947
42
-0.22388753635207462
10
216.45113806499012
20
-5.0000000000000071
42
0.22388753635207986
10
212.20849737787074
20
-3.0000000000000071
10
-212.2084973778708
20
-2.9999999999999938
42
0.22388753635207312
10
-216.45113806499012
20
-5.0000000000000107
42
-0.22388753635207462
10
-220.69377875210938
20
-7
10
-242.5
20
-7.0000000000000178
42
-0.4142135623730962
10
-257.5
20
7.9999999999999716
10
-257.49999999999994
20
537.5
42
-0.41421356237310752
10
-255
20
540.00000000000011
10
255
20
540.00000000000011
42
-0.41421356237310752
10
257.5
20
537.50000000000011
10
257.5
20
8.0000000000000036
42
-0.41421356237309626
10
242.5
20
-7
0
CIRCLE
5
130
100
AcDbEntity
8
0
100
AcDbCircle
10
77.499999999999858
20
3.3176603623715328
30
0
40
1.587499999999995
0
CIRCLE
5
131
100
AcDbEntity
8
0
100
AcDbCircle
10
-177.49999999999994
20
3.3176603623715906
30
0
40
1.5875000000000126
0
CIRCLE
5
132
100
AcDbEntity
8
0
100
AcDbCircle
10
177.49999999999986
20
3.3176603623714582
30
0
40
1.5875000000000126
0
CIRCLE
5
133
100
AcDbEntity
8
0
100
AcDbCircle
10
-77.499999999999929
20
3.3176603623715906
30
0
40
1.587499999999995
0
LWPOLYLINE
5
134
100
AcDbEntity
8
0
100
AcDbPolyline
90
4
70
1
43
0.0
10
239.49999999999991
20
4.7499999999999982
10
224.49999999999991
20
4.7499999999999982
42
-0.99999999999999989
10
224.49999999999991
20
11.249999999999998
10
239.49999999999991
20
11.249999999999998
42
-0.99999999999999989
0
LWPOLYLINE
5
135
100
AcDbEntity
8
0
100
AcDbPolyline
90
4
70
1
43
0.0
10
-224.5
20
4.7499999999999982
10
-239.5
20
4.7499999999999982
42
-0.99999999999999989
10
-239.5
20
11.249999999999998
10
-224.5
20
11.249999999999998
42
-0.99999999999999989
0
CIRCLE
5
136
100
AcDbEntity
8
0
100
AcDbCircle
10
-245.00000000000014
20
37.527185102228138
30
0
40
2.5
0
CIRCLE
5
137
100
AcDbEntity
8
0
100
AcDbCircle
10
223.13436668545819
20
37.527185102228138
30
0
40
2.5
0
LWPOLYLINE
5
138
100
AcDbEntity
8
0
100
AcDbPolyline
90
12
70
1
43
0.0
10
-39.912503600652244
20
20.010817377880194
10
-39.912503600652244
20
37.010817377880194
10
-137.49999999999997
20
37.010817377880215
42
-0.4142135623730952
10
-187.5
20
87.010817377880159
10
-187.50000000000006
20
450
42
-0.41421356237309576
10
-137.50000000000003
20
500.00000000000006
10
137.49999999999997
20
500.00000000000006
42
-0.4142135623730952
10
187.5
20
450.00000000000006
10
187.5
20
87.010817377880272
42
-0.41421356237309498
10
137.5
20
37.010817377880194
10
39.912503600652244
20
37.010817377880194
10
39.912503600652244
20
20.010817377880194
0
LWPOLYLINE
5
139
100
AcDbEntity
8
0
100
AcDbPolyline
90
14
70
1
43
0.0
10
220.69377875210938
20
-6.9999999999999973
42
-0.2238875363520717
10
216.45113806499012
20
-5.0000000000000071
42
0.22388753635207811
10
212.20849737787077
20
-2.9999999999999805
10
-212.20849737787077
20
-3.0000000000000071
42
0.22388753635207501
10
-216.45113806499012
20
-5.0000000000000124
42
-0.22388753635207137
10
-220.69377875210938
20
-7
10
-242.5
20
-7.0000000000000284
42
-0.41421356237309509
10
-257.5
20
7.9999999999999716
10
-257.5
20
537.50000000000011
42
-0.41421356237309503
10
-255
20
540.00000000000011
10
255
20
540.00000000000011
42
-0.41421356237309503
10
257.5
20
537.50000000000011
10
257.5
20
7.9999999999999751
42
-0.41421356237309453
10
242.5
20
-7
0
CIRCLE
5
140
100
AcDbEntity
8
0
100
AcDbCircle
10
-49.912503600652229
20
26.615817377890743
30
0
40
2.6000000000000156
0
CIRCLE
5
141
100
AcDbEntity
8
0
100
AcDbCircle
10
19.9125036006523
20
10.010817377880219
30
0
40
2.6000000000000156
0
CIRCLE
5
142
100
AcDbEntity
8
0
100
AcDbCircle
10
49.912503600652265
20
10.010817377880237
30
0
40
2.6000000000000156
0
CIRCLE
5
143
100
AcDbEntity
8
0
100
AcDbCircle
10
-49.912503600652229
20
10.010817377880219
30
0
40
2.5999999999999801
0
CIRCLE
5
144
100
AcDbEntity
8
0
100
AcDbCircle
10
3.5527136788005009e-014
20
10.010817377880219
30
0
40
2.5999999999999801
0
CIRCLE
5
145
100
AcDbEntity
8
0
100
AcDbCircle
10
49.912503600652265
20
27.120746736459775
30
0
40
2.6000000000000156
0
CIRCLE
5
146
100
AcDbEntity
8
0
100
AcDbCircle
10
-19.912503600652229
20
10.010817377880201
30
0
40
2.5999999999999801
0
CIRCLE
5
147
100
AcDbEntity
8
0
100
AcDbCircle
10
208.5
20
510.00000000000006
30
0
40
3.1750000000000251
0
CIRCLE
5
148
100
AcDbEntity
8
0
100
AcDbCircle
10
208.5
20
265.00000000000006
30
0
40
3.1750000000000251
0
CIRCLE
5
149
100
AcDbEntity
8
0
100
AcDbCircle
10
208.5
20
20.000000000000071
30
0
40
3.1749999999999901
0
CIRCLE
5
150
100
AcDbEntity
8
0
100
AcDbCircle
10
-208.49999999999994
20
20.000000000000071
30
0
40
3.1749999999999901
0
CIRCLE
5
151
100
AcDbEntity
8
0
100
AcDbCircle
10
-208.49999999999994
20
265.00000000000006
30
0
40
3.1750000000000251
0
CIRCLE
5
152
100
AcDbEntity
8
0
100
AcDbCircle
10
-208.49999999999994
20
510.00000000000006
30
0
40
3.1750000000000251
0
CIRCLE
5
153
100
AcDbEntity
8
0
100
AcDbCircle
10
-247.5
20
527.50000000000239
30
0
40
2.7499999999999858
0
CIRCLE
5
154
100
AcDbEntity
8
0
100
AcDbCircle
10
247.50000000000006
20
527.50000000000239
30
0
40
2.7499999999999858
0
CIRCLE
5
155
100
AcDbEntity
8
0
100
AcDbCircle
10
-247.49999999999994
20
68.499999999999915
30
0
40
2.7499999999999858
0
CIRCLE
5
156
100
AcDbEntity
8
0
100
AcDbCircle
10
247.50000000000014
20
68.499999999999915
30
0
40
2.7499999999999858
0
CIRCLE
5
157
100
AcDbEntity
8
0
100
AcDbCircle
10
-223.13436668545813
20
37.527185102228117
30
0
40
2.5
0
ARC
5
158
100
AcDbEntity
8
0
100
AcDbCircle
10
245.00036524422944
20
37.527185102227726
30
0
40
2.4999999999999982
100
AcDbArc
50
-90.004185451176269
51
90.004185329961402
0
ARC
5
159
100
AcDbEntity
8
0
100
AcDbCircle
10
245.00000000000023
20
37.527185102228117
30
0
40
2.4999999999999982
100
AcDbArc
50
89.995814548823745
51
270.00418532996144
0
ENDSEC
0
SECTION
2
OBJECTS
0
DICTIONARY
5
C
100
AcDbDictionary
3
ACAD_GROUP
350
D
3
ACAD_MLINESTYLE
350
17
0
DICTIONARY
5
D
100
AcDbDictionary
0
DICTIONARY
5
1A
330
C
100
AcDbDictionary
0
DICTIONARY
5
17
100
AcDbDictionary
0
ENDSEC
0
EOF
